SplineFontDB: 3.0
FontName: OxygenMono-Regular
FullName: Oxygen Mono
FamilyName: Oxygen Mono
Weight: Book
Copyright: Copyright (c) 2011-12 by vernon adams.
Version: 0.2
ItalicAngle: 0
UnderlinePosition: -119
UnderlineWidth: 119
Ascent: 1638
Descent: 410
sfntRevision: 0x00003333
LayerCount: 2
Layer: 0 1 "Back"  1
Layer: 1 1 "Fore"  0
XUID: [1021 846 39740748 15846377]
FSType: 0
OS2Version: 3
OS2_WeightWidthSlopeOnly: 0
OS2_UseTypoMetrics: 1
CreationTime: 1332539176
ModificationTime: 1335432484
PfmFamily: 17
TTFWeight: 400
TTFWidth: 5
LineGap: 0
VLineGap: 0
Panose: 2 0 5 9 0 0 0 0 0 0
OS2TypoAscent: 1901
OS2TypoAOffset: 0
OS2TypoDescent: -483
OS2TypoDOffset: 0
OS2TypoLinegap: 0
OS2WinAscent: 1901
OS2WinAOffset: 0
OS2WinDescent: 483
OS2WinDOffset: 0
HheadAscent: 1901
HheadAOffset: 0
HheadDescent: -483
HheadDOffset: 0
OS2SubXSize: 1331
OS2SubYSize: 1228
OS2SubXOff: 0
OS2SubYOff: 153
OS2SupXSize: 1331
OS2SupYSize: 1228
OS2SupXOff: 0
OS2SupYOff: 716
OS2StrikeYSize: 119
OS2StrikeYPos: 658
OS2Vendor: 'newt'
OS2CodePages: 20000093.00000000
OS2UnicodeRanges: 8000002f.0000204a.00000000.00000000
MarkAttachClasses: 1
DEI: 91125
ShortTable: cvt  2
  68
  1297
EndShort
ShortTable: maxp 16
  1
  0
  361
  90
  7
  73
  4
  2
  0
  1
  1
  0
  64
  0
  2
  1
EndShort
LangName: 1033 "" "" "" "Oxygen Mono Regular" "" "Version 0.2" "" "Oxygen Mono is a trademark of vernon adams." "vernon adams" "vernon adams" "Copyright (c) 2011-12 by vernon adams. All rights reserved." "newtypography.co.uk" "newtypography.co.uk" "" "http://scripts.sil.org/OFL" "" "Oxygen Mono" "Regular" "Oxygen Mono" 
GaspTable: 1 65535 2 0
Encoding: UnicodeBmp
UnicodeInterp: none
NameList: Adobe Glyph List
DisplaySize: -48
AntiAlias: 1
FitToEm: 1
WinInfo: 44 22 4
BeginChars: 65538 361

StartChar: .notdef
Encoding: 65536 -1 0
Width: 1229
Flags: W
LayerCount: 2
Fore
SplineSet
68 0 m 1,0,-1
 68 1365 l 1,1,-1
 612 1365 l 1,2,-1
 612 0 l 1,3,-1
 68 0 l 1,0,-1
136 68 m 1,4,-1
 544 68 l 1,5,-1
 544 1297 l 1,6,-1
 136 1297 l 1,7,-1
 136 68 l 1,4,-1
EndSplineSet
EndChar

StartChar: exclam
Encoding: 33 33 4
Width: 1229
Flags: W
LayerCount: 2
Fore
SplineSet
735 0 m 1,0,-1
 495 0 l 1,1,-1
 495 276 l 1,2,-1
 735 276 l 1,3,-1
 735 0 l 1,0,-1
584 489 m 1,4,-1
 495 1492 l 1,5,-1
 735 1492 l 1,6,-1
 646 489 l 1,7,-1
 584 489 l 1,4,-1
EndSplineSet
EndChar

StartChar: quotedbl
Encoding: 34 34 5
Width: 1229
Flags: W
LayerCount: 2
Fore
SplineSet
885 1568 m 1,0,-1
 834 1036 l 1,1,-1
 693 1036 l 1,2,-1
 654 1568 l 1,3,-1
 885 1568 l 1,0,-1
518 1568 m 1,4,-1
 467 1036 l 1,5,-1
 324 1036 l 1,6,-1
 285 1568 l 1,7,-1
 518 1568 l 1,4,-1
EndSplineSet
EndChar

StartChar: numbersign
Encoding: 35 35 6
Width: 1229
Flags: W
LayerCount: 2
Fore
SplineSet
592 997 m 1,0,-1
 509 573 l 1,1,-1
 727 573 l 1,2,-1
 811 997 l 1,3,-1
 592 997 l 1,0,-1
1155 997 m 1,4,-1
 971 997 l 1,5,-1
 886 573 l 1,6,-1
 1073 573 l 1,7,-1
 1058 437 l 1,8,-1
 863 437 l 1,9,-1
 772 -25 l 1,10,-1
 610 -25 l 1,11,-1
 698 437 l 1,12,-1
 483 437 l 1,13,-1
 393 -25 l 1,14,-1
 230 -25 l 1,15,-1
 324 437 l 1,16,-1
 108 437 l 1,17,-1
 121 573 l 1,18,-1
 350 573 l 1,19,-1
 430 996 l 1,20,-1
 205 996 l 1,21,-1
 219 1130 l 1,22,-1
 455 1130 l 1,23,-1
 541 1568 l 1,24,-1
 704 1568 l 1,25,-1
 619 1130 l 1,26,-1
 837 1130 l 1,27,-1
 921 1568 l 1,28,-1
 1083 1568 l 1,29,-1
 997 1130 l 1,30,-1
 1172 1130 l 1,31,-1
 1155 997 l 1,4,-1
EndSplineSet
EndChar

StartChar: dollar
Encoding: 36 36 7
Width: 1229
Flags: W
LayerCount: 2
Fore
SplineSet
573 1752 m 1,0,-1
 666 1752 l 1,1,-1
 666 1515 l 1,2,3
 874 1503 874 1503 997 1406 c 1,4,-1
 927 1262 l 1,5,6
 818 1347 818 1347 666 1361 c 1,7,-1
 666 850 l 1,8,9
 690 840 690 840 706 833 c 0,10,11
 766 806 766 806 809 783.5 c 128,-1,12
 852 761 852 761 901.5 723.5 c 128,-1,13
 951 686 951 686 982 645 c 128,-1,14
 1013 604 1013 604 1033.5 544.5 c 128,-1,15
 1054 485 1054 485 1054 415 c 0,16,17
 1054 220 1054 220 951 109 c 128,-1,18
 848 -2 848 -2 666 -21 c 1,19,-1
 666 -218 l 1,20,-1
 573 -218 l 1,21,-1
 573 -25 l 1,22,23
 314 -21 314 -21 141 94 c 1,24,-1
 212 261 l 1,25,26
 282 204 282 204 374.5 169 c 128,-1,27
 467 134 467 134 573 130 c 1,28,-1
 573 687 l 1,29,30
 506 714 506 714 496 718 c 0,31,32
 434 744 434 744 392.5 764.5 c 128,-1,33
 351 785 351 785 301 821 c 128,-1,34
 251 857 251 857 221 896 c 128,-1,35
 191 935 191 935 170.5 993.5 c 128,-1,36
 150 1052 150 1052 150 1123 c 0,37,38
 150 1243 150 1243 206 1331.5 c 128,-1,39
 262 1420 262 1420 356 1465.5 c 128,-1,40
 450 1511 450 1511 573 1516 c 1,41,-1
 573 1752 l 1,0,-1
573 886 m 1,42,-1
 573 1361 l 1,43,44
 472 1350 472 1350 414.5 1286.5 c 128,-1,45
 357 1223 357 1223 357 1121 c 0,46,47
 357 1075 357 1075 374.5 1037.5 c 128,-1,48
 392 1000 392 1000 425 972 c 128,-1,49
 458 944 458 944 492 924.5 c 128,-1,50
 526 905 526 905 573 886 c 1,42,-1
666 646 m 1,51,-1
 666 138 l 1,52,53
 752 159 752 159 797.5 229 c 128,-1,54
 843 299 843 299 843 404 c 0,55,56
 843 492 843 492 796 548.5 c 128,-1,57
 749 605 749 605 666 646 c 1,51,-1
EndSplineSet
EndChar

StartChar: percent
Encoding: 37 37 8
Width: 1229
Flags: W
LayerCount: 2
Fore
SplineSet
330 1457 m 0,0,1
 289 1457 289 1457 261 1438.5 c 128,-1,2
 233 1420 233 1420 218.5 1385.5 c 128,-1,3
 204 1351 204 1351 198.5 1313.5 c 128,-1,4
 193 1276 193 1276 193 1228 c 0,5,6
 193 1179 193 1179 198.5 1142.5 c 128,-1,7
 204 1106 204 1106 217.5 1072.5 c 128,-1,8
 231 1039 231 1039 259.5 1021.5 c 128,-1,9
 288 1004 288 1004 329 1004 c 0,10,11
 465 1004 465 1004 465 1232 c 0,12,13
 465 1298 465 1298 455.5 1344 c 128,-1,14
 446 1390 446 1390 414.5 1423.5 c 128,-1,15
 383 1457 383 1457 330 1457 c 0,0,1
1125 1018 m 1,16,-1
 201 465 l 1,17,-1
 140 567 l 1,18,-1
 1064 1124 l 1,19,-1
 1125 1018 l 1,16,-1
333 1571 m 0,20,21
 467 1571 467 1571 528 1479.5 c 128,-1,22
 589 1388 589 1388 589 1232 c 0,23,24
 589 1073 589 1073 519.5 981.5 c 128,-1,25
 450 890 450 890 325 890 c 0,26,27
 191 890 191 890 128.5 982 c 128,-1,28
 66 1074 66 1074 66 1228 c 0,29,30
 66 1383 66 1383 131.5 1477 c 128,-1,31
 197 1571 197 1571 333 1571 c 0,20,21
907 662 m 0,32,33
 1041 662 1041 662 1102 570.5 c 128,-1,34
 1163 479 1163 479 1163 323 c 0,35,36
 1163 164 1163 164 1093.5 72.5 c 128,-1,37
 1024 -19 1024 -19 899 -19 c 0,38,39
 765 -19 765 -19 702.5 73 c 128,-1,40
 640 165 640 165 640 319 c 0,41,42
 640 474 640 474 705.5 568 c 128,-1,43
 771 662 771 662 907 662 c 0,32,33
904 548 m 0,44,45
 863 548 863 548 835 529.5 c 128,-1,46
 807 511 807 511 792.5 476.5 c 128,-1,47
 778 442 778 442 772.5 404.5 c 128,-1,48
 767 367 767 367 767 319 c 0,49,50
 767 270 767 270 772.5 233.5 c 128,-1,51
 778 197 778 197 791.5 163.5 c 128,-1,52
 805 130 805 130 833.5 112.5 c 128,-1,53
 862 95 862 95 903 95 c 0,54,55
 1039 95 1039 95 1039 323 c 0,56,57
 1039 389 1039 389 1029.5 435 c 128,-1,58
 1020 481 1020 481 988.5 514.5 c 128,-1,59
 957 548 957 548 904 548 c 0,44,45
EndSplineSet
EndChar

StartChar: ampersand
Encoding: 38 38 9
Width: 1229
Flags: W
LayerCount: 2
Fore
SplineSet
689 1260 m 0,0,1
 689 1341 689 1341 644 1392.5 c 128,-1,2
 599 1444 599 1444 530 1444 c 0,3,4
 453 1444 453 1444 401 1400 c 128,-1,5
 349 1356 349 1356 349 1289 c 0,6,7
 349 1158 349 1158 494 961 c 1,8,9
 587 1013 587 1013 638 1081.5 c 128,-1,10
 689 1150 689 1150 689 1260 c 0,0,1
554 143 m 0,11,12
 632 143 632 143 690 173 c 128,-1,13
 748 203 748 203 804 259 c 1,14,-1
 449 746 l 1,15,16
 277 616 277 616 277 419 c 0,17,18
 277 288 277 288 350.5 215.5 c 128,-1,19
 424 143 424 143 554 143 c 0,11,12
346 881 m 1,20,21
 338 890 338 890 325 905.5 c 128,-1,22
 312 921 312 921 278.5 968.5 c 128,-1,23
 245 1016 245 1016 219.5 1061 c 128,-1,24
 194 1106 194 1106 173 1166 c 128,-1,25
 152 1226 152 1226 152 1275 c 0,26,27
 152 1428 152 1428 255.5 1511 c 128,-1,28
 359 1594 359 1594 515 1594 c 0,29,30
 677 1594 677 1594 784 1509.5 c 128,-1,31
 891 1425 891 1425 891 1270 c 0,32,33
 891 1191 891 1191 864 1122 c 128,-1,34
 837 1053 837 1053 787.5 1000.5 c 128,-1,35
 738 948 738 948 688.5 911 c 128,-1,36
 639 874 639 874 574 838 c 1,37,-1
 913 374 l 1,38,39
 948 415 948 415 984.5 495 c 128,-1,40
 1021 575 1021 575 1039 627 c 1,41,-1
 1198 569 l 1,42,43
 1161 481 1161 481 1108.5 380 c 128,-1,44
 1056 279 1056 279 1015 236 c 1,45,-1
 1138 76 l 1,46,-1
 1008 -24 l 1,47,-1
 905 121 l 1,48,49
 837 56 837 56 737.5 15.5 c 128,-1,50
 638 -25 638 -25 531 -25 c 0,51,52
 317 -25 317 -25 192.5 89 c 128,-1,53
 68 203 68 203 68 413 c 0,54,55
 68 696 68 696 346 881 c 1,20,21
EndSplineSet
EndChar

StartChar: quotesingle
Encoding: 39 39 10
Width: 1229
Flags: W
LayerCount: 2
Fore
SplineSet
558 969 m 1,0,-1
 496 1580 l 1,1,-1
 755 1580 l 1,2,-1
 700 969 l 1,3,-1
 558 969 l 1,0,-1
EndSplineSet
EndChar

StartChar: parenleft
Encoding: 40 40 11
Width: 1229
Flags: W
LayerCount: 2
Fore
SplineSet
383 772 m 0,0,1
 383 1288 383 1288 685 1705 c 1,2,-1
 861 1705 l 1,3,4
 577 1257 577 1257 577 781 c 0,5,6
 577 514 577 514 651.5 290 c 128,-1,7
 726 66 726 66 863 -152 c 1,8,-1
 688 -152 l 1,9,10
 383 255 383 255 383 772 c 0,0,1
EndSplineSet
EndChar

StartChar: parenright
Encoding: 41 41 12
Width: 1229
Flags: W
LayerCount: 2
Fore
SplineSet
815 772 m 0,0,1
 815 255 815 255 510 -152 c 1,2,-1
 334 -152 l 1,3,4
 471 66 471 66 545.5 290 c 128,-1,5
 620 514 620 514 620 781 c 0,6,7
 620 1257 620 1257 336 1705 c 1,8,-1
 513 1705 l 1,9,10
 815 1288 815 1288 815 772 c 0,0,1
EndSplineSet
EndChar

StartChar: asterisk
Encoding: 42 42 13
Width: 1229
Flags: W
LayerCount: 2
Fore
SplineSet
1046 374 m 1,0,-1
 866 270 l 1,1,-1
 612 673 l 1,2,-1
 363 270 l 1,3,-1
 181 374 l 1,4,-1
 499 752 l 1,5,-1
 56 899 l 1,6,-1
 148 1079 l 1,7,-1
 550 866 l 1,8,-1
 515 1330 l 1,9,-1
 711 1330 l 1,10,-1
 681 866 l 1,11,-1
 1080 1079 l 1,12,-1
 1173 899 l 1,13,-1
 728 752 l 1,14,-1
 1046 374 l 1,0,-1
EndSplineSet
EndChar

StartChar: plus
Encoding: 43 43 14
Width: 1229
Flags: W
LayerCount: 2
Fore
SplineSet
652 1286 m 1,0,-1
 814 1286 l 1,1,-1
 814 827 l 1,2,-1
 1311 827 l 1,3,-1
 1311 676 l 1,4,-1
 813 676 l 1,5,-1
 813 217 l 1,6,-1
 648 217 l 1,7,-1
 648 676 l 1,8,-1
 152 676 l 1,9,-1
 152 827 l 1,10,-1
 652 827 l 1,11,-1
 652 1286 l 1,0,-1
EndSplineSet
EndChar

StartChar: comma
Encoding: 44 44 15
Width: 1229
Flags: W
LayerCount: 2
Fore
SplineSet
440 -321 m 1,0,-1
 491 286 l 1,1,-1
 748 286 l 1,2,-1
 562 -321 l 1,3,-1
 440 -321 l 1,0,-1
EndSplineSet
EndChar

StartChar: hyphen
Encoding: 45 45 16
Width: 1229
Flags: W
LayerCount: 2
Fore
SplineSet
993 827 m 1,0,-1
 993 672 l 1,1,-1
 323 672 l 1,2,-1
 323 827 l 1,3,-1
 993 827 l 1,0,-1
EndSplineSet
EndChar

StartChar: period
Encoding: 46 46 17
Width: 1229
Flags: W
LayerCount: 2
Fore
SplineSet
764 0 m 1,0,-1
 463 0 l 1,1,-1
 463 301 l 1,2,-1
 764 301 l 1,3,-1
 764 0 l 1,0,-1
EndSplineSet
EndChar

StartChar: slash
Encoding: 47 47 18
Width: 1229
Flags: W
LayerCount: 2
Fore
SplineSet
887 1585 m 1,0,-1
 1084 1585 l 1,1,-1
 375 -224 l 1,2,-1
 184 -224 l 1,3,-1
 887 1585 l 1,0,-1
EndSplineSet
EndChar

StartChar: zero
Encoding: 48 48 19
Width: 1229
Flags: W
LayerCount: 2
Fore
SplineSet
841 1170 m 1,0,-1
 487 176 l 1,1,2
 542 130 542 130 614 130 c 0,3,4
 709 130 709 130 777 213 c 128,-1,5
 845 296 845 296 877 433 c 128,-1,6
 909 570 909 570 909 746 c 0,7,8
 909 1004 909 1004 841 1170 c 1,0,-1
614 -25 m 128,-1,10
 491 -25 491 -25 395 37.5 c 128,-1,11
 299 100 299 100 240.5 208 c 128,-1,12
 182 316 182 316 152.5 453 c 128,-1,13
 123 590 123 590 123 747 c 0,14,15
 123 865 123 865 138 972 c 128,-1,16
 153 1079 153 1079 189 1180 c 128,-1,17
 225 1281 225 1281 280 1354.5 c 128,-1,18
 335 1428 335 1428 420.5 1472 c 128,-1,19
 506 1516 506 1516 614 1516 c 128,-1,20
 722 1516 722 1516 807.5 1472 c 128,-1,21
 893 1428 893 1428 948 1354.5 c 128,-1,22
 1003 1281 1003 1281 1039 1180 c 128,-1,23
 1075 1079 1075 1079 1090 972 c 128,-1,24
 1105 865 1105 865 1105 747 c 0,25,26
 1105 590 1105 590 1075.5 453 c 128,-1,27
 1046 316 1046 316 987.5 208 c 128,-1,28
 929 100 929 100 833 37.5 c 128,-1,9
 737 -25 737 -25 614 -25 c 128,-1,10
614 1363 m 0,29,30
 519 1363 519 1363 451 1279.5 c 128,-1,31
 383 1196 383 1196 351 1059 c 128,-1,32
 319 922 319 922 319 746 c 0,33,34
 319 479 319 479 391 313 c 1,35,-1
 749 1310 l 1,36,37
 690 1363 690 1363 614 1363 c 0,29,30
EndSplineSet
EndChar

StartChar: one
Encoding: 49 49 20
Width: 1229
Flags: W
LayerCount: 2
Fore
SplineSet
1075 0 m 1,0,-1
 238 0 l 1,1,-1
 238 146 l 1,2,-1
 574 146 l 1,3,-1
 574 1290 l 1,4,5
 546 1274 546 1274 474 1230.5 c 128,-1,6
 402 1187 402 1187 345.5 1156.5 c 128,-1,7
 289 1126 289 1126 237 1106 c 1,8,-1
 237 1287 l 1,9,10
 269 1300 269 1300 302 1317 c 128,-1,11
 335 1334 335 1334 356.5 1346 c 128,-1,12
 378 1358 378 1358 415 1382.5 c 128,-1,13
 452 1407 452 1407 464.5 1415.5 c 128,-1,14
 477 1424 477 1424 521 1455 c 128,-1,15
 565 1486 565 1486 573 1492 c 1,16,-1
 761 1492 l 1,17,-1
 761 146 l 1,18,-1
 1075 146 l 1,19,-1
 1075 0 l 1,0,-1
EndSplineSet
EndChar

StartChar: two
Encoding: 50 50 21
Width: 1229
Flags: W
LayerCount: 2
Fore
SplineSet
186 1395 m 1,0,1
 265 1457 265 1457 350 1486.5 c 128,-1,2
 435 1516 435 1516 556 1516 c 0,3,4
 772 1516 772 1516 890.5 1399 c 128,-1,5
 1009 1282 1009 1282 1009 1088 c 0,6,7
 1009 1040 1009 1040 999 991 c 128,-1,8
 989 942 989 942 977 904.5 c 128,-1,9
 965 867 965 867 939 820 c 128,-1,10
 913 773 913 773 896.5 746 c 128,-1,11
 880 719 880 719 845 673.5 c 128,-1,12
 810 628 810 628 796.5 611.5 c 128,-1,13
 783 595 783 595 746 552 c 2,14,-1
 402 146 l 1,15,-1
 1043 146 l 1,16,-1
 1043 0 l 1,17,-1
 196 0 l 1,18,-1
 196 191 l 1,19,-1
 634 723 l 2,20,21
 670 767 670 767 695 801.5 c 128,-1,22
 720 836 720 836 748 884 c 128,-1,23
 776 932 776 932 790.5 982 c 128,-1,24
 805 1032 805 1032 805 1083 c 0,25,26
 805 1207 805 1207 741.5 1274 c 128,-1,27
 678 1341 678 1341 558 1341 c 0,28,29
 458 1341 458 1341 392.5 1315.5 c 128,-1,30
 327 1290 327 1290 255 1239 c 1,31,-1
 186 1395 l 1,0,1
EndSplineSet
EndChar

StartChar: three
Encoding: 51 51 22
Width: 1229
Flags: W
LayerCount: 2
Fore
SplineSet
577 157 m 0,0,1
 724 157 724 157 809.5 228 c 128,-1,2
 895 299 895 299 895 432 c 0,3,4
 895 507 895 507 861 562 c 128,-1,5
 827 617 827 617 767.5 647 c 128,-1,6
 708 677 708 677 637.5 691 c 128,-1,7
 567 705 567 705 483 705 c 2,8,-1
 373 705 l 1,9,-1
 373 883 l 1,10,-1
 483 885 l 2,11,12
 564 886 564 886 624 897 c 128,-1,13
 684 908 684 908 736.5 933.5 c 128,-1,14
 789 959 789 959 816.5 1008 c 128,-1,15
 844 1057 844 1057 844 1128 c 0,16,17
 844 1234 844 1234 773.5 1291.5 c 128,-1,18
 703 1349 703 1349 573 1349 c 0,19,20
 376 1349 376 1349 232 1221 c 1,21,-1
 163 1382 l 1,22,23
 321 1516 321 1516 597 1516 c 0,24,25
 803 1516 803 1516 934 1415 c 128,-1,26
 1065 1314 1065 1314 1065 1143 c 0,27,28
 1065 1069 1065 1069 1038.5 1009.5 c 128,-1,29
 1012 950 1012 950 964.5 910.5 c 128,-1,30
 917 871 917 871 861.5 845 c 128,-1,31
 806 819 806 819 739 803 c 1,32,33
 813 790 813 790 878.5 761 c 128,-1,34
 944 732 944 732 999.5 686 c 128,-1,35
 1055 640 1055 640 1087.5 569.5 c 128,-1,36
 1120 499 1120 499 1120 413 c 0,37,38
 1120 325 1120 325 1091.5 253.5 c 128,-1,39
 1063 182 1063 182 1013 133 c 128,-1,40
 963 84 963 84 893 51 c 128,-1,41
 823 18 823 18 741.5 3 c 128,-1,42
 660 -12 660 -12 567 -12 c 0,43,44
 447 -12 447 -12 341.5 22.5 c 128,-1,45
 236 57 236 57 161 113 c 1,46,-1
 231 273 l 1,47,48
 283 228 283 228 379.5 192.5 c 128,-1,49
 476 157 476 157 577 157 c 0,0,1
EndSplineSet
EndChar

StartChar: four
Encoding: 52 52 23
Width: 1229
Flags: W
LayerCount: 2
Fore
SplineSet
710 1282 m 1,0,-1
 250 538 l 1,1,-1
 710 538 l 1,2,-1
 710 1282 l 1,0,-1
897 0 m 1,3,-1
 710 0 l 1,4,-1
 710 398 l 1,5,-1
 61 398 l 1,6,-1
 61 541 l 1,7,-1
 667 1492 l 1,8,-1
 897 1492 l 1,9,-1
 897 538 l 1,10,-1
 1139 538 l 1,11,-1
 1139 398 l 1,12,-1
 897 398 l 1,13,-1
 897 0 l 1,3,-1
EndSplineSet
EndChar

StartChar: five
Encoding: 53 53 24
Width: 1229
Flags: W
LayerCount: 2
Fore
SplineSet
242 275 m 1,0,1
 422 130 422 130 615 130 c 0,2,3
 708 130 708 130 776.5 184.5 c 128,-1,4
 845 239 845 239 877 320.5 c 128,-1,5
 909 402 909 402 909 494 c 0,6,7
 909 624 909 624 842.5 716.5 c 128,-1,8
 776 809 776 809 654 809 c 0,9,10
 620 809 620 809 589 797.5 c 128,-1,11
 558 786 558 786 538 770 c 128,-1,12
 518 754 518 754 503 738 c 128,-1,13
 488 722 488 722 481 710 c 2,14,-1
 474 699 l 1,15,-1
 264 699 l 1,16,-1
 264 1492 l 1,17,-1
 987 1492 l 1,18,-1
 987 1346 l 1,19,-1
 452 1346 l 1,20,-1
 452 880 l 1,21,22
 456 884 456 884 463.5 890.5 c 128,-1,23
 471 897 471 897 495 913.5 c 128,-1,24
 519 930 519 930 543.5 942.5 c 128,-1,25
 568 955 568 955 604 965.5 c 128,-1,26
 640 976 640 976 674 976 c 0,27,28
 779 976 779 976 864 935.5 c 128,-1,29
 949 895 949 895 1001.5 826.5 c 128,-1,30
 1054 758 1054 758 1082 673 c 128,-1,31
 1110 588 1110 588 1110 495 c 0,32,33
 1110 417 1110 417 1091 342.5 c 128,-1,34
 1072 268 1072 268 1033 202 c 128,-1,35
 994 136 994 136 938.5 86 c 128,-1,36
 883 36 883 36 804 6.5 c 128,-1,37
 725 -23 725 -23 633 -23 c 0,38,39
 482 -23 482 -23 373.5 13 c 128,-1,40
 265 49 265 49 168 121 c 1,41,-1
 242 275 l 1,0,1
EndSplineSet
EndChar

StartChar: six
Encoding: 54 54 25
Width: 1229
Flags: W
LayerCount: 2
Fore
SplineSet
638 129 m 0,0,1
 765 129 765 129 843.5 219 c 128,-1,2
 922 309 922 309 922 445 c 0,3,4
 922 580 922 580 848.5 672.5 c 128,-1,5
 775 765 775 765 650 765 c 0,6,7
 508 765 508 765 430 671.5 c 128,-1,8
 352 578 352 578 352 437 c 0,9,10
 352 304 352 304 430.5 216.5 c 128,-1,11
 509 129 509 129 638 129 c 0,0,1
640 -26 m 0,12,13
 411 -26 411 -26 282.5 107.5 c 128,-1,14
 154 241 154 241 154 472 c 0,15,16
 154 608 154 608 198.5 727.5 c 128,-1,17
 243 847 243 847 318 938 c 2,18,-1
 772 1492 l 1,19,-1
 1014 1492 l 1,20,-1
 474 852 l 1,21,22
 514 877 514 877 573.5 894 c 128,-1,23
 633 911 633 911 690 911 c 0,24,25
 883 911 883 911 998.5 780.5 c 128,-1,26
 1114 650 1114 650 1114 449 c 0,27,28
 1114 340 1114 340 1074.5 249 c 128,-1,29
 1035 158 1035 158 969 98.5 c 128,-1,30
 903 39 903 39 818 6.5 c 128,-1,31
 733 -26 733 -26 640 -26 c 0,12,13
EndSplineSet
EndChar

StartChar: seven
Encoding: 55 55 26
Width: 1229
Flags: W
LayerCount: 2
Fore
SplineSet
143 1323 m 1,0,-1
 143 1492 l 1,1,-1
 1028 1492 l 1,2,-1
 1028 1347 l 1,3,-1
 604 0 l 1,4,-1
 372 0 l 1,5,-1
 790 1323 l 1,6,-1
 143 1323 l 1,0,-1
EndSplineSet
EndChar

StartChar: eight
Encoding: 56 56 27
Width: 1229
Flags: W
LayerCount: 2
Fore
SplineSet
849 1150 m 0,0,1
 849 1247 849 1247 786.5 1305 c 128,-1,2
 724 1363 724 1363 626 1363 c 0,3,4
 529 1363 529 1363 466.5 1304.5 c 128,-1,5
 404 1246 404 1246 404 1150 c 0,6,7
 404 1032 404 1032 462 967.5 c 128,-1,8
 520 903 520 903 626 874 c 1,9,10
 732 903 732 903 790.5 967.5 c 128,-1,11
 849 1032 849 1032 849 1150 c 0,0,1
1070 406 m 0,12,13
 1070 202 1070 202 951.5 89 c 128,-1,14
 833 -24 833 -24 626 -24 c 128,-1,15
 419 -24 419 -24 300 89 c 128,-1,16
 181 202 181 202 181 406 c 0,17,18
 181 504 181 504 226.5 582.5 c 128,-1,19
 272 661 272 661 339 706.5 c 128,-1,20
 406 752 406 752 491 778 c 1,21,22
 211 876 211 876 211 1142 c 0,23,24
 211 1316 211 1316 328 1416 c 128,-1,25
 445 1516 445 1516 626 1516 c 128,-1,26
 807 1516 807 1516 924.5 1416 c 128,-1,27
 1042 1316 1042 1316 1042 1142 c 0,28,29
 1042 876 1042 876 762 778 c 1,30,31
 825 759 825 759 878.5 728 c 128,-1,32
 932 697 932 697 976 651.5 c 128,-1,33
 1020 606 1020 606 1045 543 c 128,-1,34
 1070 480 1070 480 1070 406 c 0,12,13
396 378 m 0,35,36
 396 261 396 261 455.5 195.5 c 128,-1,37
 515 130 515 130 626 130 c 128,-1,38
 737 130 737 130 797 195.5 c 128,-1,39
 857 261 857 261 857 378 c 0,40,41
 857 609 857 609 626 678 c 1,42,43
 396 608 396 608 396 378 c 0,35,36
EndSplineSet
EndChar

StartChar: nine
Encoding: 57 57 28
Width: 1229
Flags: W
LayerCount: 2
Fore
SplineSet
953 1064 m 0,0,1
 953 1196 953 1196 875 1279.5 c 128,-1,2
 797 1363 797 1363 667 1363 c 0,3,4
 541 1363 541 1363 462 1276.5 c 128,-1,5
 383 1190 383 1190 383 1056 c 128,-1,6
 383 922 383 922 456 836 c 128,-1,7
 529 750 529 750 655 750 c 0,8,9
 798 750 798 750 875.5 837.5 c 128,-1,10
 953 925 953 925 953 1064 c 0,0,1
665 1517 m 0,11,12
 895 1517 895 1517 1024 1387.5 c 128,-1,13
 1153 1258 1153 1258 1153 1029 c 0,14,15
 1153 794 1153 794 989 583 c 2,16,-1
 539 0 l 1,17,-1
 297 0 l 1,18,-1
 831 669 l 1,19,20
 791 644 791 644 731.5 627 c 128,-1,21
 672 610 672 610 615 610 c 0,22,23
 421 610 421 610 307 731.5 c 128,-1,24
 193 853 193 853 193 1052 c 0,25,26
 193 1196 193 1196 260.5 1304 c 128,-1,27
 328 1412 328 1412 434 1464.5 c 128,-1,28
 540 1517 540 1517 665 1517 c 0,11,12
EndSplineSet
EndChar

StartChar: colon
Encoding: 58 58 29
Width: 1229
Flags: W
LayerCount: 2
Fore
SplineSet
788 144 m 1,0,-1
 487 144 l 1,1,-1
 487 445 l 1,2,-1
 788 445 l 1,3,-1
 788 144 l 1,0,-1
788 830 m 1,4,-1
 487 830 l 1,5,-1
 487 1130 l 1,6,-1
 788 1130 l 1,7,-1
 788 830 l 1,4,-1
EndSplineSet
EndChar

StartChar: semicolon
Encoding: 59 59 30
Width: 1229
Flags: W
LayerCount: 2
Fore
SplineSet
778 838 m 1,0,-1
 479 838 l 1,1,-1
 479 1139 l 1,2,-1
 778 1139 l 1,3,-1
 778 838 l 1,0,-1
410 -313 m 1,4,-1
 486 286 l 1,5,-1
 758 286 l 1,6,-1
 590 -313 l 1,7,-1
 410 -313 l 1,4,-1
EndSplineSet
EndChar

StartChar: less
Encoding: 60 60 31
Width: 1229
Flags: W
LayerCount: 2
Fore
SplineSet
1174 367 m 1,0,-1
 1174 190 l 1,1,-1
 152 689 l 1,2,-1
 152 807 l 1,3,-1
 1178 1321 l 1,4,-1
 1178 1142 l 1,5,-1
 395 749 l 1,6,-1
 1174 367 l 1,0,-1
EndSplineSet
EndChar

StartChar: equal
Encoding: 61 61 32
Width: 1229
Flags: W
LayerCount: 2
Fore
SplineSet
1195 457 m 1,0,-1
 35 457 l 1,1,-1
 35 605 l 1,2,-1
 1195 605 l 1,3,-1
 1195 457 l 1,0,-1
1194 898 m 1,4,-1
 34 898 l 1,5,-1
 34 1048 l 1,6,-1
 1194 1048 l 1,7,-1
 1194 898 l 1,4,-1
EndSplineSet
EndChar

StartChar: greater
Encoding: 62 62 33
Width: 1229
Flags: W
LayerCount: 2
Fore
SplineSet
158 1155 m 1,0,-1
 158 1321 l 1,1,-1
 1178 794 l 1,2,-1
 1178 699 l 1,3,-1
 152 213 l 1,4,-1
 152 380 l 1,5,-1
 933 753 l 1,6,-1
 158 1155 l 1,0,-1
EndSplineSet
EndChar

StartChar: question
Encoding: 63 63 34
Width: 1229
Flags: W
LayerCount: 2
Fore
SplineSet
328 -12 m 1,0,-1
 328 216 l 1,1,-1
 570 216 l 1,2,-1
 570 -12 l 1,3,-1
 328 -12 l 1,0,-1
959 1231 m 0,4,5
 959 1169 959 1169 935 1111 c 128,-1,6
 911 1053 911 1053 872.5 1006.5 c 128,-1,7
 834 960 834 960 787.5 916 c 128,-1,8
 741 872 741 872 694.5 830 c 128,-1,9
 648 788 648 788 609.5 746 c 128,-1,10
 571 704 571 704 547 655 c 128,-1,11
 523 606 523 606 523 556 c 0,12,13
 523 499 523 499 542 400 c 1,14,-1
 360 400 l 1,15,16
 349 486 349 486 349 569 c 1,17,-1
 348 570 l 1,18,19
 348 632 348 632 369 686 c 128,-1,20
 390 740 390 740 428 782.5 c 128,-1,21
 466 825 466 825 503 857 c 128,-1,22
 540 889 540 889 588.5 928 c 128,-1,23
 637 967 637 967 663 993 c 0,24,25
 715 1046 715 1046 744 1098.5 c 128,-1,26
 773 1151 773 1151 773 1222 c 0,27,28
 773 1283 773 1283 746.5 1329 c 128,-1,29
 720 1375 720 1375 673 1400.5 c 128,-1,30
 626 1426 626 1426 569.5 1438.5 c 128,-1,31
 513 1451 513 1451 447 1451 c 0,32,33
 305 1451 305 1451 168 1377 c 1,34,-1
 168 1535 l 1,35,36
 318 1606 318 1606 447 1606 c 0,37,38
 533 1606 533 1606 607 1594 c 128,-1,39
 681 1582 681 1582 747 1554 c 128,-1,40
 813 1526 813 1526 859 1483.5 c 128,-1,41
 905 1441 905 1441 932 1376.5 c 128,-1,42
 959 1312 959 1312 959 1231 c 0,4,5
EndSplineSet
EndChar

StartChar: at
Encoding: 64 64 35
Width: 1229
Flags: W
LayerCount: 2
Fore
SplineSet
813 746 m 0,0,1
 813 804 813 804 808 849 c 128,-1,2
 803 894 803 894 789.5 937.5 c 128,-1,3
 776 981 776 981 748 1005 c 128,-1,4
 720 1029 720 1029 679 1029 c 0,5,6
 628 1029 628 1029 589 984.5 c 128,-1,7
 550 940 550 940 530.5 872 c 128,-1,8
 511 804 511 804 502 740 c 128,-1,9
 493 676 493 676 493 620 c 0,10,11
 493 394 493 394 628 394 c 0,12,13
 674 394 674 394 711.5 431.5 c 128,-1,14
 749 469 749 469 770 525.5 c 128,-1,15
 791 582 791 582 802 639.5 c 128,-1,16
 813 697 813 697 813 746 c 0,0,1
921 523 m 0,17,18
 921 476 921 476 942.5 431 c 128,-1,19
 964 386 964 386 999 386 c 0,20,21
 1048 386 1048 386 1083 492 c 128,-1,22
 1118 598 1118 598 1130.5 709 c 128,-1,23
 1143 820 1143 820 1143 904 c 0,24,25
 1143 1055 1143 1055 1095.5 1175 c 128,-1,26
 1048 1295 1048 1295 951.5 1367.5 c 128,-1,27
 855 1440 855 1440 724 1440 c 0,28,29
 591 1440 591 1440 487.5 1375.5 c 128,-1,30
 384 1311 384 1311 320.5 1199 c 128,-1,31
 257 1087 257 1087 225 945.5 c 128,-1,32
 193 804 193 804 193 641 c 0,33,34
 193 459 193 459 248.5 316 c 128,-1,35
 304 173 304 173 419 87 c 128,-1,36
 534 1 534 1 692 1 c 0,37,38
 918 1 918 1 1115 173 c 1,39,-1
 1163 117 l 1,40,41
 951 -88 951 -88 681 -88 c 0,42,43
 557 -88 557 -88 454.5 -44 c 128,-1,44
 352 0 352 0 284 73 c 128,-1,45
 216 146 216 146 169 242 c 128,-1,46
 122 338 122 338 101 438.5 c 128,-1,47
 80 539 80 539 80 643 c 0,48,49
 80 831 80 831 129 994.5 c 128,-1,50
 178 1158 178 1158 262 1272 c 128,-1,51
 346 1386 346 1386 461.5 1451 c 128,-1,52
 577 1516 577 1516 706 1516 c 0,53,54
 815 1516 815 1516 904 1484 c 128,-1,55
 993 1452 993 1452 1054.5 1396 c 128,-1,56
 1116 1340 1116 1340 1157.5 1263 c 128,-1,57
 1199 1186 1199 1186 1218 1097.5 c 128,-1,58
 1237 1009 1237 1009 1237 910 c 128,-1,59
 1237 811 1237 811 1224 711.5 c 128,-1,60
 1211 612 1211 612 1184 517 c 128,-1,61
 1157 422 1157 422 1106.5 363 c 128,-1,62
 1056 304 1056 304 989 304 c 0,63,64
 914 304 914 304 872.5 359.5 c 128,-1,65
 831 415 831 415 822 504 c 1,66,67
 789 394 789 394 726.5 345 c 128,-1,68
 664 296 664 296 602 296 c 0,69,70
 541 296 541 296 495.5 325.5 c 128,-1,71
 450 355 450 355 425 407 c 128,-1,72
 400 459 400 459 388.5 519 c 128,-1,73
 377 579 377 579 377 650 c 0,74,75
 377 769 377 769 413 878.5 c 128,-1,76
 449 988 449 988 517 1059 c 128,-1,77
 585 1130 585 1130 669 1130 c 0,78,79
 731 1130 731 1130 773.5 1083.5 c 128,-1,80
 816 1037 816 1037 842 970 c 1,81,-1
 863 1097 l 1,82,-1
 978 1097 l 2,83,84
 977 1097 977 1097 963 999.5 c 128,-1,85
 949 902 949 902 935 759 c 128,-1,86
 921 616 921 616 921 523 c 0,17,18
EndSplineSet
EndChar

StartChar: A
Encoding: 65 65 36
Width: 1229
Flags: W
LayerCount: 2
Fore
SplineSet
443 631 m 1,0,-1
 785 631 l 1,1,-1
 617 1278 l 1,2,-1
 443 631 l 1,0,-1
720 1491 m 1,3,-1
 1161 0 l 1,4,-1
 964 0 l 1,5,-1
 823 481 l 1,6,-1
 404 481 l 1,7,-1
 264 0 l 1,8,-1
 68 0 l 1,9,-1
 508 1491 l 1,10,-1
 720 1491 l 1,3,-1
EndSplineSet
EndChar

StartChar: B
Encoding: 66 66 37
Width: 1229
Flags: W
LayerCount: 2
Fore
SplineSet
491 876 m 2,0,1
 551 876 551 876 599.5 881.5 c 128,-1,2
 648 887 648 887 694 901.5 c 128,-1,3
 740 916 740 916 771 939.5 c 128,-1,4
 802 963 802 963 820.5 1001.5 c 128,-1,5
 839 1040 839 1040 839 1090 c 128,-1,6
 839 1140 839 1140 829.5 1178 c 128,-1,7
 820 1216 820 1216 804 1243 c 128,-1,8
 788 1270 788 1270 758.5 1288.5 c 128,-1,9
 729 1307 729 1307 697 1318 c 128,-1,10
 665 1329 665 1329 614 1335 c 128,-1,11
 563 1341 563 1341 515.5 1343 c 128,-1,12
 468 1345 468 1345 396 1345 c 2,13,-1
 344 1345 l 1,14,-1
 344 876 l 1,15,-1
 491 876 l 2,0,1
536 715 m 2,16,-1
 344 715 l 1,17,-1
 344 146 l 1,18,-1
 505 146 l 2,19,20
 612 146 612 146 685 159.5 c 128,-1,21
 758 173 758 173 811.5 206 c 128,-1,22
 865 239 865 239 890 297 c 128,-1,23
 915 355 915 355 915 442 c 0,24,25
 915 522 915 522 889 576.5 c 128,-1,26
 863 631 863 631 811 661 c 128,-1,27
 759 691 759 691 693.5 703 c 128,-1,28
 628 715 628 715 536 715 c 2,16,-1
1112 433 m 0,29,30
 1112 0 1112 0 516 0 c 2,31,-1
 157 0 l 1,32,-1
 157 1491 l 1,33,-1
 450 1491 l 2,34,35
 552 1491 552 1491 631.5 1483 c 128,-1,36
 711 1475 711 1475 789.5 1451.5 c 128,-1,37
 868 1428 868 1428 919.5 1388.5 c 128,-1,38
 971 1349 971 1349 1003 1282 c 128,-1,39
 1035 1215 1035 1215 1035 1125 c 0,40,41
 1035 997 1035 997 963 920 c 128,-1,42
 891 843 891 843 768 810 c 1,43,44
 916 788 916 788 1014 684.5 c 128,-1,45
 1112 581 1112 581 1112 433 c 0,29,30
EndSplineSet
EndChar

StartChar: C
Encoding: 67 67 38
Width: 1229
Flags: W
LayerCount: 2
Fore
SplineSet
1128 1391 m 1,0,-1
 1062 1260 l 1,1,2
 929 1363 929 1363 760 1363 c 0,3,4
 619 1363 619 1363 517.5 1276 c 128,-1,5
 416 1189 416 1189 368 1052 c 128,-1,6
 320 915 320 915 320 748 c 0,7,8
 320 575 320 575 371 436 c 128,-1,9
 422 297 422 297 522.5 213.5 c 128,-1,10
 623 130 623 130 757 130 c 0,11,12
 932 130 932 130 1064 238 c 1,13,-1
 1129 97 l 1,14,15
 989 -25 989 -25 734 -25 c 0,16,17
 551 -25 551 -25 411.5 75.5 c 128,-1,18
 272 176 272 176 198 351.5 c 128,-1,19
 124 527 124 527 124 750 c 0,20,21
 124 922 124 922 171 1066.5 c 128,-1,22
 218 1211 218 1211 299.5 1309 c 128,-1,23
 381 1407 381 1407 493 1461.5 c 128,-1,24
 605 1516 605 1516 734 1516 c 0,25,26
 983 1516 983 1516 1128 1391 c 1,0,-1
EndSplineSet
EndChar

StartChar: D
Encoding: 68 68 39
Width: 1229
Flags: W
LayerCount: 2
Fore
SplineSet
372 146 m 2,0,1
 497 146 497 146 591.5 172.5 c 128,-1,2
 686 199 686 199 749.5 248 c 128,-1,3
 813 297 813 297 852.5 372 c 128,-1,4
 892 447 892 447 909 538.5 c 128,-1,5
 926 630 926 630 926 747 c 0,6,7
 926 895 926 895 899.5 1001 c 128,-1,8
 873 1107 873 1107 811 1187 c 128,-1,9
 749 1267 749 1267 640.5 1306 c 128,-1,10
 532 1345 532 1345 374 1345 c 2,11,-1
 343 1345 l 1,12,-1
 343 146 l 1,13,-1
 372 146 l 2,0,1
156 1491 m 1,14,-1
 401 1491 l 2,15,16
 757 1491 757 1491 939.5 1298 c 128,-1,17
 1122 1105 1122 1105 1122 746 c 0,18,19
 1122 382 1122 382 936 191 c 128,-1,20
 750 0 750 0 379 0 c 2,21,-1
 156 0 l 1,22,-1
 156 1491 l 1,14,-1
EndSplineSet
EndChar

StartChar: E
Encoding: 69 69 40
Width: 1229
Flags: W
LayerCount: 2
Fore
SplineSet
404 684 m 1,0,-1
 404 146 l 1,1,-1
 1108 146 l 1,2,-1
 1093 0 l 1,3,-1
 217 0 l 1,4,-1
 217 1491 l 1,5,-1
 1075 1491 l 1,6,-1
 1059 1345 l 1,7,-1
 404 1345 l 1,8,-1
 404 843 l 1,9,-1
 1026 843 l 1,10,-1
 1026 684 l 1,11,-1
 404 684 l 1,0,-1
EndSplineSet
EndChar

StartChar: F
Encoding: 70 70 41
Width: 1229
Flags: W
LayerCount: 2
Fore
SplineSet
431 683 m 1,0,-1
 431 0 l 1,1,-1
 244 0 l 1,2,-1
 244 1491 l 1,3,-1
 1078 1491 l 1,4,-1
 1060 1345 l 1,5,-1
 431 1345 l 1,6,-1
 431 846 l 1,7,-1
 1034 846 l 1,8,-1
 1034 683 l 1,9,-1
 431 683 l 1,0,-1
EndSplineSet
EndChar

StartChar: G
Encoding: 71 71 42
Width: 1229
Flags: W
LayerCount: 2
Fore
SplineSet
1049 1255 m 1,0,1
 930 1363 930 1363 734 1363 c 0,2,3
 631 1363 631 1363 547 1311 c 128,-1,4
 463 1259 463 1259 411 1172 c 128,-1,5
 359 1085 359 1085 331 976 c 128,-1,6
 303 867 303 867 303 748 c 0,7,8
 303 623 303 623 327.5 513.5 c 128,-1,9
 352 404 352 404 399.5 317 c 128,-1,10
 447 230 447 230 525 180 c 128,-1,11
 603 130 603 130 704 130 c 0,12,13
 784 130 784 130 844 152.5 c 128,-1,14
 904 175 904 175 975 217 c 1,15,-1
 975 625 l 1,16,-1
 644 625 l 1,17,-1
 644 778 l 1,18,-1
 1148 778 l 1,19,-1
 1148 132 l 1,20,21
 1031 57 1031 57 926 16 c 128,-1,22
 821 -25 821 -25 686 -25 c 0,23,24
 544 -25 544 -25 431.5 36.5 c 128,-1,25
 319 98 319 98 249 205 c 128,-1,26
 179 312 179 312 143 450.5 c 128,-1,27
 107 589 107 589 107 750 c 0,28,29
 107 920 107 920 153.5 1064 c 128,-1,30
 200 1208 200 1208 282 1306.5 c 128,-1,31
 364 1405 364 1405 477 1460 c 128,-1,32
 590 1515 590 1515 720 1515 c 0,33,34
 968 1515 968 1515 1116 1388 c 1,35,-1
 1049 1255 l 1,0,1
EndSplineSet
EndChar

StartChar: H
Encoding: 72 72 43
Width: 1229
Flags: W
LayerCount: 2
Fore
SplineSet
327 0 m 1,0,-1
 140 0 l 1,1,-1
 140 1491 l 1,2,-1
 327 1491 l 1,3,-1
 327 855 l 1,4,-1
 902 855 l 1,5,-1
 902 1491 l 1,6,-1
 1089 1491 l 1,7,-1
 1089 0 l 1,8,-1
 902 0 l 1,9,-1
 902 702 l 1,10,-1
 327 702 l 1,11,-1
 327 0 l 1,0,-1
EndSplineSet
EndChar

StartChar: I
Encoding: 73 73 44
Width: 1229
Flags: W
LayerCount: 2
Fore
SplineSet
194 1345 m 1,0,-1
 194 1491 l 1,1,-1
 1035 1491 l 1,2,-1
 1035 1345 l 1,3,-1
 704 1345 l 1,4,-1
 704 146 l 1,5,-1
 1035 146 l 1,6,-1
 1035 0 l 1,7,-1
 194 0 l 1,8,-1
 194 146 l 1,9,-1
 517 146 l 1,10,-1
 517 1345 l 1,11,-1
 194 1345 l 1,0,-1
EndSplineSet
EndChar

StartChar: J
Encoding: 74 74 45
Width: 1229
Flags: W
LayerCount: 2
Fore
SplineSet
170 0 m 1,0,-1
 169 151 l 1,1,2
 196 148 196 148 256 141 c 128,-1,3
 316 134 316 134 363.5 130 c 128,-1,4
 411 126 411 126 452 126 c 0,5,6
 502 126 502 126 542 132.5 c 128,-1,7
 582 139 582 139 619.5 157 c 128,-1,8
 657 175 657 175 682 204 c 128,-1,9
 707 233 707 233 722 280.5 c 128,-1,10
 737 328 737 328 737 391 c 2,11,-1
 737 1345 l 1,12,-1
 309 1345 l 1,13,-1
 309 1491 l 1,14,-1
 924 1491 l 1,15,-1
 924 443 l 2,16,17
 924 363 924 363 912.5 298 c 128,-1,18
 901 233 901 233 880.5 185.5 c 128,-1,19
 860 138 860 138 828 103 c 128,-1,20
 796 68 796 68 758.5 45 c 128,-1,21
 721 22 721 22 671 8.5 c 128,-1,22
 621 -5 621 -5 569.5 -10.5 c 128,-1,23
 518 -16 518 -16 455 -16 c 0,24,25
 362 -16 362 -16 170 0 c 1,0,-1
EndSplineSet
EndChar

StartChar: K
Encoding: 75 75 46
Width: 1229
Flags: W
LayerCount: 2
Fore
SplineSet
927 1491 m 1,0,-1
 1160 1491 l 1,1,-1
 661 823 l 1,2,-1
 1193 0 l 1,3,-1
 955 0 l 1,4,-1
 517 700 l 1,5,-1
 398 561 l 1,6,-1
 398 0 l 1,7,-1
 211 0 l 1,8,-1
 211 1491 l 1,9,-1
 398 1491 l 1,10,-1
 398 773 l 1,11,-1
 927 1491 l 1,0,-1
EndSplineSet
EndChar

StartChar: L
Encoding: 76 76 47
Width: 1229
Flags: W
LayerCount: 2
Fore
SplineSet
490 146 m 1,0,-1
 1066 146 l 1,1,-1
 1056 0 l 1,2,-1
 303 0 l 1,3,-1
 303 1491 l 1,4,-1
 490 1491 l 1,5,-1
 490 146 l 1,0,-1
EndSplineSet
EndChar

StartChar: M
Encoding: 77 77 48
Width: 1229
Flags: W
LayerCount: 2
Fore
SplineSet
335 1230 m 1,0,-1
 335 0 l 1,1,-1
 149 0 l 1,2,-1
 149 1491 l 1,3,-1
 404 1491 l 1,4,-1
 617 802 l 1,5,-1
 830 1491 l 1,6,-1
 1079 1491 l 1,7,-1
 1079 0 l 1,8,-1
 898 0 l 1,9,-1
 898 1230 l 1,10,-1
 721 646 l 1,11,-1
 512 646 l 1,12,-1
 335 1230 l 1,0,-1
EndSplineSet
EndChar

StartChar: N
Encoding: 78 78 49
Width: 1229
Flags: W
LayerCount: 2
Fore
SplineSet
1078 0 m 1,0,-1
 858 0 l 1,1,-1
 320 1206 l 1,2,-1
 320 0 l 1,3,-1
 150 0 l 1,4,-1
 150 1491 l 1,5,-1
 365 1491 l 1,6,-1
 911 289 l 1,7,-1
 911 1491 l 1,8,-1
 1078 1491 l 1,9,-1
 1078 0 l 1,0,-1
EndSplineSet
EndChar

StartChar: O
Encoding: 79 79 50
Width: 1229
Flags: W
LayerCount: 2
Fore
SplineSet
614 1363 m 128,-1,1
 519 1363 519 1363 451 1279.5 c 128,-1,2
 383 1196 383 1196 351 1059 c 128,-1,3
 319 922 319 922 319 746 c 128,-1,4
 319 570 319 570 351 433 c 128,-1,5
 383 296 383 296 451 213 c 128,-1,6
 519 130 519 130 614 130 c 128,-1,7
 709 130 709 130 777 213 c 128,-1,8
 845 296 845 296 877 433 c 128,-1,9
 909 570 909 570 909 746 c 128,-1,10
 909 922 909 922 877 1059 c 128,-1,11
 845 1196 845 1196 777 1279.5 c 128,-1,0
 709 1363 709 1363 614 1363 c 128,-1,1
614 -25 m 128,-1,13
 491 -25 491 -25 395 37.5 c 128,-1,14
 299 100 299 100 240.5 208 c 128,-1,15
 182 316 182 316 152.5 453 c 128,-1,16
 123 590 123 590 123 747 c 0,17,18
 123 865 123 865 138 972 c 128,-1,19
 153 1079 153 1079 189 1180 c 128,-1,20
 225 1281 225 1281 280 1354.5 c 128,-1,21
 335 1428 335 1428 420.5 1472 c 128,-1,22
 506 1516 506 1516 614 1516 c 128,-1,23
 722 1516 722 1516 807.5 1472 c 128,-1,24
 893 1428 893 1428 948 1354.5 c 128,-1,25
 1003 1281 1003 1281 1039 1180 c 128,-1,26
 1075 1079 1075 1079 1090 972 c 128,-1,27
 1105 865 1105 865 1105 747 c 0,28,29
 1105 590 1105 590 1075.5 453 c 128,-1,30
 1046 316 1046 316 987.5 208 c 128,-1,31
 929 100 929 100 833 37.5 c 128,-1,12
 737 -25 737 -25 614 -25 c 128,-1,13
EndSplineSet
EndChar

StartChar: P
Encoding: 80 80 51
Width: 1229
Flags: W
LayerCount: 2
Fore
SplineSet
363 765 m 1,0,-1
 622 765 l 2,1,2
 764 765 764 765 849.5 839 c 128,-1,3
 935 913 935 913 935 1053 c 0,4,5
 935 1201 935 1201 850 1273 c 128,-1,6
 765 1345 765 1345 622 1345 c 2,7,-1
 363 1345 l 1,8,-1
 363 765 l 1,0,-1
1131 1062 m 0,9,10
 1131 957 1131 957 1102.5 878 c 128,-1,11
 1074 799 1074 799 1026 749.5 c 128,-1,12
 978 700 978 700 905 669.5 c 128,-1,13
 832 639 832 639 752 627.5 c 128,-1,14
 672 616 672 616 572 616 c 2,15,-1
 363 616 l 1,16,-1
 363 0 l 1,17,-1
 176 0 l 1,18,-1
 176 1491 l 1,19,-1
 573 1491 l 2,20,21
 694 1491 694 1491 791.5 1469 c 128,-1,22
 889 1447 889 1447 967 1398.5 c 128,-1,23
 1045 1350 1045 1350 1088 1265 c 128,-1,24
 1131 1180 1131 1180 1131 1062 c 0,9,10
EndSplineSet
EndChar

StartChar: Q
Encoding: 81 81 52
Width: 1229
Flags: W
LayerCount: 2
Fore
SplineSet
575 1363 m 128,-1,1
 480 1363 480 1363 412 1279.5 c 128,-1,2
 344 1196 344 1196 312 1059 c 128,-1,3
 280 922 280 922 280 746 c 128,-1,4
 280 570 280 570 312 433 c 128,-1,5
 344 296 344 296 412 213 c 128,-1,6
 480 130 480 130 575 130 c 128,-1,7
 670 130 670 130 738 213 c 128,-1,8
 806 296 806 296 838 433 c 128,-1,9
 870 570 870 570 870 746 c 128,-1,10
 870 922 870 922 838 1059 c 128,-1,11
 806 1196 806 1196 738 1279.5 c 128,-1,0
 670 1363 670 1363 575 1363 c 128,-1,1
575 -25 m 0,12,13
 452 -25 452 -25 356 37.5 c 128,-1,14
 260 100 260 100 201.5 208 c 128,-1,15
 143 316 143 316 113.5 453 c 128,-1,16
 84 590 84 590 84 747 c 0,17,18
 84 865 84 865 99 972 c 128,-1,19
 114 1079 114 1079 150 1180 c 128,-1,20
 186 1281 186 1281 241 1354.5 c 128,-1,21
 296 1428 296 1428 381.5 1472 c 128,-1,22
 467 1516 467 1516 575 1516 c 128,-1,23
 683 1516 683 1516 768.5 1472 c 128,-1,24
 854 1428 854 1428 909 1354.5 c 128,-1,25
 964 1281 964 1281 1000 1180 c 128,-1,26
 1036 1079 1036 1079 1051 972 c 128,-1,27
 1066 865 1066 865 1066 747 c 0,28,29
 1066 623 1066 623 1047.5 511.5 c 128,-1,30
 1029 400 1029 400 993 303.5 c 128,-1,31
 957 207 957 207 898.5 133.5 c 128,-1,32
 840 60 840 60 764 20 c 1,33,34
 857 -167 857 -167 1040 -330 c 1,35,-1
 916 -458 l 1,36,37
 703 -252 703 -252 589 -25 c 1,38,39
 582 -25 582 -25 575 -25 c 0,12,13
EndSplineSet
EndChar

StartChar: R
Encoding: 82 82 53
Width: 1229
Flags: W
LayerCount: 2
Fore
SplineSet
567 824 m 2,0,-1
 373 824 l 1,1,-1
 373 1345 l 1,2,-1
 563 1345 l 2,3,4
 637 1345 637 1345 698.5 1332.5 c 128,-1,5
 760 1320 760 1320 811 1292.5 c 128,-1,6
 862 1265 862 1265 891 1215.5 c 128,-1,7
 920 1166 920 1166 920 1098 c 0,8,9
 920 949 920 949 828.5 886.5 c 128,-1,10
 737 824 737 824 567 824 c 2,0,-1
1115 1093 m 0,11,12
 1115 1177 1115 1177 1092.5 1242 c 128,-1,13
 1070 1307 1070 1307 1025.5 1350 c 128,-1,14
 981 1393 981 1393 926 1421.5 c 128,-1,15
 871 1450 871 1450 794.5 1465 c 128,-1,16
 718 1480 718 1480 644 1485.5 c 128,-1,17
 570 1491 570 1491 476 1491 c 2,18,-1
 186 1491 l 1,19,-1
 186 0 l 1,20,-1
 373 0 l 1,21,-1
 373 662 l 1,22,-1
 460 662 l 1,23,-1
 601 665 l 1,24,25
 632 622 632 622 659 582 c 128,-1,26
 686 542 686 542 712 499 c 128,-1,27
 738 456 738 456 755.5 428 c 128,-1,28
 773 400 773 400 797.5 353 c 128,-1,29
 822 306 822 306 832.5 286.5 c 128,-1,30
 843 267 843 267 868.5 214 c 128,-1,31
 894 161 894 161 900 148 c 128,-1,32
 906 135 906 135 934.5 72.5 c 128,-1,33
 963 10 963 10 968 0 c 1,34,-1
 1185 0 l 1,35,36
 1082 227 1082 227 992 391.5 c 128,-1,37
 902 556 902 556 784 707 c 1,38,39
 934 740 934 740 1024.5 837.5 c 128,-1,40
 1115 935 1115 935 1115 1093 c 0,11,12
EndSplineSet
EndChar

StartChar: S
Encoding: 83 83 54
Width: 1229
Flags: W
LayerCount: 2
Fore
SplineSet
212 261 m 1,0,1
 372 130 372 130 593 130 c 0,2,3
 713 130 713 130 778 203.5 c 128,-1,4
 843 277 843 277 843 404 c 0,5,6
 843 441 843 441 833.5 473 c 128,-1,7
 824 505 824 505 810 529 c 128,-1,8
 796 553 796 553 770.5 576 c 128,-1,9
 745 599 745 599 724 613.5 c 128,-1,10
 703 628 703 628 668.5 645 c 128,-1,11
 634 662 634 662 611.5 671 c 128,-1,12
 589 680 589 680 551.5 695 c 128,-1,13
 514 710 514 710 496 718 c 0,14,15
 434 744 434 744 392.5 764.5 c 128,-1,16
 351 785 351 785 301 821 c 128,-1,17
 251 857 251 857 221 896 c 128,-1,18
 191 935 191 935 170.5 993.5 c 128,-1,19
 150 1052 150 1052 150 1123 c 0,20,21
 150 1310 150 1310 277 1413.5 c 128,-1,22
 404 1517 404 1517 604 1517 c 0,23,24
 856 1517 856 1517 997 1406 c 1,25,-1
 927 1262 l 1,26,27
 797 1363 797 1363 614 1363 c 0,28,29
 496 1363 496 1363 426.5 1298.5 c 128,-1,30
 357 1234 357 1234 357 1121 c 0,31,32
 357 1077 357 1077 375 1039.5 c 128,-1,33
 393 1002 393 1002 418 977.5 c 128,-1,34
 443 953 443 953 484.5 929 c 128,-1,35
 526 905 526 905 557 892.5 c 128,-1,36
 588 880 588 880 636 861.5 c 128,-1,37
 684 843 684 843 706 833 c 0,38,39
 766 806 766 806 809 783.5 c 128,-1,40
 852 761 852 761 901.5 723.5 c 128,-1,41
 951 686 951 686 982 645 c 128,-1,42
 1013 604 1013 604 1033.5 544.5 c 128,-1,43
 1054 485 1054 485 1054 415 c 0,44,45
 1054 200 1054 200 929.5 87.5 c 128,-1,46
 805 -25 805 -25 589 -25 c 0,47,48
 320 -25 320 -25 141 94 c 1,49,-1
 212 261 l 1,0,1
EndSplineSet
EndChar

StartChar: T
Encoding: 84 84 55
Width: 1229
Flags: W
LayerCount: 2
Fore
SplineSet
1129 1491 m 1,0,-1
 1129 1345 l 1,1,-1
 705 1345 l 1,2,-1
 705 0 l 1,3,-1
 518 0 l 1,4,-1
 518 1345 l 1,5,-1
 94 1345 l 1,6,-1
 94 1491 l 1,7,-1
 1129 1491 l 1,0,-1
EndSplineSet
EndChar

StartChar: U
Encoding: 85 85 56
Width: 1229
Flags: W
LayerCount: 2
Fore
SplineSet
614 -25 m 128,-1,1
 358 -25 358 -25 243.5 96 c 128,-1,2
 129 217 129 217 129 484 c 2,3,-1
 129 1491 l 1,4,-1
 316 1491 l 1,5,-1
 316 490 l 2,6,7
 316 396 316 396 329 333 c 128,-1,8
 342 270 342 270 375 222 c 128,-1,9
 408 174 408 174 466.5 152 c 128,-1,10
 525 130 525 130 614 130 c 128,-1,11
 703 130 703 130 761.5 152 c 128,-1,12
 820 174 820 174 853 222 c 128,-1,13
 886 270 886 270 899 333 c 128,-1,14
 912 396 912 396 912 490 c 2,15,-1
 912 1491 l 1,16,-1
 1099 1491 l 1,17,-1
 1099 484 l 2,18,19
 1099 217 1099 217 984.5 96 c 128,-1,0
 870 -25 870 -25 614 -25 c 128,-1,1
EndSplineSet
EndChar

StartChar: V
Encoding: 86 86 57
Width: 1229
Flags: W
LayerCount: 2
Fore
SplineSet
967 1491 m 1,0,-1
 1172 1491 l 1,1,-1
 722 0 l 1,2,-1
 505 0 l 1,3,-1
 57 1491 l 1,4,-1
 262 1491 l 1,5,-1
 617 223 l 1,6,-1
 967 1491 l 1,0,-1
EndSplineSet
EndChar

StartChar: W
Encoding: 87 87 58
Width: 1229
Flags: W
LayerCount: 2
Fore
SplineSet
905 210 m 1,0,-1
 971 1491 l 1,1,-1
 1156 1491 l 1,2,-1
 1039 0 l 1,3,-1
 810 0 l 1,4,-1
 626 659 l 1,5,-1
 430 0 l 1,6,-1
 204 0 l 1,7,-1
 66 1491 l 1,8,-1
 251 1491 l 1,9,-1
 355 213 l 1,10,-1
 542 880 l 1,11,-1
 715 880 l 1,12,-1
 905 210 l 1,0,-1
EndSplineSet
EndChar

StartChar: X
Encoding: 88 88 59
Width: 1229
Flags: W
LayerCount: 2
Fore
SplineSet
112 1491 m 1,0,-1
 340 1491 l 1,1,-1
 629 892 l 1,2,-1
 941 1491 l 1,3,-1
 1149 1491 l 1,4,-1
 749 763 l 1,5,-1
 1157 0 l 1,6,-1
 933 0 l 1,7,-1
 613 627 l 1,8,-1
 286 0 l 1,9,-1
 72 0 l 1,10,-1
 496 762 l 1,11,-1
 112 1491 l 1,0,-1
EndSplineSet
EndChar

StartChar: Y
Encoding: 89 89 60
Width: 1229
Flags: W
LayerCount: 2
Fore
SplineSet
702 0 m 1,0,-1
 515 0 l 1,1,-1
 515 593 l 1,2,-1
 69 1491 l 1,3,-1
 275 1491 l 1,4,-1
 610 774 l 1,5,-1
 949 1491 l 1,6,-1
 1160 1491 l 1,7,-1
 702 593 l 1,8,-1
 702 0 l 1,0,-1
EndSplineSet
EndChar

StartChar: Z
Encoding: 90 90 61
Width: 1229
Flags: W
LayerCount: 2
Fore
SplineSet
397 146 m 1,0,-1
 1049 146 l 1,1,-1
 1049 0 l 1,2,-1
 156 0 l 1,3,-1
 156 143 l 1,4,-1
 803 1345 l 1,5,-1
 191 1345 l 1,6,-1
 191 1491 l 1,7,-1
 1058 1491 l 1,8,-1
 1058 1364 l 1,9,-1
 397 146 l 1,0,-1
EndSplineSet
EndChar

StartChar: bracketleft
Encoding: 91 91 62
Width: 1229
Flags: W
LayerCount: 2
Fore
SplineSet
395 -131 m 1,0,-1
 395 1725 l 1,1,2
 396 1729 396 1729 400 1730 c 1,3,-1
 914 1730 l 1,4,5
 918 1729 918 1729 919 1725 c 1,6,-1
 919 1593 l 1,7,8
 918 1589 918 1589 914 1588 c 1,9,-1
 584 1588 l 1,10,-1
 584 6 l 1,11,-1
 915 6 l 1,12,13
 919 5 919 5 920 1 c 1,14,-1
 920 -131 l 1,15,16
 919 -135 919 -135 915 -136 c 1,17,-1
 400 -136 l 1,18,19
 396 -135 396 -135 395 -131 c 1,0,-1
EndSplineSet
EndChar

StartChar: backslash
Encoding: 92 92 63
Width: 1229
Flags: W
LayerCount: 2
Fore
SplineSet
1082 -48 m 1,0,-1
 902 -48 l 1,1,-1
 193 1761 l 1,2,-1
 377 1761 l 1,3,-1
 1082 -48 l 1,0,-1
EndSplineSet
EndChar

StartChar: bracketright
Encoding: 93 93 64
Width: 1229
Flags: W
LayerCount: 2
Fore
SplineSet
775 -131 m 1,0,1
 774 -135 774 -135 770 -136 c 1,2,-1
 255 -136 l 1,3,4
 251 -135 251 -135 250 -131 c 1,5,-1
 250 1 l 1,6,7
 251 5 251 5 255 6 c 1,8,-1
 586 6 l 1,9,-1
 586 1588 l 1,10,-1
 256 1588 l 1,11,12
 252 1589 252 1589 251 1593 c 1,13,-1
 251 1725 l 1,14,15
 252 1729 252 1729 256 1730 c 1,16,-1
 770 1730 l 1,17,18
 774 1729 774 1729 775 1725 c 1,19,-1
 775 -131 l 1,0,1
EndSplineSet
EndChar

StartChar: asciicircum
Encoding: 94 94 65
Width: 1229
Flags: W
LayerCount: 2
Fore
SplineSet
644 1554 m 1,0,-1
 757 1554 l 1,1,-1
 1296 597 l 1,2,-1
 1125 597 l 1,3,-1
 698 1368 l 1,4,-1
 284 597 l 1,5,-1
 111 597 l 1,6,-1
 644 1554 l 1,0,-1
EndSplineSet
EndChar

StartChar: underscore
Encoding: 95 95 66
Width: 1229
Flags: W
LayerCount: 2
Fore
SplineSet
4 -296 m 1,0,-1
 4 -157 l 1,1,-1
 1076 -157 l 1,2,-1
 1076 -296 l 1,3,-1
 4 -296 l 1,0,-1
EndSplineSet
EndChar

StartChar: grave
Encoding: 96 96 67
Width: 1229
Flags: W
LayerCount: 2
Fore
SplineSet
654 1705 m 1,0,-1
 937 1268 l 1,1,-1
 798 1268 l 1,2,-1
 418 1705 l 1,3,-1
 654 1705 l 1,0,-1
EndSplineSet
EndChar

StartChar: a
Encoding: 97 97 68
Width: 1229
Flags: W
LayerCount: 2
Fore
SplineSet
849 245 m 1,0,-1
 849 525 l 1,1,-1
 700 504 l 2,2,3
 544 482 544 482 484 460 c 0,4,5
 350 409 350 409 350 289 c 0,6,7
 350 206 350 206 398 157 c 128,-1,8
 446 108 446 108 530 108 c 0,9,10
 715 108 715 108 849 245 c 1,0,-1
495 -25 m 0,11,12
 356 -25 356 -25 264 58.5 c 128,-1,13
 172 142 172 142 172 280 c 0,14,15
 172 337 172 337 187.5 383 c 128,-1,16
 203 429 203 429 226 461 c 128,-1,17
 249 493 249 493 291.5 518.5 c 128,-1,18
 334 544 334 544 371.5 559.5 c 128,-1,19
 409 575 409 575 472 588 c 128,-1,20
 535 601 535 601 581.5 607.5 c 128,-1,21
 628 614 628 614 703 623 c 2,22,-1
 849 640 l 1,23,-1
 849 756 l 2,24,25
 849 880 849 880 797 935.5 c 128,-1,26
 745 991 745 991 631 991 c 0,27,28
 556 991 556 991 442.5 969 c 128,-1,29
 329 947 329 947 283 927 c 1,30,-1
 240 1061 l 1,31,32
 447 1130 447 1130 628 1130 c 0,33,34
 811 1130 811 1130 921 1047 c 128,-1,35
 1031 964 1031 964 1031 791 c 2,36,-1
 1031 0 l 1,37,-1
 880 0 l 1,38,-1
 856 127 l 1,39,40
 792 62 792 62 691.5 18.5 c 128,-1,41
 591 -25 591 -25 495 -25 c 0,11,12
EndSplineSet
EndChar

StartChar: b
Encoding: 98 98 69
Width: 1229
Flags: W
LayerCount: 2
Fore
SplineSet
353 555 m 0,0,1
 353 479 353 479 360.5 418 c 128,-1,2
 368 357 368 357 388 299 c 128,-1,3
 408 241 408 241 440 202 c 128,-1,4
 472 163 472 163 525 139.5 c 128,-1,5
 578 116 578 116 648 116 c 0,6,7
 715 116 715 116 765.5 141.5 c 128,-1,8
 816 167 816 167 847 208.5 c 128,-1,9
 878 250 878 250 897.5 308.5 c 128,-1,10
 917 367 917 367 924 426.5 c 128,-1,11
 931 486 931 486 931 555 c 0,12,13
 931 628 931 628 924.5 687 c 128,-1,14
 918 746 918 746 899.5 804.5 c 128,-1,15
 881 863 881 863 850.5 902 c 128,-1,16
 820 941 820 941 768.5 965.5 c 128,-1,17
 717 990 717 990 648 990 c 0,18,19
 587 990 587 990 540 975 c 128,-1,20
 493 960 493 960 461 930.5 c 128,-1,21
 429 901 429 901 407.5 863.5 c 128,-1,22
 386 826 386 826 374 774.5 c 128,-1,23
 362 723 362 723 357.5 671.5 c 128,-1,24
 353 620 353 620 353 555 c 0,0,1
353 946 m 1,25,26
 405 1032 405 1032 482 1081 c 128,-1,27
 559 1130 559 1130 681 1130 c 0,28,29
 794 1130 794 1130 878.5 1086.5 c 128,-1,30
 963 1043 963 1043 1013.5 965 c 128,-1,31
 1064 887 1064 887 1089 787.5 c 128,-1,32
 1114 688 1114 688 1114 568 c 0,33,34
 1114 470 1114 470 1098.5 383.5 c 128,-1,35
 1083 297 1083 297 1049 221 c 128,-1,36
 1015 145 1015 145 964.5 91 c 128,-1,37
 914 37 914 37 838.5 6 c 128,-1,38
 763 -25 763 -25 670 -25 c 0,39,40
 609 -25 609 -25 561 -13 c 128,-1,41
 513 -1 513 -1 475.5 25.5 c 128,-1,42
 438 52 438 52 412.5 79 c 128,-1,43
 387 106 387 106 353 150 c 1,44,-1
 351 0 l 1,45,-1
 171 0 l 1,46,-1
 171 1545 l 1,47,-1
 353 1565 l 1,48,-1
 353 946 l 1,25,26
EndSplineSet
EndChar

StartChar: c
Encoding: 99 99 70
Width: 1229
Flags: W
LayerCount: 2
Fore
SplineSet
1002 72 m 1,0,1
 950 24 950 24 870 -0.5 c 128,-1,2
 790 -25 790 -25 703 -25 c 0,3,4
 579 -25 579 -25 477 22.5 c 128,-1,5
 375 70 375 70 309.5 150.5 c 128,-1,6
 244 231 244 231 208.5 335 c 128,-1,7
 173 439 173 439 173 555 c 0,8,9
 173 708 173 708 235.5 838 c 128,-1,10
 298 968 298 968 420 1049 c 128,-1,11
 542 1130 542 1130 700 1130 c 0,12,13
 795 1130 795 1130 873.5 1105 c 128,-1,14
 952 1080 952 1080 999 1035 c 1,15,-1
 953 913 l 1,16,17
 838 990 838 990 698 990 c 0,18,19
 548 990 548 990 452.5 866 c 128,-1,20
 357 742 357 742 357 551 c 0,21,22
 357 359 357 359 452.5 237 c 128,-1,23
 548 115 548 115 711 115 c 0,24,25
 845 115 845 115 958 195 c 1,26,-1
 1002 72 l 1,0,1
EndSplineSet
EndChar

StartChar: d
Encoding: 100 100 71
Width: 1229
Flags: W
LayerCount: 2
Fore
SplineSet
878 555 m 0,0,1
 878 634 878 634 871.5 694 c 128,-1,2
 865 754 865 754 846.5 812 c 128,-1,3
 828 870 828 870 796.5 907 c 128,-1,4
 765 944 765 944 712 967 c 128,-1,5
 659 990 659 990 586 990 c 0,6,7
 517 990 517 990 465.5 964.5 c 128,-1,8
 414 939 414 939 383.5 898.5 c 128,-1,9
 353 858 353 858 335 797.5 c 128,-1,10
 317 737 317 737 310.5 678 c 128,-1,11
 304 619 304 619 304 545 c 0,12,13
 304 115 304 115 586 115 c 0,14,15
 878 115 878 115 878 555 c 0,0,1
878 946 m 1,16,-1
 878 1545 l 1,17,-1
 1060 1565 l 1,18,-1
 1060 0 l 1,19,-1
 878 0 l 1,20,-1
 878 170 l 1,21,22
 858 135 858 135 832 104.5 c 128,-1,23
 806 74 806 74 768 43 c 128,-1,24
 730 12 730 12 677 -6.5 c 128,-1,25
 624 -25 624 -25 564 -25 c 0,26,27
 448 -25 448 -25 361 20.5 c 128,-1,28
 274 66 274 66 222.5 147 c 128,-1,29
 171 228 171 228 146 331 c 128,-1,30
 121 434 121 434 121 558 c 0,31,32
 121 653 121 653 137 737 c 128,-1,33
 153 821 153 821 188.5 893.5 c 128,-1,34
 224 966 224 966 275 1018.5 c 128,-1,35
 326 1071 326 1071 400.5 1100.5 c 128,-1,36
 475 1130 475 1130 565 1130 c 0,37,38
 689 1130 689 1130 766.5 1079 c 128,-1,39
 844 1028 844 1028 878 946 c 1,16,-1
EndSplineSet
EndChar

StartChar: e
Encoding: 101 101 72
Width: 1229
Flags: W
LayerCount: 2
Fore
SplineSet
183 555 m 0,0,1
 183 713 183 713 234.5 842.5 c 128,-1,2
 286 972 286 972 388.5 1051.5 c 128,-1,3
 491 1131 491 1131 628 1131 c 0,4,5
 736 1131 736 1131 820.5 1087.5 c 128,-1,6
 905 1044 905 1044 957 967.5 c 128,-1,7
 1009 891 1009 891 1035.5 793 c 128,-1,8
 1062 695 1062 695 1062 581 c 2,9,-1
 1062 520 l 1,10,-1
 367 520 l 1,11,12
 370 436 370 436 390.5 365 c 128,-1,13
 411 294 411 294 449 237 c 128,-1,14
 487 180 487 180 549 147.5 c 128,-1,15
 611 115 611 115 691 115 c 0,16,17
 844 115 844 115 980 229 c 1,18,-1
 1040 105 l 1,19,20
 910 -25 910 -25 685 -25 c 0,21,22
 524 -25 524 -25 409 51.5 c 128,-1,23
 294 128 294 128 238.5 257.5 c 128,-1,24
 183 387 183 387 183 555 c 0,0,1
888 653 m 1,25,26
 868 990 868 990 652 990 c 0,27,28
 594 990 594 990 549 971.5 c 128,-1,29
 504 953 504 953 474 923 c 128,-1,30
 444 893 444 893 423 848 c 128,-1,31
 402 803 402 803 390.5 756.5 c 128,-1,32
 379 710 379 710 373 653 c 1,33,-1
 888 653 l 1,25,26
EndSplineSet
EndChar

StartChar: f
Encoding: 102 102 73
Width: 1229
Flags: W
LayerCount: 2
Fore
SplineSet
675 0 m 1,0,-1
 493 0 l 1,1,-1
 493 957 l 1,2,-1
 206 957 l 1,3,-1
 206 1097 l 1,4,-1
 493 1097 l 1,5,6
 493 1160 493 1160 494.5 1202.5 c 128,-1,7
 496 1245 496 1245 501 1293.5 c 128,-1,8
 506 1342 506 1342 515.5 1373.5 c 128,-1,9
 525 1405 525 1405 541.5 1438.5 c 128,-1,10
 558 1472 558 1472 581.5 1492.5 c 128,-1,11
 605 1513 605 1513 638.5 1532.5 c 128,-1,12
 672 1552 672 1552 716 1562.5 c 128,-1,13
 760 1573 760 1573 816.5 1579 c 128,-1,14
 873 1585 873 1585 944 1585 c 2,15,-1
 1050 1585 l 1,16,-1
 1040 1445 l 1,17,-1
 940 1445 l 2,18,19
 863 1445 863 1445 818 1438 c 128,-1,20
 773 1431 773 1431 738 1408.5 c 128,-1,21
 703 1386 703 1386 689 1343.5 c 128,-1,22
 675 1301 675 1301 675 1230 c 2,23,-1
 675 1097 l 1,24,-1
 1050 1097 l 1,25,-1
 1050 957 l 1,26,-1
 675 957 l 1,27,-1
 675 0 l 1,0,-1
EndSplineSet
EndChar

StartChar: g
Encoding: 103 103 74
Width: 1229
Flags: W
LayerCount: 2
Fore
SplineSet
888 210 m 1,0,1
 854 124 854 124 768 62 c 128,-1,2
 682 0 682 0 571 0 c 0,3,4
 470 0 470 0 385.5 44.5 c 128,-1,5
 301 89 301 89 244.5 164.5 c 128,-1,6
 188 240 188 240 157 341.5 c 128,-1,7
 126 443 126 443 126 556 c 0,8,9
 126 655 126 655 142.5 740.5 c 128,-1,10
 159 826 159 826 194.5 898 c 128,-1,11
 230 970 230 970 282.5 1021.5 c 128,-1,12
 335 1073 335 1073 410 1101.5 c 128,-1,13
 485 1130 485 1130 577 1130 c 0,14,15
 777 1130 777 1130 888 948 c 1,16,-1
 894 1097 l 1,17,-1
 1079 1097 l 1,18,19
 1070 852 1070 852 1070 446 c 2,20,-1
 1070 152 l 2,21,22
 1070 31 1070 31 1055.5 -57 c 128,-1,23
 1041 -145 1041 -145 1006 -215 c 128,-1,24
 971 -285 971 -285 916.5 -330.5 c 128,-1,25
 862 -376 862 -376 776.5 -406 c 128,-1,26
 691 -436 691 -436 581.5 -448.5 c 128,-1,27
 472 -461 472 -461 322 -461 c 1,28,-1
 307 -321 l 1,29,30
 419 -321 419 -321 497.5 -314 c 128,-1,31
 576 -307 576 -307 645 -288 c 128,-1,32
 714 -269 714 -269 757 -237 c 128,-1,33
 800 -205 800 -205 831 -153.5 c 128,-1,34
 862 -102 862 -102 875 -31 c 128,-1,35
 888 40 888 40 888 137 c 2,36,-1
 888 210 l 1,0,1
597 990 m 0,37,38
 529 990 529 990 477 966.5 c 128,-1,39
 425 943 425 943 393.5 904 c 128,-1,40
 362 865 362 865 342.5 807 c 128,-1,41
 323 749 323 749 316 687.5 c 128,-1,42
 309 626 309 626 309 550 c 0,43,44
 309 490 309 490 317.5 436.5 c 128,-1,45
 326 383 326 383 347 332 c 128,-1,46
 368 281 368 281 399 244 c 128,-1,47
 430 207 430 207 479 184.5 c 128,-1,48
 528 162 528 162 589 162 c 0,49,50
 657 162 657 162 710 184.5 c 128,-1,51
 763 207 763 207 796 244 c 128,-1,52
 829 281 829 281 850 333.5 c 128,-1,53
 871 386 871 386 879.5 440 c 128,-1,54
 888 494 888 494 888 556 c 0,55,56
 888 629 888 629 880.5 689 c 128,-1,57
 873 749 873 749 853 806.5 c 128,-1,58
 833 864 833 864 801.5 903.5 c 128,-1,59
 770 943 770 943 718 966.5 c 128,-1,60
 666 990 666 990 597 990 c 0,37,38
EndSplineSet
EndChar

StartChar: h
Encoding: 104 104 75
Width: 1229
Flags: W
LayerCount: 2
Fore
SplineSet
1044 662 m 2,0,-1
 1044 0 l 1,1,-1
 862 0 l 1,2,-1
 862 639 l 2,3,4
 862 701 862 701 857.5 748.5 c 128,-1,5
 853 796 853 796 840 843.5 c 128,-1,6
 827 891 827 891 804 921.5 c 128,-1,7
 781 952 781 952 742 971 c 128,-1,8
 703 990 703 990 650 990 c 0,9,10
 529 990 529 990 446.5 912.5 c 128,-1,11
 364 835 364 835 364 746 c 2,12,-1
 364 0 l 1,13,-1
 182 0 l 1,14,-1
 182 1545 l 1,15,-1
 364 1565 l 1,16,-1
 364 964 l 1,17,18
 492 1130 492 1130 707 1130 c 0,19,20
 1044 1130 1044 1130 1044 662 c 2,0,-1
EndSplineSet
EndChar

StartChar: i
Encoding: 105 105 76
Width: 1229
Flags: W
LayerCount: 2
Fore
SplineSet
538 1386 m 2,0,-1
 538 1485 l 2,1,2
 538 1521 538 1521 578.5 1548.5 c 128,-1,3
 619 1576 619 1576 659 1576 c 128,-1,4
 699 1576 699 1576 739.5 1548.5 c 128,-1,5
 780 1521 780 1521 780 1485 c 2,6,-1
 780 1386 l 2,7,8
 780 1350 780 1350 739.5 1322.5 c 128,-1,9
 699 1295 699 1295 659 1295 c 128,-1,10
 619 1295 619 1295 578.5 1322.5 c 128,-1,11
 538 1350 538 1350 538 1386 c 2,0,-1
255 957 m 1,12,-1
 255 1097 l 1,13,-1
 750 1097 l 1,14,-1
 750 140 l 1,15,-1
 1064 140 l 1,16,-1
 1064 0 l 1,17,-1
 220 0 l 1,18,-1
 220 140 l 1,19,-1
 568 140 l 1,20,-1
 568 957 l 1,21,-1
 255 957 l 1,12,-1
EndSplineSet
EndChar

StartChar: j
Encoding: 106 106 77
Width: 1229
Flags: W
LayerCount: 2
Fore
SplineSet
434 -220 m 2,0,1
 483 -220 483 -220 514.5 -216 c 128,-1,2
 546 -212 546 -212 571 -199 c 128,-1,3
 596 -186 596 -186 609.5 -167.5 c 128,-1,4
 623 -149 623 -149 631.5 -113.5 c 128,-1,5
 640 -78 640 -78 642.5 -36.5 c 128,-1,6
 645 5 645 5 645 71 c 2,7,-1
 645 957 l 1,8,-1
 254 957 l 1,9,-1
 254 1097 l 1,10,-1
 827 1097 l 1,11,-1
 827 127 l 2,12,13
 827 45 827 45 825 -4 c 128,-1,14
 823 -53 823 -53 815 -111.5 c 128,-1,15
 807 -170 807 -170 791 -202.5 c 128,-1,16
 775 -235 775 -235 747 -270 c 128,-1,17
 719 -305 719 -305 677 -321.5 c 128,-1,18
 635 -338 635 -338 575 -349 c 128,-1,19
 515 -360 515 -360 435 -360 c 2,20,-1
 172 -360 l 1,21,-1
 172 -220 l 1,22,-1
 434 -220 l 2,0,1
613 1386 m 2,23,-1
 613 1485 l 2,24,25
 613 1521 613 1521 653.5 1548.5 c 128,-1,26
 694 1576 694 1576 734 1576 c 128,-1,27
 774 1576 774 1576 814.5 1548.5 c 128,-1,28
 855 1521 855 1521 855 1485 c 2,29,-1
 855 1386 l 2,30,31
 855 1350 855 1350 814.5 1322.5 c 128,-1,32
 774 1295 774 1295 734 1295 c 128,-1,33
 694 1295 694 1295 653.5 1322.5 c 128,-1,34
 613 1350 613 1350 613 1386 c 2,23,-1
EndSplineSet
EndChar

StartChar: k
Encoding: 107 107 78
Width: 1229
Flags: W
LayerCount: 2
Fore
SplineSet
392 652 m 1,0,-1
 878 1097 l 1,1,-1
 1108 1097 l 1,2,-1
 619 642 l 1,3,-1
 1175 0 l 1,4,-1
 947 0 l 1,5,-1
 490 558 l 1,6,-1
 392 472 l 1,7,-1
 392 0 l 1,8,-1
 210 0 l 1,9,-1
 210 1545 l 1,10,-1
 392 1565 l 1,11,-1
 392 652 l 1,0,-1
EndSplineSet
EndChar

StartChar: l
Encoding: 108 108 79
Width: 1229
Flags: W
LayerCount: 2
Fore
SplineSet
1039 0 m 1,0,-1
 894 0 l 2,1,2
 800 0 800 0 733 8.5 c 128,-1,3
 666 17 666 17 618 40 c 128,-1,4
 570 63 570 63 541.5 93 c 128,-1,5
 513 123 513 123 496 176 c 128,-1,6
 479 229 479 229 472.5 287 c 128,-1,7
 466 345 466 345 465 433 c 1,8,-1
 465 1425 l 1,9,-1
 137 1425 l 1,10,-1
 137 1565 l 1,11,-1
 647 1565 l 1,12,-1
 647 442 l 2,13,14
 647 374 647 374 649 333.5 c 128,-1,15
 651 293 651 293 660 254.5 c 128,-1,16
 669 216 669 216 684 197.5 c 128,-1,17
 699 179 699 179 727 164 c 128,-1,18
 755 149 755 149 792.5 144.5 c 128,-1,19
 830 140 830 140 887 140 c 2,20,-1
 1048 140 l 1,21,-1
 1039 0 l 1,0,-1
EndSplineSet
EndChar

StartChar: m
Encoding: 109 109 80
Width: 1229
Flags: W
LayerCount: 2
Fore
SplineSet
857 990 m 0,0,1
 825 990 825 990 800 978.5 c 128,-1,2
 775 967 775 967 759 950.5 c 128,-1,3
 743 934 743 934 732 905 c 128,-1,4
 721 876 721 876 715.5 853.5 c 128,-1,5
 710 831 710 831 707 793.5 c 128,-1,6
 704 756 704 756 703.5 736 c 128,-1,7
 703 716 703 716 703 680 c 2,8,-1
 703 0 l 1,9,-1
 550 0 l 1,10,-1
 550 669 l 2,11,12
 550 705 550 705 549.5 729 c 128,-1,13
 549 753 549 753 546.5 790 c 128,-1,14
 544 827 544 827 539 851.5 c 128,-1,15
 534 876 534 876 525 904.5 c 128,-1,16
 516 933 516 933 502.5 950 c 128,-1,17
 489 967 489 967 469 978.5 c 128,-1,18
 449 990 449 990 423 990 c 0,19,20
 370 990 370 990 333.5 945.5 c 128,-1,21
 297 901 297 901 282 842.5 c 128,-1,22
 267 784 267 784 267 721 c 2,23,-1
 267 0 l 1,24,-1
 100 0 l 1,25,-1
 100 1097 l 1,26,-1
 245 1097 l 1,27,-1
 256 952 l 1,28,29
 285 1027 285 1027 336 1078.5 c 128,-1,30
 387 1130 387 1130 462 1130 c 0,31,32
 540 1130 540 1130 593.5 1085 c 128,-1,33
 647 1040 647 1040 668 960 c 1,34,35
 701 1045 701 1045 756.5 1087.5 c 128,-1,36
 812 1130 812 1130 899 1130 c 0,37,38
 959 1130 959 1130 1003.5 1105 c 128,-1,39
 1048 1080 1048 1080 1074 1041 c 128,-1,40
 1100 1002 1100 1002 1115 943.5 c 128,-1,41
 1130 885 1130 885 1135 829 c 128,-1,42
 1140 773 1140 773 1140 703 c 2,43,-1
 1140 0 l 1,44,-1
 973 0 l 1,45,-1
 973 682 l 2,46,47
 973 718 973 718 972.5 736.5 c 128,-1,48
 972 755 972 755 971 789 c 128,-1,49
 970 823 970 823 967 842.5 c 128,-1,50
 964 862 964 862 958.5 888.5 c 128,-1,51
 953 915 953 915 944.5 930.5 c 128,-1,52
 936 946 936 946 924 961.5 c 128,-1,53
 912 977 912 977 895 983.5 c 128,-1,54
 878 990 878 990 857 990 c 0,0,1
EndSplineSet
EndChar

StartChar: n
Encoding: 110 110 81
Width: 1229
Flags: W
LayerCount: 2
Fore
SplineSet
713 1130 m 0,0,1
 1054 1130 1054 1130 1054 698 c 2,2,-1
 1054 0 l 1,3,-1
 872 0 l 1,4,-1
 872 650 l 1,5,6
 872 650 872 650 872 676 c 0,7,8
 872 710 872 710 871.5 731 c 128,-1,9
 871 752 871 752 869 782.5 c 128,-1,10
 867 813 867 813 862.5 832 c 128,-1,11
 858 851 858 851 850.5 875 c 128,-1,12
 843 899 843 899 831.5 914 c 128,-1,13
 820 929 820 929 803.5 945 c 128,-1,14
 787 961 787 961 765 970 c 128,-1,15
 743 979 743 979 714 984.5 c 128,-1,16
 685 990 685 990 649 990 c 0,17,18
 540 990 540 990 459 922 c 128,-1,19
 378 854 378 854 378 742 c 2,20,-1
 378 0 l 1,21,-1
 196 0 l 1,22,-1
 196 1097 l 1,23,-1
 363 1097 l 1,24,-1
 373 978 l 1,25,26
 482 1130 482 1130 713 1130 c 0,0,1
EndSplineSet
EndChar

StartChar: o
Encoding: 111 111 82
Width: 1229
Flags: W
LayerCount: 2
Fore
SplineSet
322 550 m 0,0,1
 322 464 322 464 336 391 c 128,-1,2
 350 318 350 318 381 253.5 c 128,-1,3
 412 189 412 189 471 152 c 128,-1,4
 530 115 530 115 612 115 c 0,5,6
 680 115 680 115 733 140 c 128,-1,7
 786 165 786 165 818.5 206 c 128,-1,8
 851 247 851 247 872 305 c 128,-1,9
 893 363 893 363 901 423.5 c 128,-1,10
 909 484 909 484 909 553 c 128,-1,11
 909 622 909 622 901 682 c 128,-1,12
 893 742 893 742 872 800 c 128,-1,13
 851 858 851 858 818.5 899 c 128,-1,14
 786 940 786 940 733 965 c 128,-1,15
 680 990 680 990 612 990 c 0,16,17
 546 990 546 990 494.5 964.5 c 128,-1,18
 443 939 443 939 411 897 c 128,-1,19
 379 855 379 855 358.5 796.5 c 128,-1,20
 338 738 338 738 330 678 c 128,-1,21
 322 618 322 618 322 550 c 0,0,1
612 1130 m 0,22,23
 732 1130 732 1130 825 1086.5 c 128,-1,24
 918 1043 918 1043 975.5 965.5 c 128,-1,25
 1033 888 1033 888 1062 785 c 128,-1,26
 1091 682 1091 682 1091 558 c 0,27,28
 1091 294 1091 294 962 134.5 c 128,-1,29
 833 -25 833 -25 612 -25 c 0,30,31
 494 -25 494 -25 402 20 c 128,-1,32
 310 65 310 65 253 144 c 128,-1,33
 196 223 196 223 167 326 c 128,-1,34
 138 429 138 429 138 551 c 0,35,36
 138 813 138 813 265 971.5 c 128,-1,37
 392 1130 392 1130 612 1130 c 0,22,23
EndSplineSet
EndChar

StartChar: p
Encoding: 112 112 83
Width: 1229
Flags: W
LayerCount: 2
Fore
SplineSet
339 555 m 0,0,1
 339 115 339 115 647 115 c 0,2,3
 924 115 924 115 924 555 c 0,4,5
 924 628 924 628 917.5 687 c 128,-1,6
 911 746 911 746 892.5 804.5 c 128,-1,7
 874 863 874 863 843.5 902 c 128,-1,8
 813 941 813 941 762.5 965.5 c 128,-1,9
 712 990 712 990 644 990 c 0,10,11
 573 990 573 990 519.5 967.5 c 128,-1,12
 466 945 466 945 432 907 c 128,-1,13
 398 869 398 869 377 812.5 c 128,-1,14
 356 756 356 756 347.5 694 c 128,-1,15
 339 632 339 632 339 555 c 0,0,1
670 -25 m 0,16,17
 548 -25 548 -25 466 24 c 128,-1,18
 384 73 384 73 341 150 c 1,19,-1
 341 -421 l 1,20,-1
 159 -441 l 1,21,-1
 159 1097 l 1,22,-1
 341 1097 l 1,23,-1
 341 946 l 1,24,25
 389 1028 389 1028 469 1079 c 128,-1,26
 549 1130 549 1130 659 1130 c 0,27,28
 750 1130 750 1130 824 1101.5 c 128,-1,29
 898 1073 898 1073 950 1022 c 128,-1,30
 1002 971 1002 971 1038 900 c 128,-1,31
 1074 829 1074 829 1090.5 746 c 128,-1,32
 1107 663 1107 663 1107 568 c 0,33,34
 1107 471 1107 471 1091 384.5 c 128,-1,35
 1075 298 1075 298 1041 222.5 c 128,-1,36
 1007 147 1007 147 956.5 92.5 c 128,-1,37
 906 38 906 38 832.5 6.5 c 128,-1,38
 759 -25 759 -25 670 -25 c 0,16,17
EndSplineSet
EndChar

StartChar: q
Encoding: 113 113 84
Width: 1229
Flags: W
LayerCount: 2
Fore
SplineSet
907 555 m 0,0,1
 907 990 907 990 586 990 c 0,2,3
 289 990 289 990 289 555 c 0,4,5
 289 487 289 487 297.5 426.5 c 128,-1,6
 306 366 306 366 327.5 308 c 128,-1,7
 349 250 349 250 382 208 c 128,-1,8
 415 166 415 166 467 140.5 c 128,-1,9
 519 115 519 115 586 115 c 0,10,11
 673 115 673 115 737 150 c 128,-1,12
 801 185 801 185 837 247.5 c 128,-1,13
 873 310 873 310 890 386 c 128,-1,14
 907 462 907 462 907 555 c 0,0,1
907 946 m 1,15,-1
 907 1097 l 1,16,-1
 1089 1097 l 1,17,-1
 1089 -421 l 1,18,-1
 909 -441 l 1,19,-1
 907 150 l 1,20,21
 843 66 843 66 762.5 20.5 c 128,-1,22
 682 -25 682 -25 564 -25 c 0,23,24
 448 -25 448 -25 358.5 22 c 128,-1,25
 269 69 269 69 215 152 c 128,-1,26
 161 235 161 235 133.5 340 c 128,-1,27
 106 445 106 445 106 568 c 0,28,29
 106 686 106 686 135 787 c 128,-1,30
 164 888 164 888 219.5 965 c 128,-1,31
 275 1042 275 1042 363.5 1086 c 128,-1,32
 452 1130 452 1130 565 1130 c 0,33,34
 689 1130 689 1130 769 1083 c 128,-1,35
 849 1036 849 1036 907 946 c 1,15,-1
EndSplineSet
EndChar

StartChar: r
Encoding: 114 114 85
Width: 1229
Flags: W
LayerCount: 2
Fore
SplineSet
543 0 m 1,0,-1
 361 0 l 1,1,-1
 361 1097 l 1,2,-1
 510 1097 l 1,3,-1
 525 894 l 1,4,5
 592 1010 592 1010 701 1070 c 128,-1,6
 810 1130 810 1130 948 1130 c 2,7,-1
 1036 1130 l 1,8,-1
 1036 961 l 1,9,-1
 922 961 l 2,10,11
 747 961 747 961 645 873.5 c 128,-1,12
 543 786 543 786 543 610 c 2,13,-1
 543 0 l 1,0,-1
EndSplineSet
EndChar

StartChar: s
Encoding: 115 115 86
Width: 1229
Flags: W
LayerCount: 2
Fore
SplineSet
1021 299 m 0,0,1
 1021 149 1021 149 911.5 62 c 128,-1,2
 802 -25 802 -25 637 -25 c 0,3,4
 519 -25 519 -25 408 4.5 c 128,-1,5
 297 34 297 34 244 74 c 1,6,-1
 289 205 l 1,7,8
 331 179 331 179 422 152.5 c 128,-1,9
 513 126 513 126 614 126 c 0,10,11
 726 126 726 126 789.5 170.5 c 128,-1,12
 853 215 853 215 853 301 c 0,13,14
 853 363 853 363 821.5 405.5 c 128,-1,15
 790 448 790 448 700 470 c 2,16,-1
 514 515 l 2,17,18
 433 535 433 535 379 565 c 128,-1,19
 325 595 325 595 297 635.5 c 128,-1,20
 269 676 269 676 258 718.5 c 128,-1,21
 247 761 247 761 247 816 c 0,22,23
 247 875 247 875 270.5 930 c 128,-1,24
 294 985 294 985 337.5 1030 c 128,-1,25
 381 1075 381 1075 451.5 1102 c 128,-1,26
 522 1129 522 1129 609 1130 c 1,27,-1
 622 1130 l 2,28,29
 821 1130 821 1130 961 1055 c 1,30,-1
 921 927 l 1,31,32
 775 989 775 989 625 989 c 1,33,34
 532 988 532 988 472.5 942.5 c 128,-1,35
 413 897 413 897 413 815 c 0,36,37
 413 759 413 759 443 724.5 c 128,-1,38
 473 690 473 690 557 670 c 2,39,-1
 748 623 l 2,40,41
 890 588 890 588 955.5 512 c 128,-1,42
 1021 436 1021 436 1021 299 c 0,0,1
EndSplineSet
EndChar

StartChar: t
Encoding: 116 116 87
Width: 1229
Flags: W
LayerCount: 2
Fore
SplineSet
583 957 m 1,0,-1
 583 442 l 2,1,2
 583 346 583 346 593.5 290 c 128,-1,3
 604 234 604 234 635.5 199 c 128,-1,4
 667 164 667 164 717 152 c 128,-1,5
 767 140 767 140 853 140 c 2,6,-1
 1054 140 l 1,7,-1
 1044 0 l 1,8,-1
 860 0 l 2,9,10
 760 0 760 0 689.5 10 c 128,-1,11
 619 20 619 20 566.5 45 c 128,-1,12
 514 70 514 70 483 104.5 c 128,-1,13
 452 139 452 139 433 197.5 c 128,-1,14
 414 256 414 256 407.5 323 c 128,-1,15
 401 390 401 390 401 488 c 2,16,-1
 401 957 l 1,17,-1
 91 957 l 1,18,-1
 111 1097 l 1,19,-1
 401 1097 l 1,20,-1
 401 1475 l 1,21,-1
 583 1529 l 1,22,-1
 583 1097 l 1,23,-1
 1045 1097 l 1,24,-1
 1045 957 l 1,25,-1
 583 957 l 1,0,-1
EndSplineSet
EndChar

StartChar: u
Encoding: 117 117 88
Width: 1229
Flags: W
LayerCount: 2
Fore
SplineSet
615 -25 m 128,-1,1
 410 -25 410 -25 300.5 68.5 c 128,-1,2
 191 162 191 162 191 356 c 2,3,-1
 191 1097 l 1,4,-1
 373 1097 l 1,5,-1
 373 340 l 2,6,7
 373 223 373 223 431 169 c 128,-1,8
 489 115 489 115 615 115 c 128,-1,9
 741 115 741 115 799 169 c 128,-1,10
 857 223 857 223 857 340 c 2,11,-1
 857 1097 l 1,12,-1
 1039 1097 l 1,13,-1
 1039 356 l 2,14,15
 1039 162 1039 162 929.5 68.5 c 128,-1,0
 820 -25 820 -25 615 -25 c 128,-1,1
EndSplineSet
EndChar

StartChar: v
Encoding: 118 118 89
Width: 1229
Flags: W
LayerCount: 2
Fore
SplineSet
618 189 m 1,0,1
 705 426 705 426 939 1097 c 1,2,-1
 1141 1097 l 1,3,-1
 714 0 l 1,4,-1
 511 0 l 1,5,-1
 87 1097 l 1,6,-1
 297 1097 l 1,7,-1
 618 189 l 1,0,1
EndSplineSet
EndChar

StartChar: w
Encoding: 119 119 90
Width: 1229
Flags: W
LayerCount: 2
Fore
SplineSet
424 0 m 1,0,-1
 238 0 l 1,1,-1
 24 1097 l 1,2,-1
 207 1097 l 1,3,-1
 338 250 l 1,4,-1
 521 1097 l 1,5,-1
 738 1097 l 1,6,-1
 917 253 l 1,7,-1
 1032 1097 l 1,8,-1
 1204 1097 l 1,9,-1
 1003 0 l 1,10,-1
 811 0 l 1,11,-1
 628 953 l 1,12,-1
 424 0 l 1,0,-1
EndSplineSet
EndChar

StartChar: x
Encoding: 120 120 91
Width: 1229
Flags: W
LayerCount: 2
Fore
SplineSet
158 1097 m 1,0,-1
 366 1097 l 1,1,-1
 627 675 l 1,2,-1
 888 1097 l 1,3,-1
 1077 1097 l 1,4,-1
 740 565 l 1,5,-1
 1089 0 l 1,6,-1
 887 0 l 1,7,-1
 619 437 l 1,8,-1
 340 0 l 1,9,-1
 140 0 l 1,10,-1
 500 560 l 1,11,-1
 158 1097 l 1,0,-1
EndSplineSet
EndChar

StartChar: y
Encoding: 121 121 92
Width: 1229
Flags: W
LayerCount: 2
Fore
SplineSet
644 208 m 1,0,-1
 934 1097 l 1,1,-1
 1133 1097 l 1,2,3
 835 255 835 255 743 17 c 0,4,5
 742 15 742 15 730.5 -14.5 c 128,-1,6
 719 -44 719 -44 714 -58 c 0,7,8
 679 -146 679 -146 654 -200 c 128,-1,9
 629 -254 629 -254 595 -298.5 c 128,-1,10
 561 -343 561 -343 530.5 -364.5 c 128,-1,11
 500 -386 500 -386 447 -401 c 128,-1,12
 394 -416 394 -416 338 -419.5 c 128,-1,13
 282 -423 282 -423 191 -423 c 1,14,-1
 170 -270 l 1,15,16
 214 -270 214 -270 236.5 -269.5 c 128,-1,17
 259 -269 259 -269 292 -267 c 128,-1,18
 325 -265 325 -265 340.5 -261.5 c 128,-1,19
 356 -258 356 -258 380 -250.5 c 128,-1,20
 404 -243 404 -243 416 -232.5 c 128,-1,21
 428 -222 428 -222 445.5 -205 c 128,-1,22
 463 -188 463 -188 473.5 -167.5 c 128,-1,23
 484 -147 484 -147 498 -118 c 128,-1,24
 512 -89 512 -89 523.5 -55 c 128,-1,25
 535 -21 535 -21 549 24 c 1,26,27
 410 343 410 343 297.5 611 c 128,-1,28
 185 879 185 879 142 988 c 2,29,-1
 99 1097 l 1,30,-1
 296 1097 l 1,31,-1
 644 208 l 1,0,-1
EndSplineSet
EndChar

StartChar: z
Encoding: 122 122 93
Width: 1229
Flags: W
LayerCount: 2
Fore
SplineSet
223 1097 m 1,0,-1
 955 1097 l 1,1,-1
 955 959 l 1,2,-1
 402 140 l 1,3,-1
 992 138 l 1,4,-1
 992 0 l 1,5,-1
 203 0 l 1,6,-1
 203 142 l 1,7,-1
 746 957 l 1,8,-1
 223 957 l 1,9,-1
 223 1097 l 1,0,-1
EndSplineSet
EndChar

StartChar: braceleft
Encoding: 123 123 94
Width: 1229
Flags: W
LayerCount: 2
Fore
SplineSet
514 455 m 2,0,1
 514 572 514 572 433.5 636.5 c 128,-1,2
 353 701 353 701 225 709 c 1,3,-1
 225 844 l 1,4,5
 354 852 354 852 434 916 c 128,-1,6
 514 980 514 980 514 1097 c 2,7,-1
 514 1330 l 2,8,9
 514 1527 514 1527 595.5 1616.5 c 128,-1,10
 677 1706 677 1706 870 1706 c 2,11,-1
 873 1706 l 1,12,-1
 1101 1705 l 1,13,-1
 1101 1569 l 1,14,-1
 873 1569 l 2,15,16
 841 1569 841 1569 817.5 1561 c 128,-1,17
 794 1553 794 1553 779.5 1535.5 c 128,-1,18
 765 1518 765 1518 756 1499 c 128,-1,19
 747 1480 747 1480 742.5 1449 c 128,-1,20
 738 1418 738 1418 737 1393.5 c 128,-1,21
 736 1369 736 1369 736 1330 c 2,22,-1
 736 1089 l 2,23,24
 736 1031 736 1031 724 985.5 c 128,-1,25
 712 940 712 940 693 909.5 c 128,-1,26
 674 879 674 879 640 853.5 c 128,-1,27
 606 828 606 828 573.5 812 c 128,-1,28
 541 796 541 796 490 776 c 1,29,30
 541 756 541 756 573.5 740 c 128,-1,31
 606 724 606 724 640 698.5 c 128,-1,32
 674 673 674 673 693 643 c 128,-1,33
 712 613 712 613 724 567.5 c 128,-1,34
 736 522 736 522 736 464 c 2,35,-1
 736 223 l 2,36,37
 736 176 736 176 737.5 147 c 128,-1,38
 739 118 739 118 746.5 83 c 128,-1,39
 754 48 754 48 768.5 29 c 128,-1,40
 783 10 783 10 809 -3.5 c 128,-1,41
 835 -17 835 -17 873 -17 c 2,42,-1
 1101 -17 l 1,43,-1
 1101 -152 l 1,44,-1
 873 -153 l 1,45,-1
 870 -153 l 2,46,47
 677 -153 677 -153 595.5 -63.5 c 128,-1,48
 514 26 514 26 514 223 c 2,49,-1
 514 455 l 2,0,1
EndSplineSet
EndChar

StartChar: bar
Encoding: 124 124 95
Width: 1229
Flags: W
LayerCount: 2
Fore
SplineSet
530 -441 m 1,0,-1
 530 1585 l 1,1,-1
 691 1585 l 1,2,-1
 691 -441 l 1,3,-1
 530 -441 l 1,0,-1
EndSplineSet
EndChar

StartChar: braceright
Encoding: 125 125 96
Width: 1229
Flags: W
LayerCount: 2
Fore
SplineSet
790 1097 m 2,0,1
 790 980 790 980 870 916 c 128,-1,2
 950 852 950 852 1079 844 c 1,3,-1
 1079 709 l 1,4,5
 951 701 951 701 870.5 636.5 c 128,-1,6
 790 572 790 572 790 455 c 2,7,-1
 790 223 l 2,8,9
 790 26 790 26 708.5 -63.5 c 128,-1,10
 627 -153 627 -153 434 -153 c 2,11,-1
 431 -153 l 1,12,-1
 202 -152 l 1,13,-1
 202 -17 l 1,14,-1
 431 -17 l 2,15,16
 469 -17 469 -17 495 -3.5 c 128,-1,17
 521 10 521 10 535.5 29 c 128,-1,18
 550 48 550 48 557.5 83 c 128,-1,19
 565 118 565 118 566.5 147 c 128,-1,20
 568 176 568 176 568 223 c 2,21,-1
 568 464 l 2,22,23
 568 536 568 536 584 587.5 c 128,-1,24
 600 639 600 639 636 674 c 128,-1,25
 672 709 672 709 710.5 730 c 128,-1,26
 749 751 749 751 813 776 c 1,27,28
 762 796 762 796 729.5 812 c 128,-1,29
 697 828 697 828 663 853.5 c 128,-1,30
 629 879 629 879 610.5 909.5 c 128,-1,31
 592 940 592 940 580 985.5 c 128,-1,32
 568 1031 568 1031 568 1089 c 2,33,-1
 568 1330 l 2,34,35
 568 1369 568 1369 567 1393.5 c 128,-1,36
 566 1418 566 1418 561.5 1449 c 128,-1,37
 557 1480 557 1480 548 1499 c 128,-1,38
 539 1518 539 1518 524.5 1535.5 c 128,-1,39
 510 1553 510 1553 486.5 1561 c 128,-1,40
 463 1569 463 1569 431 1569 c 2,41,-1
 202 1569 l 1,42,-1
 202 1705 l 1,43,-1
 431 1706 l 1,44,-1
 434 1706 l 2,45,46
 627 1706 627 1706 708.5 1616.5 c 128,-1,47
 790 1527 790 1527 790 1330 c 2,48,-1
 790 1097 l 2,0,1
EndSplineSet
EndChar

StartChar: asciitilde
Encoding: 126 126 97
Width: 1229
Flags: W
LayerCount: 2
Fore
SplineSet
1332 1108 m 1,0,1
 1324 1072 1324 1072 1320 1053.5 c 128,-1,2
 1316 1035 1316 1035 1307 1002 c 128,-1,3
 1298 969 1298 969 1290.5 950.5 c 128,-1,4
 1283 932 1283 932 1270.5 905.5 c 128,-1,5
 1258 879 1258 879 1245 863.5 c 128,-1,6
 1232 848 1232 848 1213 830 c 128,-1,7
 1194 812 1194 812 1173 803 c 128,-1,8
 1152 794 1152 794 1124 787.5 c 128,-1,9
 1096 781 1096 781 1064 781 c 0,10,11
 1040 781 1040 781 1015 785 c 128,-1,12
 990 789 990 789 961 798 c 128,-1,13
 932 807 932 807 913.5 813 c 128,-1,14
 895 819 895 819 860.5 832.5 c 128,-1,15
 826 846 826 846 815 850 c 0,16,17
 536 953 536 953 483 969 c 0,18,19
 468 974 468 974 455 974 c 0,20,21
 362 974 362 974 334 784 c 1,22,-1
 152 844 l 1,23,24
 164 902 164 902 183 952 c 128,-1,25
 202 1002 202 1002 233.5 1049 c 128,-1,26
 265 1096 265 1096 313 1123 c 128,-1,27
 361 1150 361 1150 420 1150 c 0,28,29
 466 1150 466 1150 523 1135.5 c 128,-1,30
 580 1121 580 1121 606 1111.5 c 128,-1,31
 632 1102 632 1102 698 1075 c 0,32,33
 705 1072 705 1072 745.5 1055.5 c 128,-1,34
 786 1039 786 1039 799.5 1033.5 c 128,-1,35
 813 1028 813 1028 848 1014.5 c 128,-1,36
 883 1001 883 1001 903.5 994 c 128,-1,37
 924 987 924 987 953.5 978 c 128,-1,38
 983 969 983 969 1008 963 c 0,39,40
 1022 959 1022 959 1031 959 c 0,41,42
 1054 959 1054 959 1072.5 971.5 c 128,-1,43
 1091 984 1091 984 1102.5 1000.5 c 128,-1,44
 1114 1017 1114 1017 1123 1044.5 c 128,-1,45
 1132 1072 1132 1072 1136.5 1091.5 c 128,-1,46
 1141 1111 1141 1111 1146 1139 c 0,47,48
 1147 1146 1147 1146 1148 1150 c 1,49,-1
 1332 1108 l 1,0,1
EndSplineSet
EndChar

StartChar: exclamdown
Encoding: 161 161 99
Width: 1229
Flags: W
LayerCount: 2
Fore
SplineSet
723 1184 m 1,0,-1
 723 959 l 1,1,-1
 487 959 l 1,2,-1
 487 1184 l 1,3,-1
 723 1184 l 1,0,-1
542 -417 m 1,4,-1
 542 753 l 1,5,-1
 715 753 l 1,6,-1
 715 -417 l 1,7,-1
 542 -417 l 1,4,-1
EndSplineSet
EndChar

StartChar: cent
Encoding: 162 162 100
Width: 1229
Flags: W
LayerCount: 2
Fore
SplineSet
752 -277 m 1,0,-1
 624 -277 l 1,1,-1
 624 -20 l 1,2,3
 518 -6 518 -6 431.5 46.5 c 128,-1,4
 345 99 345 99 289 177 c 128,-1,5
 233 255 233 255 203 352 c 128,-1,6
 173 449 173 449 173 555 c 0,7,8
 173 660 173 660 204.5 756.5 c 128,-1,9
 236 853 236 853 292.5 930 c 128,-1,10
 349 1007 349 1007 435 1059 c 128,-1,11
 521 1111 521 1111 624 1125 c 1,12,-1
 624 1368 l 1,13,-1
 752 1368 l 1,14,-1
 752 1128 l 1,15,16
 915 1115 915 1115 999 1035 c 1,17,-1
 953 913 l 1,18,19
 861 975 861 975 752 987 c 1,20,-1
 752 117 l 1,21,22
 864 129 864 129 958 195 c 1,23,-1
 1002 72 l 1,24,25
 914 -10 914 -10 752 -23 c 1,26,-1
 752 -277 l 1,0,-1
624 125 m 1,27,-1
 624 981 l 1,28,29
 504 951 504 951 430.5 833.5 c 128,-1,30
 357 716 357 716 357 551 c 0,31,32
 357 387 357 387 428 272 c 128,-1,33
 499 157 499 157 624 125 c 1,27,-1
EndSplineSet
EndChar

StartChar: sterling
Encoding: 163 163 101
Width: 1229
Flags: W
LayerCount: 2
Fore
SplineSet
1038 0 m 1,0,-1
 120 0 l 1,1,-1
 119 150 l 1,2,3
 183 186 183 186 224.5 224.5 c 128,-1,4
 266 263 266 263 293.5 328 c 128,-1,5
 321 393 321 393 321 478 c 2,6,-1
 321 756 l 1,7,-1
 119 756 l 1,8,-1
 119 903 l 1,9,-1
 320 903 l 1,10,11
 313 962 313 962 313 1026 c 0,12,13
 313 1125 313 1125 325.5 1205 c 128,-1,14
 338 1285 338 1285 368.5 1355 c 128,-1,15
 399 1425 399 1425 447.5 1472 c 128,-1,16
 496 1519 496 1519 571 1545.5 c 128,-1,17
 646 1572 646 1572 744 1572 c 0,18,19
 849 1572 849 1572 910 1546.5 c 128,-1,20
 971 1521 971 1521 1018 1473 c 1,21,-1
 960 1343 l 1,22,23
 922 1378 922 1378 875.5 1398 c 128,-1,24
 829 1418 829 1418 751 1418 c 0,25,26
 690 1418 690 1418 645.5 1398.5 c 128,-1,27
 601 1379 601 1379 574 1346.5 c 128,-1,28
 547 1314 547 1314 531 1262 c 128,-1,29
 515 1210 515 1210 509.5 1155.5 c 128,-1,30
 504 1101 504 1101 504 1028 c 1,31,-1
 508 903 l 1,32,-1
 874 903 l 1,33,-1
 874 756 l 1,34,-1
 511 756 l 1,35,-1
 511 605 l 2,36,37
 511 524 511 524 507.5 465.5 c 128,-1,38
 504 407 504 407 493.5 341.5 c 128,-1,39
 483 276 483 276 460 228.5 c 128,-1,40
 437 181 437 181 401 153 c 1,41,-1
 1038 153 l 1,42,-1
 1038 0 l 1,0,-1
EndSplineSet
EndChar

StartChar: currency
Encoding: 164 164 102
Width: 1229
Flags: W
LayerCount: 2
Fore
SplineSet
325 1264 m 1,0,1
 448 1376 448 1376 617 1376 c 0,2,3
 787 1376 787 1376 912 1261 c 1,4,-1
 1149 1480 l 1,5,-1
 1194 1424 l 1,6,-1
 960 1208 l 1,7,8
 1052 1089 1052 1089 1052 941 c 128,-1,9
 1052 793 1052 793 961 675 c 1,10,-1
 1194 459 l 1,11,-1
 1149 403 l 1,12,-1
 912 622 l 1,13,14
 786 506 786 506 617 506 c 128,-1,15
 448 506 448 506 324 619 c 1,16,-1
 91 403 l 1,17,-1
 38 454 l 1,18,-1
 275 672 l 1,19,20
 182 791 182 791 182 941 c 128,-1,21
 182 1091 182 1091 275 1210 c 1,22,-1
 38 1429 l 1,23,-1
 91 1480 l 1,24,-1
 325 1264 l 1,0,1
272 941 m 128,-1,26
 272 798 272 798 373 697 c 128,-1,27
 474 596 474 596 617 596 c 128,-1,28
 760 596 760 596 861 697 c 128,-1,29
 962 798 962 798 962 941 c 128,-1,30
 962 1084 962 1084 861 1185 c 128,-1,31
 760 1286 760 1286 617 1286 c 128,-1,32
 474 1286 474 1286 373 1185 c 128,-1,25
 272 1084 272 1084 272 941 c 128,-1,26
EndSplineSet
EndChar

StartChar: yen
Encoding: 165 165 103
Width: 1229
Flags: W
LayerCount: 2
Fore
SplineSet
611 0 m 1,0,-1
 611 307 l 1,1,-1
 171 307 l 1,2,-1
 159 459 l 1,3,-1
 610 459 l 1,4,-1
 610 623 l 1,5,-1
 163 623 l 1,6,-1
 163 778 l 1,7,-1
 571 778 l 1,8,-1
 78 1541 l 1,9,-1
 305 1541 l 1,10,11
 346 1474 346 1474 434 1330.5 c 128,-1,12
 522 1187 522 1187 588.5 1077 c 128,-1,13
 655 967 655 967 715 864 c 1,14,-1
 1127 1541 l 1,15,-1
 1334 1541 l 1,16,-1
 830 778 l 1,17,-1
 1232 778 l 1,18,-1
 1232 623 l 1,19,-1
 800 623 l 1,20,-1
 800 459 l 1,21,-1
 1236 459 l 1,22,-1
 1236 307 l 1,23,-1
 803 307 l 1,24,-1
 803 0 l 1,25,-1
 611 0 l 1,0,-1
EndSplineSet
EndChar

StartChar: brokenbar
Encoding: 166 166 104
Width: 1229
Flags: W
LayerCount: 2
Fore
SplineSet
539 1677 m 1,0,-1
 711 1677 l 1,1,-1
 711 735 l 1,2,-1
 539 735 l 1,3,-1
 539 1677 l 1,0,-1
539 427 m 1,4,-1
 711 427 l 1,5,-1
 711 -533 l 1,6,-1
 539 -533 l 1,7,-1
 539 427 l 1,4,-1
EndSplineSet
EndChar

StartChar: section
Encoding: 167 167 105
Width: 1229
Flags: W
LayerCount: 2
Fore
SplineSet
692 594 m 1,0,1
 724 613 724 613 744.5 627.5 c 128,-1,2
 765 642 765 642 792.5 666.5 c 128,-1,3
 820 691 820 691 834.5 721.5 c 128,-1,4
 849 752 849 752 849 786 c 0,5,6
 849 821 849 821 830.5 850 c 128,-1,7
 812 879 812 879 779 900 c 128,-1,8
 746 921 746 921 715 935.5 c 128,-1,9
 684 950 684 950 643.5 966 c 128,-1,10
 603 982 603 982 586 991 c 1,11,12
 439 914 439 914 439 806 c 0,13,14
 439 783 439 783 447 762 c 128,-1,15
 455 741 455 741 465.5 725.5 c 128,-1,16
 476 710 476 710 496 693.5 c 128,-1,17
 516 677 516 677 531.5 667 c 128,-1,18
 547 657 547 657 573.5 644 c 128,-1,19
 600 631 600 631 614.5 625 c 128,-1,20
 629 619 629 619 656 608.5 c 128,-1,21
 683 598 683 598 692 594 c 1,0,1
960 1416 m 1,22,23
 829 1473 829 1473 711 1473 c 0,24,25
 473 1473 473 1473 473 1330 c 0,26,27
 473 1303 473 1303 481.5 1278.5 c 128,-1,28
 490 1254 490 1254 502 1235.5 c 128,-1,29
 514 1217 514 1217 535.5 1199.5 c 128,-1,30
 557 1182 557 1182 575.5 1170.5 c 128,-1,31
 594 1159 594 1159 622 1145.5 c 128,-1,32
 650 1132 650 1132 669 1124.5 c 128,-1,33
 688 1117 688 1117 717 1106 c 128,-1,34
 746 1095 746 1095 760 1089 c 0,35,36
 883 1037 883 1037 930 1006 c 0,37,38
 1047 927 1047 927 1047 800 c 0,39,40
 1047 750 1047 750 1029 706 c 128,-1,41
 1011 662 1011 662 977.5 627.5 c 128,-1,42
 944 593 944 593 913.5 570 c 128,-1,43
 883 547 883 547 842 522 c 1,44,45
 1021 431 1021 431 1021 274 c 0,46,47
 1021 192 1021 192 983 128 c 128,-1,48
 945 64 945 64 880.5 25.5 c 128,-1,49
 816 -13 816 -13 737.5 -32.5 c 128,-1,50
 659 -52 659 -52 572 -52 c 0,51,52
 409 -52 409 -52 273 5 c 1,53,-1
 272 166 l 1,54,55
 421 97 421 97 566 97 c 0,56,57
 616 97 616 97 660.5 105.5 c 128,-1,58
 705 114 705 114 744 132.5 c 128,-1,59
 783 151 783 151 806 185 c 128,-1,60
 829 219 829 219 829 264 c 0,61,62
 829 296 829 296 813.5 324 c 128,-1,63
 798 352 798 352 776 371 c 128,-1,64
 754 390 754 390 719 408 c 128,-1,65
 684 426 684 426 657 436.5 c 128,-1,66
 630 447 630 447 591.5 460.5 c 128,-1,67
 553 474 553 474 536 481 c 0,68,69
 485 502 485 502 453 517 c 128,-1,70
 421 532 421 532 376.5 560.5 c 128,-1,71
 332 589 332 589 307 618.5 c 128,-1,72
 282 648 282 648 263 693.5 c 128,-1,73
 244 739 244 739 244 793 c 0,74,75
 244 844 244 844 262 887 c 128,-1,76
 280 930 280 930 312.5 962 c 128,-1,77
 345 994 345 994 377 1016 c 128,-1,78
 409 1038 409 1038 451 1060 c 1,79,80
 374 1105 374 1105 328.5 1165 c 128,-1,81
 283 1225 283 1225 283 1315 c 0,82,83
 283 1397 283 1397 316.5 1457.5 c 128,-1,84
 350 1518 350 1518 410 1553 c 128,-1,85
 470 1588 470 1588 544 1604.5 c 128,-1,86
 618 1621 618 1621 706 1621 c 0,87,88
 806 1621 806 1621 959 1576 c 1,89,-1
 960 1416 l 1,22,23
EndSplineSet
EndChar

StartChar: dieresis
Encoding: 168 168 106
Width: 1229
Flags: W
LayerCount: 2
Fore
SplineSet
765 1279 m 1,0,1
 774 1383 774 1383 774 1458 c 1,2,3
 872 1448 872 1448 958 1448 c 1,4,5
 946 1362 946 1362 946 1268 c 1,6,7
 850 1279 850 1279 765 1279 c 1,0,1
330 1448 m 1,8,9
 416 1448 416 1448 514 1458 c 1,10,11
 514 1372 514 1372 525 1279 c 1,12,13
 435 1279 435 1279 341 1268 c 1,14,15
 341 1355 341 1355 330 1448 c 1,8,9
EndSplineSet
EndChar

StartChar: copyright
Encoding: 169 169 107
Width: 1229
Flags: W
LayerCount: 2
Fore
SplineSet
1234 1069 m 1,0,1
 1113 1173 1113 1173 937 1173 c 0,2,3
 770 1173 770 1173 669 1068.5 c 128,-1,4
 568 964 568 964 568 795 c 1,5,-1
 570 795 l 1,6,7
 570 622 570 622 674 517.5 c 128,-1,8
 778 413 778 413 951 413 c 0,9,10
 1126 413 1126 413 1229 499 c 1,11,-1
 1273 368 l 1,12,13
 1134 270 1134 270 932 270 c 0,14,15
 810 270 810 270 707.5 314 c 128,-1,16
 605 358 605 358 539 431.5 c 128,-1,17
 473 505 473 505 436.5 598.5 c 128,-1,18
 400 692 400 692 400 792 c 0,19,20
 400 915 400 915 445 1015.5 c 128,-1,21
 490 1116 490 1116 566.5 1179.5 c 128,-1,22
 643 1243 643 1243 740 1277 c 128,-1,23
 837 1311 837 1311 944 1311 c 0,24,25
 1135 1311 1135 1311 1269 1200 c 1,26,-1
 1234 1069 l 1,0,1
896 1483 m 0,27,28
 682 1483 682 1483 509.5 1393 c 128,-1,29
 337 1303 337 1303 241.5 1150 c 128,-1,30
 146 997 146 997 146 813 c 0,31,32
 146 678 146 678 187 560.5 c 128,-1,33
 228 443 228 443 298.5 358.5 c 128,-1,34
 369 274 369 274 462 213 c 128,-1,35
 555 152 555 152 660.5 122 c 128,-1,36
 766 92 766 92 876 92 c 0,37,38
 1049 92 1049 92 1195 145.5 c 128,-1,39
 1341 199 1341 199 1440.5 292 c 128,-1,40
 1540 385 1540 385 1595 512.5 c 128,-1,41
 1650 640 1650 640 1650 786 c 0,42,43
 1650 920 1650 920 1605 1035.5 c 128,-1,44
 1560 1151 1560 1151 1485 1232 c 128,-1,45
 1410 1313 1410 1313 1312 1370.5 c 128,-1,46
 1214 1428 1214 1428 1108 1455.5 c 128,-1,47
 1002 1483 1002 1483 896 1483 c 0,27,28
1793 787 m 1,48,49
 1793 659 1793 659 1758 545.5 c 128,-1,50
 1723 432 1723 432 1660.5 344.5 c 128,-1,51
 1598 257 1598 257 1521.5 191 c 128,-1,52
 1445 125 1445 125 1353 76 c 0,53,54
 1145 -34 1145 -34 904 -34 c 0,55,56
 641 -34 641 -34 443 76.5 c 128,-1,57
 245 187 245 187 129 369 c 0,58,59
 6 561 6 561 6 788 c 0,60,61
 6 916 6 916 41.5 1029.5 c 128,-1,62
 77 1143 77 1143 140 1230.5 c 128,-1,63
 203 1318 203 1318 280 1383.5 c 128,-1,64
 357 1449 357 1449 449 1499 c 0,65,66
 656 1610 656 1610 898 1610 c 0,67,68
 1160 1610 1160 1610 1355.5 1499 c 128,-1,69
 1551 1388 1551 1388 1669 1205 c 0,70,71
 1792 1013 1792 1013 1792 787 c 1,72,-1
 1793 787 l 1,48,49
EndSplineSet
EndChar

StartChar: ordfeminine
Encoding: 170 170 108
Width: 1229
Flags: W
LayerCount: 2
Fore
SplineSet
580 945 m 0,0,1
 682 945 682 945 740 1009 c 128,-1,2
 798 1073 798 1073 798 1178 c 2,3,-1
 798 1205 l 1,4,5
 772 1200 772 1200 727 1196.5 c 128,-1,6
 682 1193 682 1193 645 1190.5 c 128,-1,7
 608 1188 608 1188 566 1179.5 c 128,-1,8
 524 1171 524 1171 495.5 1158.5 c 128,-1,9
 467 1146 467 1146 448 1121 c 128,-1,10
 429 1096 429 1096 429 1061 c 0,11,12
 429 945 429 945 580 945 c 0,0,1
327 1466 m 1,13,14
 409 1604 409 1604 641 1604 c 0,15,16
 784 1604 784 1604 864.5 1538.5 c 128,-1,17
 945 1473 945 1473 945 1340 c 0,18,19
 945 1297 945 1297 943 1212.5 c 128,-1,20
 941 1128 941 1128 941 1086 c 0,21,22
 941 963 941 963 951 853 c 1,23,-1
 806 853 l 1,24,-1
 799 933 l 1,25,26
 720 834 720 834 555 834 c 0,27,28
 436 834 436 834 356 892.5 c 128,-1,29
 276 951 276 951 276 1058 c 0,30,31
 276 1103 276 1103 290 1139 c 128,-1,32
 304 1175 304 1175 325.5 1199 c 128,-1,33
 347 1223 347 1223 383 1241 c 128,-1,34
 419 1259 419 1259 453 1269 c 128,-1,35
 487 1279 487 1279 535.5 1286.5 c 128,-1,36
 584 1294 584 1294 621.5 1297.5 c 128,-1,37
 659 1301 659 1301 711.5 1306 c 128,-1,38
 764 1311 764 1311 797 1315 c 1,39,40
 797 1411 797 1411 762 1448.5 c 128,-1,41
 727 1486 727 1486 633 1486 c 0,42,43
 468 1486 468 1486 401 1384 c 1,44,-1
 327 1466 l 1,13,14
EndSplineSet
EndChar

StartChar: guillemotleft
Encoding: 171 171 109
Width: 1229
Flags: W
LayerCount: 2
Fore
SplineSet
1086 992 m 1,0,-1
 794 588 l 1,1,-1
 1077 185 l 1,2,-1
 904 185 l 1,3,-1
 607 588 l 1,4,-1
 910 992 l 1,5,-1
 1086 992 l 1,0,-1
679 992 m 1,6,-1
 386 588 l 1,7,-1
 668 185 l 1,8,-1
 495 185 l 1,9,-1
 197 588 l 1,10,-1
 502 992 l 1,11,-1
 679 992 l 1,6,-1
EndSplineSet
EndChar

StartChar: logicalnot
Encoding: 172 172 110
Width: 1229
Flags: W
LayerCount: 2
Fore
SplineSet
1146 715 m 1,0,-1
 152 715 l 1,1,-1
 152 866 l 1,2,-1
 1311 866 l 1,3,-1
 1311 258 l 1,4,-1
 1146 258 l 1,5,-1
 1146 715 l 1,0,-1
EndSplineSet
EndChar

StartChar: registered
Encoding: 174 174 112
Width: 1229
Flags: W
LayerCount: 2
Fore
SplineSet
853 848 m 1,0,1
 853 848 853 848 881 848 c 0,2,3
 919 848 919 848 942.5 848.5 c 128,-1,4
 966 849 966 849 998.5 852 c 128,-1,5
 1031 855 1031 855 1051.5 861 c 128,-1,6
 1072 867 1072 867 1095 878 c 128,-1,7
 1118 889 1118 889 1130.5 905 c 128,-1,8
 1143 921 1143 921 1151.5 944.5 c 128,-1,9
 1160 968 1160 968 1160 999 c 0,10,11
 1160 1162 1160 1162 954 1162 c 2,12,-1
 715 1162 l 1,13,-1
 715 848 l 1,14,-1
 853 848 l 1,0,1
1167 296 m 1,15,16
 1150 326 1150 326 1117.5 384 c 128,-1,17
 1085 442 1085 442 1062 481.5 c 128,-1,18
 1039 521 1039 521 1007.5 569 c 128,-1,19
 976 617 976 617 941 655.5 c 128,-1,20
 906 694 906 694 869 721 c 1,21,-1
 718 721 l 1,22,-1
 718 296 l 1,23,-1
 554 296 l 1,24,-1
 554 1294 l 1,25,-1
 855 1294 l 1,26,-1
 854 1293 l 1,27,28
 952 1293 952 1293 1029.5 1281.5 c 128,-1,29
 1107 1270 1107 1270 1179 1241.5 c 128,-1,30
 1251 1213 1251 1213 1291 1155.5 c 128,-1,31
 1331 1098 1331 1098 1331 1014 c 0,32,33
 1331 893 1331 893 1248 824 c 128,-1,34
 1165 755 1165 755 1038 740 c 1,35,36
 1083 697 1083 697 1131.5 634.5 c 128,-1,37
 1180 572 1180 572 1204 536 c 128,-1,38
 1228 500 1228 500 1285.5 406.5 c 128,-1,39
 1343 313 1343 313 1353 296 c 1,40,-1
 1167 296 l 1,15,16
146 788 m 0,41,42
 146 651 146 651 191.5 534.5 c 128,-1,43
 237 418 237 418 313.5 337.5 c 128,-1,44
 390 257 390 257 491 200 c 128,-1,45
 592 143 592 143 703 116.5 c 128,-1,46
 814 90 814 90 928 90 c 0,47,48
 1089 90 1089 90 1227 147 c 128,-1,49
 1365 204 1365 204 1456 298.5 c 128,-1,50
 1547 393 1547 393 1598.5 513 c 128,-1,51
 1650 633 1650 633 1650 761 c 0,52,53
 1650 896 1650 896 1609 1013 c 128,-1,54
 1568 1130 1568 1130 1497.5 1215 c 128,-1,55
 1427 1300 1427 1300 1334 1361 c 128,-1,56
 1241 1422 1241 1422 1136 1452 c 128,-1,57
 1031 1482 1031 1482 922 1482 c 0,58,59
 748 1482 748 1482 601.5 1428.5 c 128,-1,60
 455 1375 455 1375 356 1282 c 128,-1,61
 257 1189 257 1189 201.5 1061.5 c 128,-1,62
 146 934 146 934 146 788 c 0,41,42
1793 785 m 1,63,64
 1793 657 1793 657 1758 543.5 c 128,-1,65
 1723 430 1723 430 1660.5 342.5 c 128,-1,66
 1598 255 1598 255 1521.5 189 c 128,-1,67
 1445 123 1445 123 1353 74 c 0,68,69
 1143 -37 1143 -37 904 -37 c 0,70,71
 641 -37 641 -37 443 73.5 c 128,-1,72
 245 184 245 184 129 366 c 0,73,74
 6 558 6 558 6 786 c 0,75,76
 6 914 6 914 41.5 1028 c 128,-1,77
 77 1142 77 1142 140.5 1229 c 128,-1,78
 204 1316 204 1316 280.5 1381.5 c 128,-1,79
 357 1447 357 1447 449 1497 c 0,80,81
 656 1608 656 1608 898 1608 c 0,82,83
 1160 1608 1160 1608 1356 1497 c 128,-1,84
 1552 1386 1552 1386 1669 1203 c 0,85,86
 1792 1010 1792 1010 1792 785 c 1,87,-1
 1793 785 l 1,63,64
EndSplineSet
EndChar

StartChar: macron
Encoding: 175 175 113
Width: 1229
Flags: W
LayerCount: 2
Fore
SplineSet
275 1499 m 1,0,-1
 275 1639 l 1,1,-1
 954 1639 l 1,2,-1
 954 1499 l 1,3,-1
 275 1499 l 1,0,-1
EndSplineSet
EndChar

StartChar: degree
Encoding: 176 176 114
Width: 1229
Flags: W
LayerCount: 2
Fore
SplineSet
1006 1248 m 0,0,1
 1006 1110 1006 1110 901.5 1019.5 c 128,-1,2
 797 929 797 929 653 929 c 0,3,4
 501 929 501 929 400 1028 c 128,-1,5
 299 1127 299 1127 299 1248 c 0,6,7
 299 1387 299 1387 403.5 1477 c 128,-1,8
 508 1567 508 1567 653 1567 c 0,9,10
 755 1567 755 1567 837.5 1519.5 c 128,-1,11
 920 1472 920 1472 963 1399.5 c 128,-1,12
 1006 1327 1006 1327 1006 1248 c 0,0,1
653 1054 m 128,-1,14
 743 1054 743 1054 805.5 1109.5 c 128,-1,15
 868 1165 868 1165 868 1250 c 128,-1,16
 868 1335 868 1335 805 1388.5 c 128,-1,17
 742 1442 742 1442 653 1442 c 128,-1,18
 564 1442 564 1442 501 1388 c 128,-1,19
 438 1334 438 1334 438 1250 c 0,20,21
 438 1165 438 1165 500.5 1109.5 c 128,-1,13
 563 1054 563 1054 653 1054 c 128,-1,14
EndSplineSet
EndChar

StartChar: plusminus
Encoding: 177 177 115
Width: 1229
Flags: W
LayerCount: 2
Fore
SplineSet
152 150 m 1,0,-1
 1312 150 l 1,1,-1
 1312 0 l 1,2,-1
 152 0 l 1,3,-1
 152 150 l 1,0,-1
644 1201 m 1,4,-1
 810 1201 l 1,5,-1
 810 795 l 1,6,-1
 1309 795 l 1,7,-1
 1309 645 l 1,8,-1
 813 645 l 1,9,-1
 813 242 l 1,10,-1
 647 242 l 1,11,-1
 647 645 l 1,12,-1
 152 645 l 1,13,-1
 152 795 l 1,14,-1
 644 795 l 1,15,-1
 644 1201 l 1,4,-1
EndSplineSet
EndChar

StartChar: uni00B2
Encoding: 178 178 116
Width: 1229
Flags: W
LayerCount: 2
Fore
SplineSet
604 1564 m 0,0,1
 742 1564 742 1564 829 1502 c 128,-1,2
 916 1440 916 1440 916 1317 c 0,3,4
 916 1232 916 1232 876 1161 c 128,-1,5
 836 1090 836 1090 772 1020 c 0,6,7
 754 1000 754 1000 731 977.5 c 128,-1,8
 708 955 708 955 691 938.5 c 128,-1,9
 674 922 674 922 644 896 c 128,-1,10
 614 870 614 870 601.5 859 c 128,-1,11
 589 848 589 848 555 819 c 128,-1,12
 521 790 521 790 514 784 c 1,13,-1
 915 784 l 1,14,-1
 915 656 l 1,15,-1
 312 656 l 1,16,-1
 312 776 l 1,17,18
 337 799 337 799 387 843 c 128,-1,19
 437 887 437 887 468.5 915.5 c 128,-1,20
 500 944 500 944 545 987.5 c 128,-1,21
 590 1031 590 1031 622 1066.5 c 128,-1,22
 654 1102 654 1102 688 1146.5 c 128,-1,23
 722 1191 722 1191 747 1233 c 0,24,25
 774 1280 774 1280 774 1315 c 1,26,-1
 775 1315 l 1,27,28
 775 1375 775 1375 731.5 1405.5 c 128,-1,29
 688 1436 688 1436 621 1436 c 0,30,31
 482 1436 482 1436 414 1294 c 1,32,-1
 319 1378 l 1,33,34
 355 1458 355 1458 430 1511 c 128,-1,35
 505 1564 505 1564 604 1564 c 0,0,1
EndSplineSet
EndChar

StartChar: uni00B3
Encoding: 179 179 117
Width: 1229
Flags: W
LayerCount: 2
Fore
SplineSet
379 846 m 1,0,1
 472 761 472 761 580 761 c 1,2,-1
 580 760 l 1,3,4
 663 760 663 760 718 797 c 128,-1,5
 773 834 773 834 773 907 c 0,6,7
 773 1053 773 1053 535 1053 c 1,8,-1
 473 1051 l 1,9,-1
 473 1181 l 1,10,11
 509 1181 509 1181 529.5 1181.5 c 128,-1,12
 550 1182 550 1182 583 1184.5 c 128,-1,13
 616 1187 616 1187 635.5 1191.5 c 128,-1,14
 655 1196 655 1196 678.5 1205.5 c 128,-1,15
 702 1215 702 1215 715 1229 c 128,-1,16
 728 1243 728 1243 737 1264 c 128,-1,17
 746 1285 746 1285 746 1312 c 0,18,19
 746 1434 746 1434 590 1434 c 0,20,21
 486 1434 486 1434 377 1350 c 1,22,-1
 313 1454 l 1,23,24
 432 1564 432 1564 593 1564 c 0,25,26
 723 1564 723 1564 808 1495.5 c 128,-1,27
 893 1427 893 1427 893 1306 c 0,28,29
 893 1184 893 1184 774 1120 c 1,30,31
 916 1058 916 1058 916 905 c 0,32,33
 916 780 916 780 820 708 c 128,-1,34
 724 636 724 636 586 636 c 0,35,36
 421 636 421 636 313 741 c 1,37,-1
 379 846 l 1,0,1
EndSplineSet
EndChar

StartChar: acute
Encoding: 180 180 118
Width: 1229
Flags: W
LayerCount: 2
Fore
SplineSet
418 1268 m 1,0,-1
 679 1705 l 1,1,-1
 911 1705 l 1,2,-1
 560 1268 l 1,3,-1
 418 1268 l 1,0,-1
EndSplineSet
EndChar

StartChar: uni00B5
Encoding: 181 181 119
Width: 1229
Flags: W
LayerCount: 2
Fore
SplineSet
378 49 m 1,0,-1
 378 -295 l 1,1,-1
 196 -295 l 1,2,-1
 196 1097 l 1,3,-1
 378 1097 l 1,4,-1
 378 421 l 2,5,6
 378 387 378 387 378.5 366 c 128,-1,7
 379 345 379 345 381 314.5 c 128,-1,8
 383 284 383 284 387.5 265 c 128,-1,9
 392 246 392 246 399.5 222 c 128,-1,10
 407 198 407 198 418.5 183 c 128,-1,11
 430 168 430 168 446.5 152 c 128,-1,12
 463 136 463 136 485 127 c 128,-1,13
 507 118 507 118 536 112.5 c 128,-1,14
 565 107 565 107 601 107 c 0,15,16
 710 107 710 107 791 175 c 128,-1,17
 872 243 872 243 872 355 c 2,18,-1
 872 1097 l 1,19,-1
 1054 1097 l 1,20,-1
 1054 0 l 1,21,-1
 887 0 l 1,22,-1
 877 119 l 1,23,24
 768 -22 768 -22 537 -22 c 0,25,26
 445 -22 445 -22 378 49 c 1,0,-1
EndSplineSet
EndChar

StartChar: paragraph
Encoding: 182 182 120
Width: 1229
Flags: W
LayerCount: 2
Fore
SplineSet
66 1227 m 0,0,1
 66 1310 66 1310 98.5 1373 c 128,-1,2
 131 1436 131 1436 183.5 1473.5 c 128,-1,3
 236 1511 236 1511 312.5 1534.5 c 128,-1,4
 389 1558 389 1558 466.5 1566.5 c 128,-1,5
 544 1575 544 1575 637 1575 c 2,6,-1
 1065 1575 l 1,7,-1
 1065 1441 l 1,8,-1
 969 1441 l 1,9,-1
 969 -160 l 1,10,-1
 825 -160 l 1,11,-1
 825 1441 l 1,12,-1
 595 1441 l 1,13,-1
 595 -160 l 1,14,-1
 438 -160 l 1,15,-1
 438 853 l 1,16,17
 275 855 275 855 170.5 960 c 128,-1,18
 66 1065 66 1065 66 1227 c 0,0,1
EndSplineSet
EndChar

StartChar: periodcentered
Encoding: 183 183 121
Width: 1229
Flags: W
LayerCount: 2
Fore
SplineSet
487 557 m 1,0,-1
 487 785 l 1,1,-1
 728 785 l 1,2,-1
 728 557 l 1,3,-1
 487 557 l 1,0,-1
EndSplineSet
EndChar

StartChar: cedilla
Encoding: 184 184 122
Width: 1229
Flags: W
LayerCount: 2
Fore
SplineSet
731 -261 m 128,-1,1
 731 -183 731 -183 609 -183 c 0,2,3
 602 -183 602 -183 534 -188 c 1,4,-1
 569 19 l 1,5,-1
 677 19 l 1,6,-1
 657 -98 l 1,7,-1
 666 -97 l 1,8,9
 765 -97 765 -97 826.5 -136 c 128,-1,10
 888 -175 888 -175 888 -260 c 0,11,12
 888 -428 888 -428 617 -428 c 0,13,14
 541 -428 541 -428 428 -405 c 1,15,-1
 437 -313 l 1,16,17
 548 -339 548 -339 604 -339 c 0,18,0
 731 -339 731 -339 731 -261 c 128,-1,1
EndSplineSet
EndChar

StartChar: uni00B9
Encoding: 185 185 123
Width: 1229
Flags: W
LayerCount: 2
Fore
SplineSet
564 1381 m 1,0,1
 484 1340 484 1340 396 1306 c 1,2,-1
 397 1447 l 1,3,4
 492 1479 492 1479 582 1533 c 1,5,-1
 698 1549 l 1,6,-1
 698 781 l 1,7,-1
 833 781 l 1,8,-1
 833 656 l 1,9,-1
 430 656 l 1,10,-1
 430 785 l 1,11,-1
 564 785 l 1,12,-1
 564 1381 l 1,0,1
EndSplineSet
EndChar

StartChar: ordmasculine
Encoding: 186 186 124
Width: 1229
Flags: W
LayerCount: 2
Fore
SplineSet
684 950 m 0,0,1
 796 950 796 950 861.5 1023.5 c 128,-1,2
 927 1097 927 1097 927 1214 c 0,3,4
 927 1339 927 1339 864 1412.5 c 128,-1,5
 801 1486 801 1486 681 1486 c 0,6,7
 565 1486 565 1486 501 1412.5 c 128,-1,8
 437 1339 437 1339 437 1218 c 0,9,10
 437 1096 437 1096 501.5 1023 c 128,-1,11
 566 950 566 950 684 950 c 0,0,1
684 833 m 0,12,13
 499 833 499 833 390 936 c 128,-1,14
 281 1039 281 1039 281 1220 c 0,15,16
 281 1395 281 1395 391.5 1498.5 c 128,-1,17
 502 1602 502 1602 682 1602 c 0,18,19
 866 1602 866 1602 973 1499.5 c 128,-1,20
 1080 1397 1080 1397 1080 1217 c 0,21,22
 1080 1042 1080 1042 971.5 937.5 c 128,-1,23
 863 833 863 833 684 833 c 0,12,13
EndSplineSet
EndChar

StartChar: guillemotright
Encoding: 187 187 125
Width: 1229
Flags: W
LayerCount: 2
Fore
SplineSet
636 185 m 1,0,-1
 926 589 l 1,1,-1
 645 992 l 1,2,-1
 817 992 l 1,3,-1
 1116 589 l 1,4,-1
 809 185 l 1,5,-1
 636 185 l 1,0,-1
197 185 m 1,6,-1
 489 589 l 1,7,-1
 203 992 l 1,8,-1
 380 992 l 1,9,-1
 678 589 l 1,10,-1
 373 185 l 1,11,-1
 197 185 l 1,6,-1
EndSplineSet
EndChar

StartChar: onequarter
Encoding: 188 188 126
Width: 1229
Flags: W
LayerCount: 2
Fore
SplineSet
1353 361 m 1,0,1
 1353 396 1353 396 1352.5 465.5 c 128,-1,2
 1352 535 1352 535 1352 570 c 0,3,4
 1352 621 1352 621 1354 725 c 1,5,-1
 1091 361 l 1,6,-1
 1353 361 l 1,0,1
191 1381 m 1,7,8
 100 1333 100 1333 23 1306 c 1,9,-1
 24 1447 l 1,10,11
 116 1477 116 1477 209 1533 c 1,12,-1
 326 1549 l 1,13,-1
 326 781 l 1,14,-1
 461 781 l 1,15,-1
 461 656 l 1,16,-1
 57 656 l 1,17,-1
 57 785 l 1,18,-1
 191 785 l 1,19,-1
 191 1381 l 1,7,8
409 1 m 1,20,-1
 242 1 l 1,21,-1
 1244 1560 l 1,22,-1
 1408 1560 l 1,23,-1
 409 1 l 1,20,-1
1354 245 m 1,24,-1
 936 245 l 1,25,-1
 936 345 l 1,26,-1
 1340 906 l 1,27,-1
 1490 906 l 1,28,-1
 1490 361 l 1,29,-1
 1610 361 l 1,30,-1
 1621 245 l 1,31,-1
 1487 245 l 1,32,-1
 1487 1 l 1,33,-1
 1354 41 l 1,34,-1
 1354 245 l 1,24,-1
EndSplineSet
EndChar

StartChar: onehalf
Encoding: 189 189 127
Width: 1229
Flags: W
LayerCount: 2
Fore
SplineSet
171 1381 m 1,0,1
 95 1342 95 1342 2 1306 c 1,2,-1
 3 1447 l 1,3,4
 103 1481 103 1481 188 1533 c 1,5,-1
 304 1549 l 1,6,-1
 304 781 l 1,7,-1
 440 781 l 1,8,-1
 440 656 l 1,9,-1
 36 656 l 1,10,-1
 36 785 l 1,11,-1
 171 785 l 1,12,-1
 171 1381 l 1,0,1
323 1 m 1,13,-1
 157 1 l 1,14,-1
 1160 1560 l 1,15,-1
 1323 1560 l 1,16,-1
 323 1 l 1,13,-1
1207 881 m 0,17,18
 1347 881 1347 881 1434 820 c 128,-1,19
 1521 759 1521 759 1521 635 c 0,20,21
 1521 550 1521 550 1481 478.5 c 128,-1,22
 1441 407 1441 407 1377 337 c 0,23,24
 1356 313 1356 313 1331 288.5 c 128,-1,25
 1306 264 1306 264 1275 236.5 c 128,-1,26
 1244 209 1244 209 1224 191.5 c 128,-1,27
 1204 174 1204 174 1166.5 143 c 128,-1,28
 1129 112 1129 112 1117 101 c 1,29,-1
 1520 101 l 1,30,-1
 1520 -26 l 1,31,-1
 914 -26 l 1,32,-1
 914 94 l 1,33,34
 942 119 942 119 1004 174 c 128,-1,35
 1066 229 1066 229 1104 264 c 128,-1,36
 1142 299 1142 299 1192.5 349.5 c 128,-1,37
 1243 400 1243 400 1282 449.5 c 128,-1,38
 1321 499 1321 499 1351 550 c 0,39,40
 1378 597 1378 597 1378 632 c 1,41,-1
 1380 632 l 1,42,43
 1380 693 1380 693 1336 723.5 c 128,-1,44
 1292 754 1292 754 1224 754 c 0,45,46
 1088 754 1088 754 1017 612 c 1,47,-1
 924 697 l 1,48,49
 960 776 960 776 1034 828.5 c 128,-1,50
 1108 881 1108 881 1207 881 c 0,17,18
EndSplineSet
EndChar

StartChar: threequarters
Encoding: 190 190 128
Width: 1229
Flags: W
LayerCount: 2
Fore
SplineSet
1381 363 m 1,0,-1
 1381 509 l 2,1,2
 1381 654 1381 654 1383 726 c 1,3,-1
 1119 363 l 1,4,-1
 1381 363 l 1,0,-1
86 846 m 1,5,6
 181 761 181 761 287 761 c 1,7,-1
 287 760 l 1,8,9
 370 760 370 760 425 797 c 128,-1,10
 480 834 480 834 480 907 c 0,11,12
 480 1053 480 1053 243 1053 c 1,13,-1
 181 1051 l 1,14,-1
 181 1181 l 1,15,16
 217 1181 217 1181 237.5 1181.5 c 128,-1,17
 258 1182 258 1182 291 1184.5 c 128,-1,18
 324 1187 324 1187 343 1191.5 c 128,-1,19
 362 1196 362 1196 386 1205.5 c 128,-1,20
 410 1215 410 1215 422.5 1229 c 128,-1,21
 435 1243 435 1243 444 1264 c 128,-1,22
 453 1285 453 1285 453 1312 c 0,23,24
 453 1434 453 1434 298 1434 c 0,25,26
 194 1434 194 1434 85 1350 c 1,27,-1
 20 1454 l 1,28,29
 137 1564 137 1564 300 1564 c 0,30,31
 430 1564 430 1564 515 1495.5 c 128,-1,32
 600 1427 600 1427 600 1306 c 0,33,34
 600 1182 600 1182 481 1120 c 1,35,36
 624 1059 624 1059 624 905 c 0,37,38
 624 780 624 780 527.5 708 c 128,-1,39
 431 636 431 636 292 636 c 0,40,41
 130 636 130 636 20 741 c 1,42,-1
 86 846 l 1,5,6
457 -1 m 1,43,-1
 290 -1 l 1,44,-1
 1293 1558 l 1,45,-1
 1457 1558 l 1,46,-1
 457 -1 l 1,43,-1
1383 248 m 1,47,-1
 965 248 l 1,48,-1
 965 346 l 1,49,-1
 1368 909 l 1,50,-1
 1518 909 l 1,51,-1
 1518 363 l 1,52,-1
 1639 363 l 1,53,-1
 1650 248 l 1,54,-1
 1516 248 l 1,55,-1
 1516 -1 l 1,56,-1
 1383 44 l 1,57,-1
 1383 248 l 1,47,-1
EndSplineSet
EndChar

StartChar: questiondown
Encoding: 191 191 129
Width: 1229
Flags: W
LayerCount: 2
Fore
SplineSet
799 1604 m 1,0,-1
 799 1376 l 1,1,-1
 557 1376 l 1,2,-1
 557 1604 l 1,3,-1
 799 1604 l 1,0,-1
168 361 m 0,4,5
 168 433 168 433 200.5 500.5 c 128,-1,6
 233 568 233 568 281 617.5 c 128,-1,7
 329 667 329 667 386 720 c 128,-1,8
 443 773 443 773 491 818 c 128,-1,9
 539 863 539 863 571.5 920.5 c 128,-1,10
 604 978 604 978 604 1037 c 0,11,12
 604 1099 604 1099 586 1193 c 1,13,-1
 767 1193 l 1,14,15
 778 1103 778 1103 778 1024 c 1,16,-1
 779 1023 l 1,17,18
 779 961 779 961 758 907.5 c 128,-1,19
 737 854 737 854 699 811 c 128,-1,20
 661 768 661 768 624.5 736 c 128,-1,21
 588 704 588 704 539.5 665 c 128,-1,22
 491 626 491 626 465 600 c 0,23,24
 414 549 414 549 384.5 495.5 c 128,-1,25
 355 442 355 442 355 371 c 0,26,27
 355 309 355 309 381 263 c 128,-1,28
 407 217 407 217 453.5 191.5 c 128,-1,29
 500 166 500 166 556.5 154 c 128,-1,30
 613 142 613 142 680 142 c 0,31,32
 822 142 822 142 959 216 c 1,33,-1
 959 58 l 1,34,35
 811 -13 811 -13 680 -13 c 0,36,37
 572 -13 572 -13 482.5 7 c 128,-1,38
 393 27 393 27 321 69.5 c 128,-1,39
 249 112 249 112 208.5 186.5 c 128,-1,40
 168 261 168 261 168 361 c 0,4,5
EndSplineSet
EndChar

StartChar: AE
Encoding: 198 198 136
Width: 1229
Flags: W
LayerCount: 2
Fore
SplineSet
692 591 m 1,0,-1
 692 1360 l 1,1,-1
 441 591 l 1,2,-1
 692 591 l 1,0,-1
612 1572 m 1,3,-1
 1165 1572 l 1,4,-1
 1153 1411 l 1,5,-1
 871 1411 l 1,6,-1
 871 881 l 1,7,-1
 1179 881 l 1,8,-1
 1166 721 l 1,9,-1
 871 721 l 1,10,-1
 871 151 l 1,11,-1
 1194 151 l 1,12,-1
 1182 0 l 1,13,-1
 692 0 l 1,14,-1
 692 431 l 1,15,-1
 380 431 l 1,16,-1
 235 0 l 1,17,-1
 27 0 l 1,18,-1
 612 1572 l 1,3,-1
EndSplineSet
EndChar

StartChar: Eth
Encoding: 208 208 146
Width: 1229
Flags: W
LayerCount: 2
Fore
SplineSet
694 160 m 2,0,1
 1015 160 1015 160 1198 318.5 c 128,-1,2
 1381 477 1381 477 1381 782 c 0,3,4
 1381 928 1381 928 1345 1037.5 c 128,-1,5
 1309 1147 1309 1147 1243.5 1219.5 c 128,-1,6
 1178 1292 1178 1292 1078 1337 c 128,-1,7
 978 1382 978 1382 859 1401 c 128,-1,8
 740 1420 740 1420 587 1420 c 2,9,-1
 405 1420 l 1,10,-1
 405 863 l 1,11,-1
 633 863 l 1,12,-1
 633 714 l 1,13,-1
 405 714 l 1,14,-1
 405 160 l 1,15,-1
 694 160 l 2,0,1
563 1581 m 2,16,17
 751 1581 751 1581 902 1556.5 c 128,-1,18
 1053 1532 1053 1532 1182.5 1475 c 128,-1,19
 1312 1418 1312 1418 1399 1327.5 c 128,-1,20
 1486 1237 1486 1237 1535 1100.5 c 128,-1,21
 1584 964 1584 964 1584 786 c 0,22,23
 1584 593 1584 593 1516.5 442 c 128,-1,24
 1449 291 1449 291 1327 195 c 128,-1,25
 1205 99 1205 99 1040.5 49.5 c 128,-1,26
 876 0 876 0 676 0 c 2,27,-1
 215 0 l 1,28,-1
 215 714 l 1,29,-1
 0 714 l 1,30,-1
 0 863 l 1,31,-1
 215 863 l 1,32,-1
 215 1581 l 1,33,-1
 563 1581 l 2,16,17
EndSplineSet
EndChar

StartChar: multiply
Encoding: 215 215 153
Width: 1229
Flags: W
LayerCount: 2
Fore
SplineSet
1077 280 m 1,0,-1
 961 168 l 1,1,-1
 633 489 l 1,2,-1
 305 168 l 1,3,-1
 190 278 l 1,4,-1
 518 602 l 1,5,-1
 190 924 l 1,6,-1
 305 1036 l 1,7,-1
 633 713 l 1,8,-1
 961 1036 l 1,9,-1
 1077 923 l 1,10,-1
 747 602 l 1,11,-1
 1077 280 l 1,0,-1
EndSplineSet
EndChar

StartChar: Oslash
Encoding: 216 216 154
Width: 1229
Flags: W
LayerCount: 2
Fore
SplineSet
614 1356 m 0,0,1
 518 1356 518 1356 450.5 1274.5 c 128,-1,2
 383 1193 383 1193 351 1057.5 c 128,-1,3
 319 922 319 922 319 746 c 0,4,5
 319 517 319 517 374 360 c 1,6,-1
 770 1284 l 1,7,8
 704 1356 704 1356 614 1356 c 0,0,1
281 -222 m 1,9,-1
 146 -171 l 1,10,-1
 282 145 l 1,11,12
 203 251 203 251 163 407.5 c 128,-1,13
 123 564 123 564 123 747 c 0,14,15
 123 865 123 865 138 972 c 128,-1,16
 153 1079 153 1079 189 1180 c 128,-1,17
 225 1281 225 1281 280 1354.5 c 128,-1,18
 335 1428 335 1428 420.5 1472 c 128,-1,19
 506 1516 506 1516 614 1516 c 0,20,21
 744 1516 744 1516 842 1453 c 1,22,-1
 955 1717 l 1,23,-1
 1095 1675 l 1,24,-1
 954 1346 l 1,25,26
 1032 1240 1032 1240 1068.5 1083 c 128,-1,27
 1105 926 1105 926 1105 747 c 0,28,29
 1105 590 1105 590 1075.5 453 c 128,-1,30
 1046 316 1046 316 987.5 208 c 128,-1,31
 929 100 929 100 833 37.5 c 128,-1,32
 737 -25 737 -25 614 -25 c 0,33,34
 490 -25 490 -25 393 39 c 1,35,-1
 281 -222 l 1,9,-1
463 203 m 1,36,37
 528 136 528 136 614 136 c 0,38,39
 709 136 709 136 777 217.5 c 128,-1,40
 845 299 845 299 877 434.5 c 128,-1,41
 909 570 909 570 909 746 c 0,42,43
 909 969 909 969 858 1122 c 1,44,-1
 463 203 l 1,36,37
EndSplineSet
EndChar

StartChar: Thorn
Encoding: 222 222 160
Width: 1229
Flags: W
LayerCount: 2
Fore
SplineSet
655 643 m 2,0,1
 1075 643 1075 643 1075 956 c 0,2,3
 1075 1032 1075 1032 1050 1088 c 128,-1,4
 1025 1144 1025 1144 984 1177 c 128,-1,5
 943 1210 943 1210 880 1230 c 128,-1,6
 817 1250 817 1250 752 1257 c 128,-1,7
 687 1264 687 1264 603 1264 c 2,8,-1
 366 1264 l 1,9,-1
 366 643 l 1,10,-1
 655 643 l 2,0,1
1279 951 m 0,11,12
 1279 878 1279 878 1261.5 817 c 128,-1,13
 1244 756 1244 756 1216 711 c 128,-1,14
 1188 666 1188 666 1141 630.5 c 128,-1,15
 1094 595 1094 595 1046.5 571 c 128,-1,16
 999 547 999 547 930.5 530 c 128,-1,17
 862 513 862 513 802.5 503.5 c 128,-1,18
 743 494 743 494 661 489 c 128,-1,19
 579 484 579 484 516 482.5 c 128,-1,20
 453 481 453 481 366 481 c 1,21,-1
 366 0 l 1,22,-1
 176 0 l 1,23,-1
 176 1581 l 1,24,-1
 366 1581 l 1,25,-1
 366 1424 l 1,26,27
 464 1424 464 1424 521 1423 c 128,-1,28
 578 1422 578 1422 668 1418 c 128,-1,29
 758 1414 758 1414 811.5 1405.5 c 128,-1,30
 865 1397 865 1397 937.5 1380.5 c 128,-1,31
 1010 1364 1010 1364 1053 1340.5 c 128,-1,32
 1096 1317 1096 1317 1144.5 1281 c 128,-1,33
 1193 1245 1193 1245 1219 1199 c 128,-1,34
 1245 1153 1245 1153 1262 1090 c 128,-1,35
 1279 1027 1279 1027 1279 951 c 0,11,12
EndSplineSet
EndChar

StartChar: germandbls
Encoding: 223 223 161
Width: 1229
Flags: W
LayerCount: 2
Fore
SplineSet
664 1599 m 0,0,1
 741 1599 741 1599 809 1587.5 c 128,-1,2
 877 1576 877 1576 938.5 1549.5 c 128,-1,3
 1000 1523 1000 1523 1044.5 1484 c 128,-1,4
 1089 1445 1089 1445 1115 1386.5 c 128,-1,5
 1141 1328 1141 1328 1141 1256 c 0,6,7
 1141 1214 1141 1214 1131 1175 c 128,-1,8
 1121 1136 1121 1136 1098.5 1102 c 128,-1,9
 1076 1068 1076 1068 1055 1042 c 128,-1,10
 1034 1016 1034 1016 997.5 986 c 128,-1,11
 961 956 961 956 940 940 c 128,-1,12
 919 924 919 924 878 896 c 128,-1,13
 837 868 837 868 823 858 c 1,14,15
 860 835 860 835 928.5 799 c 128,-1,16
 997 763 997 763 1047 736.5 c 128,-1,17
 1097 710 1097 710 1157 667.5 c 128,-1,18
 1217 625 1217 625 1255.5 584.5 c 128,-1,19
 1294 544 1294 544 1320.5 486 c 128,-1,20
 1347 428 1347 428 1347 363 c 0,21,22
 1347 174 1347 174 1228 74 c 128,-1,23
 1109 -26 1109 -26 908 -26 c 0,24,25
 798 -26 798 -26 701 0.5 c 128,-1,26
 604 27 604 27 541 76 c 1,27,-1
 612 225 l 1,28,29
 762 139 762 139 892 139 c 0,30,31
 991 139 991 139 1051 195 c 128,-1,32
 1111 251 1111 251 1111 347 c 0,33,34
 1111 369 1111 369 1106.5 390 c 128,-1,35
 1102 411 1102 411 1095 428.5 c 128,-1,36
 1088 446 1088 446 1075 463.5 c 128,-1,37
 1062 481 1062 481 1052 494 c 128,-1,38
 1042 507 1042 507 1023 522.5 c 128,-1,39
 1004 538 1004 538 992.5 547 c 128,-1,40
 981 556 981 556 959 570 c 128,-1,41
 937 584 937 584 926 590.5 c 128,-1,42
 915 597 915 597 892.5 610 c 128,-1,43
 870 623 870 623 862 627 c 0,44,45
 850 634 850 634 803 659.5 c 128,-1,46
 756 685 756 685 733 700 c 128,-1,47
 710 715 710 715 676.5 740 c 128,-1,48
 643 765 643 765 628 790 c 128,-1,49
 613 815 613 815 613 841 c 0,50,51
 613 862 613 862 621.5 882.5 c 128,-1,52
 630 903 630 903 640 917.5 c 128,-1,53
 650 932 650 932 670.5 950.5 c 128,-1,54
 691 969 691 969 702.5 977.5 c 128,-1,55
 714 986 714 986 738 1002.5 c 128,-1,56
 762 1019 762 1019 768 1023 c 0,57,58
 801 1047 801 1047 822.5 1065 c 128,-1,59
 844 1083 844 1083 870 1112.5 c 128,-1,60
 896 1142 896 1142 909 1177.5 c 128,-1,61
 922 1213 922 1213 922 1254 c 0,62,63
 922 1319 922 1319 884 1362.5 c 128,-1,64
 846 1406 846 1406 789 1424 c 128,-1,65
 732 1442 732 1442 660 1442 c 0,66,67
 519 1442 519 1442 450.5 1347.5 c 128,-1,68
 382 1253 382 1253 382 1096 c 2,69,-1
 382 0 l 1,70,-1
 164 0 l 1,71,-1
 164 1116 l 2,72,73
 164 1349 164 1349 295.5 1474 c 128,-1,74
 427 1599 427 1599 664 1599 c 0,0,1
EndSplineSet
EndChar

StartChar: ae
Encoding: 230 230 168
Width: 1229
Flags: W
LayerCount: 2
Fore
SplineSet
1026 653 m 1,0,1
 1009 977 1009 977 880 977 c 0,2,3
 802 977 802 977 759 885 c 128,-1,4
 716 793 716 793 709 653 c 1,5,-1
 1026 653 l 1,0,1
352 122 m 0,6,7
 376 122 376 122 400 126 c 128,-1,8
 424 130 424 130 441.5 135 c 128,-1,9
 459 140 459 140 483 151 c 128,-1,10
 507 162 507 162 519 168.5 c 128,-1,11
 531 175 531 175 557 189.5 c 128,-1,12
 583 204 583 204 593 210 c 1,13,14
 556 311 556 311 543 452 c 1,15,-1
 499 452 l 2,16,17
 457 452 457 452 427.5 450.5 c 128,-1,18
 398 449 398 449 357.5 440 c 128,-1,19
 317 431 317 431 292.5 415.5 c 128,-1,20
 268 400 268 400 250 369.5 c 128,-1,21
 232 339 232 339 232 297 c 0,22,23
 232 216 232 216 261.5 169 c 128,-1,24
 291 122 291 122 352 122 c 0,6,7
1148 98 m 1,25,26
 1033 -25 1033 -25 865 -25 c 0,27,28
 737 -25 737 -25 653 94 c 1,29,30
 649 92 649 92 607.5 67 c 128,-1,31
 566 42 566 42 556 37 c 128,-1,32
 546 32 546 32 510.5 14.5 c 128,-1,33
 475 -3 475 -3 455.5 -8 c 128,-1,34
 436 -13 436 -13 404.5 -19 c 128,-1,35
 373 -25 373 -25 343 -25 c 0,36,37
 226 -25 226 -25 140.5 59.5 c 128,-1,38
 55 144 55 144 55 280 c 0,39,40
 55 339 55 339 68 386 c 128,-1,41
 81 433 81 433 103 465.5 c 128,-1,42
 125 498 125 498 160.5 522 c 128,-1,43
 196 546 196 546 233 559.5 c 128,-1,44
 270 573 270 573 320.5 581 c 128,-1,45
 371 589 371 589 417 591.5 c 128,-1,46
 463 594 463 594 522 594 c 2,47,-1
 537 594 l 1,48,-1
 537 786 l 2,49,50
 537 880 537 880 496 924.5 c 128,-1,51
 455 969 455 969 369 969 c 0,52,53
 233 969 233 969 145 894 c 1,54,-1
 101 1053 l 1,55,56
 214 1130 214 1130 378 1130 c 0,57,58
 574 1130 574 1130 644 988 c 1,59,60
 738 1130 738 1130 880 1130 c 0,61,62
 972 1130 972 1130 1039 1054.5 c 128,-1,63
 1106 979 1106 979 1138 856.5 c 128,-1,64
 1170 734 1170 734 1170 581 c 1,65,-1
 1168 520 l 1,66,-1
 703 520 l 1,67,68
 709 344 709 344 753.5 233 c 128,-1,69
 798 122 798 122 878 122 c 0,70,71
 978 122 978 122 1068 222 c 1,72,-1
 1148 98 l 1,25,26
EndSplineSet
EndChar

StartChar: eth
Encoding: 240 240 178
Width: 1229
Flags: W
LayerCount: 2
Fore
SplineSet
673 129 m 0,0,1
 767 129 767 129 838.5 163.5 c 128,-1,2
 910 198 910 198 953.5 260.5 c 128,-1,3
 997 323 997 323 1018.5 404 c 128,-1,4
 1040 485 1040 485 1040 583 c 0,5,6
 1040 655 1040 655 975.5 712 c 128,-1,7
 911 769 911 769 826.5 795.5 c 128,-1,8
 742 822 742 822 662 822 c 0,9,10
 505 822 505 822 418 730 c 128,-1,11
 331 638 331 638 331 480 c 0,12,13
 331 324 331 324 424.5 226.5 c 128,-1,14
 518 129 518 129 673 129 c 0,0,1
1247 743 m 0,15,16
 1247 612 1247 612 1229 500.5 c 128,-1,17
 1211 389 1211 389 1169.5 290.5 c 128,-1,18
 1128 192 1128 192 1064 123.5 c 128,-1,19
 1000 55 1000 55 902.5 15 c 128,-1,20
 805 -25 805 -25 681 -25 c 0,21,22
 556 -25 556 -25 452.5 14.5 c 128,-1,23
 349 54 349 54 280 123 c 128,-1,24
 211 192 211 192 173 285 c 128,-1,25
 135 378 135 378 135 484 c 1,26,-1
 136 485 l 1,27,28
 136 710 136 710 274 842.5 c 128,-1,29
 412 975 412 975 641 975 c 0,30,31
 933 975 933 975 1054 786 c 1,32,33
 1054 977 1054 977 1014 1115 c 1,34,-1
 724 1115 l 1,35,-1
 724 1264 l 1,36,-1
 951 1264 l 1,37,38
 862 1425 862 1425 673 1527 c 1,39,-1
 760 1619 l 1,40,41
 885 1572 885 1572 980.5 1479.5 c 128,-1,42
 1076 1387 1076 1387 1137 1264 c 1,43,-1
 1355 1264 l 1,44,-1
 1355 1115 l 1,45,-1
 1193 1115 l 1,46,47
 1247 948 1247 948 1247 743 c 0,15,16
EndSplineSet
EndChar

StartChar: divide
Encoding: 247 247 185
Width: 1229
Flags: W
LayerCount: 2
Fore
SplineSet
619 948 m 1,0,-1
 619 1175 l 1,1,-1
 858 1175 l 1,2,-1
 858 948 l 1,3,-1
 619 948 l 1,0,-1
619 22 m 1,4,-1
 619 251 l 1,5,-1
 858 251 l 1,6,-1
 858 22 l 1,7,-1
 619 22 l 1,4,-1
152 677 m 1,8,-1
 1311 677 l 1,9,-1
 1311 526 l 1,10,-1
 152 526 l 1,11,-1
 152 677 l 1,8,-1
EndSplineSet
EndChar

StartChar: oslash
Encoding: 248 248 186
Width: 1229
Flags: W
LayerCount: 2
Fore
SplineSet
322 -283 m 1,0,-1
 210 -242 l 1,1,-1
 338 52 l 1,2,3
 231 126 231 126 174.5 257 c 128,-1,4
 118 388 118 388 118 551 c 0,5,6
 118 810 118 810 255.5 970 c 128,-1,7
 393 1130 393 1130 615 1130 c 0,8,9
 713 1130 713 1130 796 1101 c 1,10,-1
 920 1386 l 1,11,-1
 1032 1351 l 1,12,-1
 900 1047 l 1,13,14
 1003 974 1003 974 1056.5 846.5 c 128,-1,15
 1110 719 1110 719 1110 558 c 0,16,17
 1110 297 1110 297 970.5 136 c 128,-1,18
 831 -25 831 -25 607 -25 c 0,19,20
 520 -25 520 -25 445 0 c 1,21,-1
 322 -283 l 1,0,-1
509 147 m 1,22,23
 556 129 556 129 613 129 c 0,24,25
 681 129 681 129 735.5 153 c 128,-1,26
 790 177 790 177 825.5 217 c 128,-1,27
 861 257 861 257 884 312.5 c 128,-1,28
 907 368 907 368 917 427.5 c 128,-1,29
 927 487 927 487 927 553 c 0,30,31
 927 771 927 771 829 884 c 1,32,-1
 509 147 l 1,22,23
409 213 m 1,33,-1
 732 955 l 1,34,35
 679 977 679 977 613 977 c 0,36,37
 531 977 531 977 468.5 940 c 128,-1,38
 406 903 406 903 371 840.5 c 128,-1,39
 336 778 336 778 318.5 704.5 c 128,-1,40
 301 631 301 631 301 550 c 0,41,42
 301 449 301 449 327.5 360.5 c 128,-1,43
 354 272 354 272 409 213 c 1,33,-1
EndSplineSet
EndChar

StartChar: thorn
Encoding: 254 254 192
Width: 1229
Flags: W
LayerCount: 2
Fore
SplineSet
1048 565 m 0,0,1
 1048 662 1048 662 1029 738.5 c 128,-1,2
 1010 815 1010 815 969.5 874 c 128,-1,3
 929 933 929 933 860.5 964.5 c 128,-1,4
 792 996 792 996 699 996 c 0,5,6
 602 996 602 996 531.5 961.5 c 128,-1,7
 461 927 461 927 420 863.5 c 128,-1,8
 379 800 379 800 359.5 719 c 128,-1,9
 340 638 340 638 340 536 c 0,10,11
 340 350 340 350 431 234 c 128,-1,12
 522 118 522 118 695 118 c 0,13,14
 785 118 785 118 853.5 153 c 128,-1,15
 922 188 922 188 964 250 c 128,-1,16
 1006 312 1006 312 1027 391.5 c 128,-1,17
 1048 471 1048 471 1048 565 c 0,0,1
342 957 m 1,18,19
 483 1141 483 1141 723 1141 c 0,20,21
 972 1141 972 1141 1109 985.5 c 128,-1,22
 1246 830 1246 830 1246 572 c 1,23,-1
 1245 572 l 1,24,25
 1245 306 1245 306 1100 140.5 c 128,-1,26
 955 -25 955 -25 728 -25 c 0,27,28
 484 -25 484 -25 341 146 c 1,29,-1
 341 -464 l 1,30,-1
 158 -464 l 1,31,-1
 158 1580 l 1,32,-1
 342 1580 l 1,33,-1
 342 957 l 1,18,19
EndSplineSet
EndChar

StartChar: Cdotaccent
Encoding: 266 266 204
Width: 1229
Flags: W
LayerCount: 2
Fore
SplineSet
556 1795 m 1,0,-1
 733 1795 l 1,1,-1
 733 1618 l 1,2,-1
 556 1618 l 1,3,-1
 556 1795 l 1,0,-1
1128 1391 m 1,4,-1
 1062 1260 l 1,5,6
 929 1363 929 1363 760 1363 c 0,7,8
 619 1363 619 1363 517.5 1276 c 128,-1,9
 416 1189 416 1189 368 1052 c 128,-1,10
 320 915 320 915 320 748 c 0,11,12
 320 575 320 575 371 436 c 128,-1,13
 422 297 422 297 522.5 213.5 c 128,-1,14
 623 130 623 130 757 130 c 0,15,16
 932 130 932 130 1064 238 c 1,17,-1
 1129 97 l 1,18,19
 989 -25 989 -25 734 -25 c 0,20,21
 551 -25 551 -25 411.5 75.5 c 128,-1,22
 272 176 272 176 198 351.5 c 128,-1,23
 124 527 124 527 124 750 c 0,24,25
 124 922 124 922 171 1066.5 c 128,-1,26
 218 1211 218 1211 299.5 1309 c 128,-1,27
 381 1407 381 1407 493 1461.5 c 128,-1,28
 605 1516 605 1516 734 1516 c 0,29,30
 983 1516 983 1516 1128 1391 c 1,4,-1
EndSplineSet
EndChar

StartChar: cdotaccent
Encoding: 267 267 205
Width: 1229
Flags: W
LayerCount: 2
Fore
SplineSet
504 1409 m 1,0,-1
 681 1409 l 1,1,-1
 681 1232 l 1,2,-1
 504 1232 l 1,3,-1
 504 1409 l 1,0,-1
1002 72 m 1,4,5
 950 24 950 24 870 -0.5 c 128,-1,6
 790 -25 790 -25 703 -25 c 0,7,8
 579 -25 579 -25 477 22.5 c 128,-1,9
 375 70 375 70 309.5 150.5 c 128,-1,10
 244 231 244 231 208.5 335 c 128,-1,11
 173 439 173 439 173 555 c 0,12,13
 173 708 173 708 235.5 838 c 128,-1,14
 298 968 298 968 420 1049 c 128,-1,15
 542 1130 542 1130 700 1130 c 0,16,17
 795 1130 795 1130 873.5 1105 c 128,-1,18
 952 1080 952 1080 999 1035 c 1,19,-1
 953 913 l 1,20,21
 838 990 838 990 698 990 c 0,22,23
 548 990 548 990 452.5 866 c 128,-1,24
 357 742 357 742 357 551 c 0,25,26
 357 359 357 359 452.5 237 c 128,-1,27
 548 115 548 115 711 115 c 0,28,29
 845 115 845 115 958 195 c 1,30,-1
 1002 72 l 1,4,5
EndSplineSet
EndChar

StartChar: Edotaccent
Encoding: 278 278 214
Width: 1229
Flags: W
LayerCount: 2
Fore
SplineSet
574 1815 m 1,0,-1
 751 1815 l 1,1,-1
 751 1638 l 1,2,-1
 574 1638 l 1,3,-1
 574 1815 l 1,0,-1
404 684 m 1,4,-1
 404 146 l 1,5,-1
 1108 146 l 1,6,-1
 1093 0 l 1,7,-1
 217 0 l 1,8,-1
 217 1491 l 1,9,-1
 1075 1491 l 1,10,-1
 1059 1345 l 1,11,-1
 404 1345 l 1,12,-1
 404 843 l 1,13,-1
 1026 843 l 1,14,-1
 1026 684 l 1,15,-1
 404 684 l 1,4,-1
EndSplineSet
EndChar

StartChar: edotaccent
Encoding: 279 279 215
Width: 1229
Flags: W
LayerCount: 2
Fore
SplineSet
534 1430 m 1,0,-1
 711 1430 l 1,1,-1
 711 1253 l 1,2,-1
 534 1253 l 1,3,-1
 534 1430 l 1,0,-1
183 555 m 0,4,5
 183 713 183 713 234.5 842.5 c 128,-1,6
 286 972 286 972 388.5 1051.5 c 128,-1,7
 491 1131 491 1131 628 1131 c 0,8,9
 736 1131 736 1131 820.5 1087.5 c 128,-1,10
 905 1044 905 1044 957 967.5 c 128,-1,11
 1009 891 1009 891 1035.5 793 c 128,-1,12
 1062 695 1062 695 1062 581 c 2,13,-1
 1062 520 l 1,14,-1
 367 520 l 1,15,16
 370 436 370 436 390.5 365 c 128,-1,17
 411 294 411 294 449 237 c 128,-1,18
 487 180 487 180 549 147.5 c 128,-1,19
 611 115 611 115 691 115 c 0,20,21
 844 115 844 115 980 229 c 1,22,-1
 1040 105 l 1,23,24
 910 -25 910 -25 685 -25 c 0,25,26
 524 -25 524 -25 409 51.5 c 128,-1,27
 294 128 294 128 238.5 257.5 c 128,-1,28
 183 387 183 387 183 555 c 0,4,5
888 653 m 1,29,30
 868 990 868 990 652 990 c 0,31,32
 594 990 594 990 549 971.5 c 128,-1,33
 504 953 504 953 474 923 c 128,-1,34
 444 893 444 893 423 848 c 128,-1,35
 402 803 402 803 390.5 756.5 c 128,-1,36
 379 710 379 710 373 653 c 1,37,-1
 888 653 l 1,29,30
EndSplineSet
EndChar

StartChar: Gdotaccent
Encoding: 288 288 224
Width: 1229
Flags: W
LayerCount: 2
Fore
SplineSet
539 1815 m 1,0,-1
 716 1815 l 1,1,-1
 716 1638 l 1,2,-1
 539 1638 l 1,3,-1
 539 1815 l 1,0,-1
1049 1255 m 1,4,5
 930 1363 930 1363 734 1363 c 0,6,7
 631 1363 631 1363 547 1311 c 128,-1,8
 463 1259 463 1259 411 1172 c 128,-1,9
 359 1085 359 1085 331 976 c 128,-1,10
 303 867 303 867 303 748 c 0,11,12
 303 623 303 623 327.5 513.5 c 128,-1,13
 352 404 352 404 399.5 317 c 128,-1,14
 447 230 447 230 525 180 c 128,-1,15
 603 130 603 130 704 130 c 0,16,17
 784 130 784 130 844 152.5 c 128,-1,18
 904 175 904 175 975 217 c 1,19,-1
 975 625 l 1,20,-1
 644 625 l 1,21,-1
 644 778 l 1,22,-1
 1148 778 l 1,23,-1
 1148 132 l 1,24,25
 1031 57 1031 57 926 16 c 128,-1,26
 821 -25 821 -25 686 -25 c 0,27,28
 544 -25 544 -25 431.5 36.5 c 128,-1,29
 319 98 319 98 249 205 c 128,-1,30
 179 312 179 312 143 450.5 c 128,-1,31
 107 589 107 589 107 750 c 0,32,33
 107 920 107 920 153.5 1064 c 128,-1,34
 200 1208 200 1208 282 1306.5 c 128,-1,35
 364 1405 364 1405 477 1460 c 128,-1,36
 590 1515 590 1515 720 1515 c 0,37,38
 968 1515 968 1515 1116 1388 c 1,39,-1
 1049 1255 l 1,4,5
EndSplineSet
EndChar

StartChar: gdotaccent
Encoding: 289 289 225
Width: 1229
Flags: W
LayerCount: 2
Fore
SplineSet
514 1429 m 1,0,-1
 691 1429 l 1,1,-1
 691 1252 l 1,2,-1
 514 1252 l 1,3,-1
 514 1429 l 1,0,-1
888 210 m 1,4,5
 854 124 854 124 768 62 c 128,-1,6
 682 0 682 0 571 0 c 0,7,8
 470 0 470 0 385.5 44.5 c 128,-1,9
 301 89 301 89 244.5 164.5 c 128,-1,10
 188 240 188 240 157 341.5 c 128,-1,11
 126 443 126 443 126 556 c 0,12,13
 126 655 126 655 142.5 740.5 c 128,-1,14
 159 826 159 826 194.5 898 c 128,-1,15
 230 970 230 970 282.5 1021.5 c 128,-1,16
 335 1073 335 1073 410 1101.5 c 128,-1,17
 485 1130 485 1130 577 1130 c 0,18,19
 777 1130 777 1130 888 948 c 1,20,-1
 894 1097 l 1,21,-1
 1079 1097 l 1,22,23
 1070 852 1070 852 1070 446 c 2,24,-1
 1070 152 l 2,25,26
 1070 31 1070 31 1055.5 -57 c 128,-1,27
 1041 -145 1041 -145 1006 -215 c 128,-1,28
 971 -285 971 -285 916.5 -330.5 c 128,-1,29
 862 -376 862 -376 776.5 -406 c 128,-1,30
 691 -436 691 -436 581.5 -448.5 c 128,-1,31
 472 -461 472 -461 322 -461 c 1,32,-1
 307 -321 l 1,33,34
 419 -321 419 -321 497.5 -314 c 128,-1,35
 576 -307 576 -307 645 -288 c 128,-1,36
 714 -269 714 -269 757 -237 c 128,-1,37
 800 -205 800 -205 831 -153.5 c 128,-1,38
 862 -102 862 -102 875 -31 c 128,-1,39
 888 40 888 40 888 137 c 2,40,-1
 888 210 l 1,4,5
597 990 m 0,41,42
 529 990 529 990 477 966.5 c 128,-1,43
 425 943 425 943 393.5 904 c 128,-1,44
 362 865 362 865 342.5 807 c 128,-1,45
 323 749 323 749 316 687.5 c 128,-1,46
 309 626 309 626 309 550 c 0,47,48
 309 490 309 490 317.5 436.5 c 128,-1,49
 326 383 326 383 347 332 c 128,-1,50
 368 281 368 281 399 244 c 128,-1,51
 430 207 430 207 479 184.5 c 128,-1,52
 528 162 528 162 589 162 c 0,53,54
 657 162 657 162 710 184.5 c 128,-1,55
 763 207 763 207 796 244 c 128,-1,56
 829 281 829 281 850 333.5 c 128,-1,57
 871 386 871 386 879.5 440 c 128,-1,58
 888 494 888 494 888 556 c 0,59,60
 888 629 888 629 880.5 689 c 128,-1,61
 873 749 873 749 853 806.5 c 128,-1,62
 833 864 833 864 801.5 903.5 c 128,-1,63
 770 943 770 943 718 966.5 c 128,-1,64
 666 990 666 990 597 990 c 0,41,42
EndSplineSet
EndChar

StartChar: Gcommaaccent
Encoding: 290 290 226
Width: 1229
Flags: W
LayerCount: 2
Fore
SplineSet
809 -127 m 1,0,-1
 628 -629 l 1,1,-1
 483 -629 l 1,2,-1
 601 -127 l 1,3,-1
 809 -127 l 1,0,-1
1049 1255 m 1,4,5
 930 1363 930 1363 734 1363 c 0,6,7
 631 1363 631 1363 547 1311 c 128,-1,8
 463 1259 463 1259 411 1172 c 128,-1,9
 359 1085 359 1085 331 976 c 128,-1,10
 303 867 303 867 303 748 c 0,11,12
 303 623 303 623 327.5 513.5 c 128,-1,13
 352 404 352 404 399.5 317 c 128,-1,14
 447 230 447 230 525 180 c 128,-1,15
 603 130 603 130 704 130 c 0,16,17
 784 130 784 130 844 152.5 c 128,-1,18
 904 175 904 175 975 217 c 1,19,-1
 975 625 l 1,20,-1
 644 625 l 1,21,-1
 644 778 l 1,22,-1
 1148 778 l 1,23,-1
 1148 132 l 1,24,25
 1031 57 1031 57 926 16 c 128,-1,26
 821 -25 821 -25 686 -25 c 0,27,28
 544 -25 544 -25 431.5 36.5 c 128,-1,29
 319 98 319 98 249 205 c 128,-1,30
 179 312 179 312 143 450.5 c 128,-1,31
 107 589 107 589 107 750 c 0,32,33
 107 920 107 920 153.5 1064 c 128,-1,34
 200 1208 200 1208 282 1306.5 c 128,-1,35
 364 1405 364 1405 477 1460 c 128,-1,36
 590 1515 590 1515 720 1515 c 0,37,38
 968 1515 968 1515 1116 1388 c 1,39,-1
 1049 1255 l 1,4,5
EndSplineSet
EndChar

StartChar: gcommaaccent
Encoding: 291 291 227
Width: 1229
Flags: W
LayerCount: 2
Fore
SplineSet
429 1249 m 1,0,-1
 610 1752 l 1,1,-1
 756 1752 l 1,2,-1
 637 1249 l 1,3,-1
 429 1249 l 1,0,-1
891 210 m 1,4,5
 858 125 858 125 768 62.5 c 128,-1,6
 678 0 678 0 568 0 c 0,7,8
 456 0 456 0 367.5 44 c 128,-1,9
 279 88 279 88 224 164.5 c 128,-1,10
 169 241 169 241 140 341 c 128,-1,11
 111 441 111 441 111 556 c 0,12,13
 111 722 111 722 160 849 c 128,-1,14
 209 976 209 976 314.5 1053 c 128,-1,15
 420 1130 420 1130 572 1130 c 0,16,17
 780 1130 780 1130 891 948 c 1,18,-1
 897 1097 l 1,19,-1
 1082 1097 l 1,20,21
 1073 852 1073 852 1073 446 c 2,22,-1
 1073 152 l 2,23,24
 1073 12 1073 12 1043 -89.5 c 128,-1,25
 1013 -191 1013 -191 955.5 -259 c 128,-1,26
 898 -327 898 -327 803.5 -367.5 c 128,-1,27
 709 -408 709 -408 591 -424.5 c 128,-1,28
 473 -441 473 -441 310 -441 c 1,29,-1
 310 -274 l 1,30,-1
 317 -274 l 2,31,32
 396 -274 396 -274 436 -273.5 c 128,-1,33
 476 -273 476 -273 540.5 -268.5 c 128,-1,34
 605 -264 605 -264 640 -255 c 128,-1,35
 675 -246 675 -246 720.5 -229.5 c 128,-1,36
 766 -213 766 -213 791.5 -188 c 128,-1,37
 817 -163 817 -163 840.5 -125 c 128,-1,38
 864 -87 864 -87 875 -38 c 0,39,40
 891 30 891 30 891 137 c 2,41,-1
 891 210 l 1,4,5
592 969 m 0,42,43
 294 969 294 969 294 550 c 0,44,45
 294 475 294 475 310 408.5 c 128,-1,46
 326 342 326 342 359 285.5 c 128,-1,47
 392 229 392 229 450 195.5 c 128,-1,48
 508 162 508 162 584 162 c 0,49,50
 668 162 668 162 730 195.5 c 128,-1,51
 792 229 792 229 826 287 c 128,-1,52
 860 345 860 345 875.5 411.5 c 128,-1,53
 891 478 891 478 891 556 c 0,54,55
 891 969 891 969 592 969 c 0,42,43
EndSplineSet
EndChar

StartChar: hbar
Encoding: 295 295 231
Width: 1229
Flags: W
LayerCount: 2
Fore
SplineSet
1044 662 m 2,0,-1
 1044 0 l 1,1,-1
 862 0 l 1,2,-1
 862 639 l 2,3,4
 862 701 862 701 857.5 748.5 c 128,-1,5
 853 796 853 796 840 843.5 c 128,-1,6
 827 891 827 891 804 921.5 c 128,-1,7
 781 952 781 952 742 971 c 128,-1,8
 703 990 703 990 650 990 c 0,9,10
 529 990 529 990 446.5 912.5 c 128,-1,11
 364 835 364 835 364 746 c 2,12,-1
 364 0 l 1,13,-1
 182 0 l 1,14,-1
 182 1284 l 1,15,-1
 4 1284 l 1,16,-1
 4 1430 l 1,17,-1
 182 1430 l 1,18,-1
 182 1545 l 1,19,-1
 364 1565 l 1,20,-1
 364 1430 l 1,21,-1
 638 1430 l 1,22,-1
 638 1284 l 1,23,-1
 364 1284 l 1,24,-1
 364 964 l 1,25,26
 492 1130 492 1130 707 1130 c 0,27,28
 1044 1130 1044 1130 1044 662 c 2,0,-1
EndSplineSet
EndChar

StartChar: Idotaccent
Encoding: 304 304 240
Width: 1229
Flags: W
LayerCount: 2
Fore
SplineSet
526 1795 m 1,0,-1
 703 1795 l 1,1,-1
 703 1618 l 1,2,-1
 526 1618 l 1,3,-1
 526 1795 l 1,0,-1
194 1345 m 1,4,-1
 194 1491 l 1,5,-1
 1035 1491 l 1,6,-1
 1035 1345 l 1,7,-1
 704 1345 l 1,8,-1
 704 146 l 1,9,-1
 1035 146 l 1,10,-1
 1035 0 l 1,11,-1
 194 0 l 1,12,-1
 194 146 l 1,13,-1
 517 146 l 1,14,-1
 517 1345 l 1,15,-1
 194 1345 l 1,4,-1
EndSplineSet
EndChar

StartChar: dotlessi
Encoding: 305 305 241
Width: 1229
Flags: W
LayerCount: 2
Fore
SplineSet
266 953 m 1,0,-1
 266 1097 l 1,1,-1
 788 1097 l 1,2,-1
 788 144 l 1,3,-1
 1185 144 l 1,4,-1
 1185 0 l 1,5,-1
 197 0 l 1,6,-1
 197 144 l 1,7,-1
 606 144 l 1,8,-1
 606 953 l 1,9,-1
 266 953 l 1,0,-1
EndSplineSet
EndChar

StartChar: IJ
Encoding: 306 306 242
Width: 1229
Flags: W
LayerCount: 2
Fore
SplineSet
55 1345 m 1,0,-1
 55 1491 l 1,1,-1
 576 1491 l 1,2,-1
 576 1345 l 1,3,-1
 405 1345 l 1,4,-1
 405 146 l 1,5,-1
 576 146 l 1,6,-1
 576 0 l 1,7,-1
 55 0 l 1,8,-1
 55 146 l 1,9,-1
 218 146 l 1,10,-1
 218 1345 l 1,11,-1
 55 1345 l 1,0,-1
660 0 m 1,12,-1
 659 145 l 1,13,14
 677 142 677 142 715.5 135 c 128,-1,15
 754 128 754 128 781 124.5 c 128,-1,16
 808 121 808 121 830 121 c 0,17,18
 868 121 868 121 894.5 132.5 c 128,-1,19
 921 144 921 144 943 172.5 c 128,-1,20
 965 201 965 201 976 255.5 c 128,-1,21
 987 310 987 310 987 391 c 2,22,-1
 987 1345 l 1,23,-1
 679 1345 l 1,24,-1
 679 1491 l 1,25,-1
 1174 1491 l 1,26,-1
 1174 443 l 2,27,28
 1174 333 1174 333 1160 253 c 128,-1,29
 1146 173 1146 173 1121 121.5 c 128,-1,30
 1096 70 1096 70 1055.5 39.5 c 128,-1,31
 1015 9 1015 9 966.5 -3 c 128,-1,32
 918 -15 918 -15 852 -15 c 0,33,34
 782 -15 782 -15 660 0 c 1,12,-1
EndSplineSet
EndChar

StartChar: ij
Encoding: 307 307 243
Width: 1229
Flags: W
LayerCount: 2
Fore
SplineSet
306 1386 m 2,0,-1
 306 1485 l 2,1,2
 306 1521 306 1521 346 1548.5 c 128,-1,3
 386 1576 386 1576 426.5 1576 c 128,-1,4
 467 1576 467 1576 507.5 1548.5 c 128,-1,5
 548 1521 548 1521 548 1485 c 2,6,-1
 548 1386 l 2,7,8
 548 1350 548 1350 507.5 1322.5 c 128,-1,9
 467 1295 467 1295 426.5 1295 c 128,-1,10
 386 1295 386 1295 346 1322.5 c 128,-1,11
 306 1350 306 1350 306 1386 c 2,0,-1
122 957 m 1,12,-1
 122 1097 l 1,13,-1
 518 1097 l 1,14,-1
 518 140 l 1,15,-1
 762 140 l 1,16,-1
 762 0 l 1,17,-1
 88 0 l 1,18,-1
 88 140 l 1,19,-1
 336 140 l 1,20,-1
 336 957 l 1,21,-1
 122 957 l 1,12,-1
720 -220 m 2,22,23
 769 -220 769 -220 801 -216 c 128,-1,24
 833 -212 833 -212 858 -199 c 128,-1,25
 883 -186 883 -186 896 -167.5 c 128,-1,26
 909 -149 909 -149 918 -113.5 c 128,-1,27
 927 -78 927 -78 929.5 -36.5 c 128,-1,28
 932 5 932 5 932 71 c 2,29,-1
 932 957 l 1,30,-1
 670 957 l 1,31,-1
 670 1097 l 1,32,-1
 1114 1097 l 1,33,-1
 1114 127 l 2,34,35
 1114 64 1114 64 1112.5 24 c 128,-1,36
 1111 -16 1111 -16 1107 -65 c 128,-1,37
 1103 -114 1103 -114 1095 -144.5 c 128,-1,38
 1087 -175 1087 -175 1073.5 -209.5 c 128,-1,39
 1060 -244 1060 -244 1039.5 -264.5 c 128,-1,40
 1019 -285 1019 -285 990 -305.5 c 128,-1,41
 961 -326 961 -326 922.5 -336.5 c 128,-1,42
 884 -347 884 -347 834 -353.5 c 128,-1,43
 784 -360 784 -360 722 -360 c 2,44,-1
 588 -360 l 1,45,-1
 588 -220 l 1,46,-1
 720 -220 l 2,22,23
900 1386 m 2,47,-1
 900 1485 l 2,48,49
 900 1521 900 1521 940 1548.5 c 128,-1,50
 980 1576 980 1576 1020.5 1576 c 128,-1,51
 1061 1576 1061 1576 1101.5 1548.5 c 128,-1,52
 1142 1521 1142 1521 1142 1485 c 2,53,-1
 1142 1386 l 2,54,55
 1142 1350 1142 1350 1101.5 1322.5 c 128,-1,56
 1061 1295 1061 1295 1020.5 1295 c 128,-1,57
 980 1295 980 1295 940 1322.5 c 128,-1,58
 900 1350 900 1350 900 1386 c 2,47,-1
EndSplineSet
EndChar

StartChar: Jcircumflex
Encoding: 308 308 244
Width: 1229
Flags: W
LayerCount: 2
Fore
SplineSet
682 2009 m 1,0,-1
 941 1660 l 1,1,-1
 798 1660 l 1,2,-1
 594 1895 l 1,3,-1
 392 1660 l 1,4,-1
 256 1660 l 1,5,-1
 515 2009 l 1,6,-1
 682 2009 l 1,0,-1
137 134 m 1,7,-1
 350 134 l 2,8,9
 478 134 478 134 526 193 c 128,-1,10
 574 252 574 252 574 391 c 2,11,-1
 574 1328 l 1,12,-1
 229 1328 l 1,13,-1
 229 1491 l 1,14,-1
 1060 1491 l 1,15,-1
 1060 1328 l 1,16,-1
 761 1328 l 1,17,-1
 761 443 l 2,18,19
 761 318 761 318 742.5 233 c 128,-1,20
 724 148 724 148 679.5 88.5 c 128,-1,21
 635 29 635 29 559.5 1.5 c 128,-1,22
 484 -26 484 -26 371 -26 c 2,23,-1
 137 -26 l 1,24,-1
 137 134 l 1,7,-1
EndSplineSet
EndChar

StartChar: jcircumflex
Encoding: 309 309 245
Width: 1229
Flags: W
LayerCount: 2
Fore
SplineSet
553 1615 m 1,0,-1
 812 1266 l 1,1,-1
 669 1266 l 1,2,-1
 465 1501 l 1,3,-1
 263 1266 l 1,4,-1
 127 1266 l 1,5,-1
 386 1615 l 1,6,-1
 553 1615 l 1,0,-1
410 -155 m 2,7,8
 460 -155 460 -155 490.5 -151.5 c 128,-1,9
 521 -148 521 -148 547 -136 c 128,-1,10
 573 -124 573 -124 585.5 -107 c 128,-1,11
 598 -90 598 -90 607 -55.5 c 128,-1,12
 616 -21 616 -21 618.5 20 c 128,-1,13
 621 61 621 61 621 127 c 2,14,-1
 621 953 l 1,15,-1
 136 953 l 1,16,-1
 136 1097 l 1,17,-1
 803 1097 l 1,18,-1
 803 183 l 2,19,20
 803 101 803 101 801 51.5 c 128,-1,21
 799 2 799 2 791 -57 c 128,-1,22
 783 -116 783 -116 767 -150 c 128,-1,23
 751 -184 751 -184 723 -219.5 c 128,-1,24
 695 -255 695 -255 653 -272.5 c 128,-1,25
 611 -290 611 -290 551 -301.5 c 128,-1,26
 491 -313 491 -313 411 -313 c 2,27,-1
 135 -313 l 1,28,-1
 135 -155 l 1,29,-1
 410 -155 l 2,7,8
EndSplineSet
EndChar

StartChar: Kcommaaccent
Encoding: 310 310 246
Width: 1229
Flags: W
LayerCount: 2
Fore
SplineSet
891 -102 m 1,0,-1
 710 -604 l 1,1,-1
 565 -604 l 1,2,-1
 683 -102 l 1,3,-1
 891 -102 l 1,0,-1
927 1491 m 1,4,-1
 1160 1491 l 1,5,-1
 661 823 l 1,6,-1
 1193 0 l 1,7,-1
 955 0 l 1,8,-1
 517 700 l 1,9,-1
 398 561 l 1,10,-1
 398 0 l 1,11,-1
 211 0 l 1,12,-1
 211 1491 l 1,13,-1
 398 1491 l 1,14,-1
 398 773 l 1,15,-1
 927 1491 l 1,4,-1
EndSplineSet
EndChar

StartChar: kcommaaccent
Encoding: 311 311 247
Width: 1229
Flags: W
LayerCount: 2
Fore
SplineSet
839 -152 m 1,0,-1
 658 -655 l 1,1,-1
 512 -655 l 1,2,-1
 631 -152 l 1,3,-1
 839 -152 l 1,0,-1
397 648 m 1,4,-1
 886 1097 l 1,5,-1
 1126 1097 l 1,6,-1
 639 641 l 1,7,-1
 1135 0 l 1,8,-1
 907 0 l 1,9,-1
 509 546 l 1,10,-1
 397 451 l 1,11,-1
 397 0 l 1,12,-1
 215 0 l 1,13,-1
 215 1585 l 1,14,-1
 397 1585 l 1,15,-1
 397 648 l 1,4,-1
EndSplineSet
EndChar

StartChar: kgreenlandic
Encoding: 312 312 248
Width: 1229
Flags: W
LayerCount: 2
Fore
SplineSet
398 604 m 1,0,-1
 914 1113 l 1,1,-1
 1164 1113 l 1,2,-1
 576 555 l 1,3,-1
 1204 0 l 1,4,-1
 962 0 l 1,5,-1
 397 511 l 1,6,-1
 397 0 l 1,7,-1
 215 0 l 1,8,-1
 215 1114 l 1,9,-1
 398 1114 l 1,10,-1
 398 604 l 1,0,-1
EndSplineSet
EndChar

StartChar: Lcommaaccent
Encoding: 315 315 251
Width: 1229
Flags: W
LayerCount: 2
Fore
SplineSet
844 -102 m 1,0,-1
 663 -604 l 1,1,-1
 518 -604 l 1,2,-1
 636 -102 l 1,3,-1
 844 -102 l 1,0,-1
490 146 m 1,4,-1
 1066 146 l 1,5,-1
 1056 0 l 1,6,-1
 303 0 l 1,7,-1
 303 1491 l 1,8,-1
 490 1491 l 1,9,-1
 490 146 l 1,4,-1
EndSplineSet
EndChar

StartChar: lcommaaccent
Encoding: 316 316 252
Width: 1229
Flags: W
LayerCount: 2
Fore
SplineSet
819 -102 m 1,0,-1
 638 -604 l 1,1,-1
 493 -604 l 1,2,-1
 611 -102 l 1,3,-1
 819 -102 l 1,0,-1
1039 0 m 1,4,-1
 894 0 l 2,5,6
 800 0 800 0 733 8.5 c 128,-1,7
 666 17 666 17 618 40 c 128,-1,8
 570 63 570 63 541.5 93 c 128,-1,9
 513 123 513 123 496 176 c 128,-1,10
 479 229 479 229 472.5 287 c 128,-1,11
 466 345 466 345 465 433 c 1,12,-1
 465 1425 l 1,13,-1
 137 1425 l 1,14,-1
 137 1565 l 1,15,-1
 647 1565 l 1,16,-1
 647 442 l 2,17,18
 647 374 647 374 649 333.5 c 128,-1,19
 651 293 651 293 660 254.5 c 128,-1,20
 669 216 669 216 684 197.5 c 128,-1,21
 699 179 699 179 727 164 c 128,-1,22
 755 149 755 149 792.5 144.5 c 128,-1,23
 830 140 830 140 887 140 c 2,24,-1
 1048 140 l 1,25,-1
 1039 0 l 1,4,-1
EndSplineSet
EndChar

StartChar: ldot
Encoding: 320 320 256
Width: 1229
Flags: W
LayerCount: 2
Fore
SplineSet
1716 557 m 1,0,-1
 1716 785 l 1,1,-1
 1957 785 l 1,2,-1
 1957 557 l 1,3,-1
 1716 557 l 1,0,-1
195 1433 m 1,4,-1
 195 1585 l 1,5,-1
 788 1585 l 1,6,-1
 788 144 l 1,7,-1
 1259 144 l 1,8,-1
 1259 0 l 1,9,-1
 125 0 l 1,10,-1
 125 144 l 1,11,-1
 606 144 l 1,12,-1
 606 1433 l 1,13,-1
 195 1433 l 1,4,-1
EndSplineSet
EndChar

StartChar: Lslash
Encoding: 321 321 257
Width: 1229
Flags: W
LayerCount: 2
Fore
SplineSet
420 163 m 1,0,-1
 1129 163 l 1,1,-1
 1129 0 l 1,2,-1
 233 0 l 1,3,-1
 233 639 l 1,4,-1
 11 531 l 1,5,-1
 11 680 l 1,6,-1
 233 788 l 1,7,-1
 233 1491 l 1,8,-1
 420 1491 l 1,9,-1
 420 880 l 1,10,-1
 830 1080 l 1,11,-1
 830 931 l 1,12,-1
 420 731 l 1,13,-1
 420 163 l 1,0,-1
EndSplineSet
EndChar

StartChar: lslash
Encoding: 322 322 258
Width: 1229
Flags: W
LayerCount: 2
Fore
SplineSet
195 1433 m 1,0,-1
 195 1585 l 1,1,-1
 788 1585 l 1,2,-1
 788 916 l 1,3,-1
 1124 1080 l 1,4,-1
 1124 931 l 1,5,-1
 788 767 l 1,6,-1
 788 144 l 1,7,-1
 1259 144 l 1,8,-1
 1259 0 l 1,9,-1
 125 0 l 1,10,-1
 125 144 l 1,11,-1
 606 144 l 1,12,-1
 606 678 l 1,13,-1
 305 531 l 1,14,-1
 305 680 l 1,15,-1
 606 827 l 1,16,-1
 606 1433 l 1,17,-1
 195 1433 l 1,0,-1
EndSplineSet
EndChar

StartChar: Ncommaaccent
Encoding: 325 325 261
Width: 1229
Flags: W
LayerCount: 2
Fore
SplineSet
777 -102 m 1,0,-1
 596 -604 l 1,1,-1
 451 -604 l 1,2,-1
 569 -102 l 1,3,-1
 777 -102 l 1,0,-1
1078 0 m 1,4,-1
 858 0 l 1,5,-1
 320 1206 l 1,6,-1
 320 0 l 1,7,-1
 150 0 l 1,8,-1
 150 1491 l 1,9,-1
 365 1491 l 1,10,-1
 911 289 l 1,11,-1
 911 1491 l 1,12,-1
 1078 1491 l 1,13,-1
 1078 0 l 1,4,-1
EndSplineSet
EndChar

StartChar: ncommaaccent
Encoding: 326 326 262
Width: 1229
Flags: W
LayerCount: 2
Fore
SplineSet
799 -102 m 1,0,-1
 618 -604 l 1,1,-1
 473 -604 l 1,2,-1
 591 -102 l 1,3,-1
 799 -102 l 1,0,-1
713 1130 m 0,4,5
 1054 1130 1054 1130 1054 698 c 2,6,-1
 1054 0 l 1,7,-1
 872 0 l 1,8,-1
 872 650 l 1,9,-1
 872 676 l 2,10,11
 872 710 872 710 871.5 731 c 128,-1,12
 871 752 871 752 869 782.5 c 128,-1,13
 867 813 867 813 862.5 832 c 128,-1,14
 858 851 858 851 850.5 875 c 128,-1,15
 843 899 843 899 831.5 914 c 128,-1,16
 820 929 820 929 803.5 945 c 128,-1,17
 787 961 787 961 765 970 c 128,-1,18
 743 979 743 979 714 984.5 c 128,-1,19
 685 990 685 990 649 990 c 0,20,21
 540 990 540 990 459 922 c 128,-1,22
 378 854 378 854 378 742 c 2,23,-1
 378 0 l 1,24,-1
 196 0 l 1,25,-1
 196 1097 l 1,26,-1
 363 1097 l 1,27,-1
 373 978 l 1,28,29
 482 1130 482 1130 713 1130 c 0,4,5
EndSplineSet
EndChar

StartChar: Eng
Encoding: 330 330 265
Width: 1229
Flags: W
LayerCount: 2
Fore
SplineSet
715 1518 m 0,0,1
 896 1519 896 1519 997.5 1393 c 128,-1,2
 1099 1267 1099 1267 1099 1009 c 2,3,-1
 1099 13 l 2,4,5
 1099 -108 1099 -108 1078.5 -193 c 128,-1,6
 1058 -278 1058 -278 1010 -339 c 128,-1,7
 962 -400 962 -400 881 -429 c 128,-1,8
 800 -458 800 -458 682 -458 c 0,9,10
 636 -458 636 -458 552 -451 c 128,-1,11
 468 -444 468 -444 406 -437 c 2,12,-1
 345 -430 l 1,13,-1
 334 -268 l 1,14,15
 592 -299 592 -299 706 -299 c 0,16,17
 808 -299 808 -299 860 -233 c 128,-1,18
 912 -167 912 -167 912 -39 c 2,19,-1
 912 1003 l 2,20,21
 912 1192 912 1192 858.5 1277.5 c 128,-1,22
 805 1363 805 1363 660 1363 c 0,23,24
 585 1363 585 1363 523 1341.5 c 128,-1,25
 461 1320 461 1320 414.5 1277.5 c 128,-1,26
 368 1235 368 1235 342 1167 c 128,-1,27
 316 1099 316 1099 316 1011 c 2,28,-1
 316 2 l 1,29,-1
 129 2 l 1,30,-1
 129 1491 l 1,31,-1
 303 1491 l 1,32,-1
 316 1342 l 1,33,34
 462 1517 462 1517 715 1518 c 0,0,1
EndSplineSet
EndChar

StartChar: eng
Encoding: 331 331 266
Width: 1229
Flags: W
LayerCount: 2
Fore
SplineSet
713 1130 m 0,0,1
 1054 1130 1054 1130 1054 698 c 2,2,-1
 1053 56 l 2,3,4
 1053 -26 1053 -26 1051 -75 c 128,-1,5
 1049 -124 1049 -124 1041 -182.5 c 128,-1,6
 1033 -241 1033 -241 1017 -273.5 c 128,-1,7
 1001 -306 1001 -306 973 -341 c 128,-1,8
 945 -376 945 -376 903 -392.5 c 128,-1,9
 861 -409 861 -409 801 -420 c 128,-1,10
 741 -431 741 -431 661 -431 c 2,11,-1
 398 -431 l 1,12,-1
 398 -291 l 1,13,-1
 660 -291 l 2,14,15
 709 -291 709 -291 740.5 -287 c 128,-1,16
 772 -283 772 -283 797 -270 c 128,-1,17
 822 -257 822 -257 835.5 -238.5 c 128,-1,18
 849 -220 849 -220 857.5 -184.5 c 128,-1,19
 866 -149 866 -149 868.5 -107.5 c 128,-1,20
 871 -66 871 -66 871 0 c 2,21,-1
 872 676 l 2,22,23
 872 710 872 710 871.5 731 c 128,-1,24
 871 752 871 752 869 782.5 c 128,-1,25
 867 813 867 813 862.5 832 c 128,-1,26
 858 851 858 851 850.5 875 c 128,-1,27
 843 899 843 899 831.5 914 c 128,-1,28
 820 929 820 929 803.5 945 c 128,-1,29
 787 961 787 961 765 970 c 128,-1,30
 743 979 743 979 714 984.5 c 128,-1,31
 685 990 685 990 649 990 c 0,32,33
 540 990 540 990 459 922 c 128,-1,34
 378 854 378 854 378 742 c 2,35,-1
 378 0 l 1,36,-1
 196 0 l 1,37,-1
 196 1097 l 1,38,-1
 363 1097 l 1,39,-1
 373 978 l 1,40,41
 482 1130 482 1130 713 1130 c 0,0,1
EndSplineSet
EndChar

StartChar: OE
Encoding: 338 338 273
Width: 1229
Flags: W
LayerCount: 2
Fore
SplineSet
243 791 m 0,0,1
 243 695 243 695 251 609.5 c 128,-1,2
 259 524 259 524 279.5 439.5 c 128,-1,3
 300 355 300 355 332.5 295 c 128,-1,4
 365 235 365 235 418 197.5 c 128,-1,5
 471 160 471 160 539 160 c 2,6,-1
 583 160 l 1,7,-1
 583 1389 l 1,8,-1
 539 1389 l 2,9,10
 243 1389 243 1389 243 791 c 0,0,1
806 717 m 1,11,-1
 806 171 l 1,12,-1
 1133 171 l 1,13,-1
 1116 0 l 1,14,-1
 539 0 l 2,15,16
 425 0 425 0 335 44.5 c 128,-1,17
 245 89 245 89 187 163 c 128,-1,18
 129 237 129 237 90.5 340.5 c 128,-1,19
 52 444 52 444 36 554.5 c 128,-1,20
 20 665 20 665 20 789 c 0,21,22
 20 951 20 951 51.5 1089 c 128,-1,23
 83 1227 83 1227 144.5 1335.5 c 128,-1,24
 206 1444 206 1444 307 1506 c 128,-1,25
 408 1568 408 1568 539 1568 c 2,26,-1
 1097 1568 l 1,27,-1
 1081 1397 l 1,28,-1
 806 1397 l 1,29,-1
 806 889 l 1,30,-1
 1047 889 l 1,31,-1
 1047 717 l 1,32,-1
 806 717 l 1,11,-1
EndSplineSet
EndChar

StartChar: oe
Encoding: 339 339 274
Width: 1229
Flags: W
LayerCount: 2
Fore
SplineSet
1026 653 m 1,0,1
 1023 744 1023 744 1010 813 c 128,-1,2
 997 882 997 882 966.5 929.5 c 128,-1,3
 936 977 936 977 890 977 c 0,4,5
 821 977 821 977 783.5 885.5 c 128,-1,6
 746 794 746 794 739 653 c 1,7,-1
 1026 653 l 1,0,1
1148 98 m 1,8,9
 1038 -25 1038 -25 875 -25 c 0,10,11
 730 -25 730 -25 654 156 c 1,12,13
 567 -25 567 -25 419 -25 c 0,14,15
 309 -25 309 -25 228.5 53 c 128,-1,16
 148 131 148 131 109 260 c 128,-1,17
 70 389 70 389 70 551 c 0,18,19
 70 810 70 810 169 970 c 128,-1,20
 268 1130 268 1130 427 1130 c 0,21,22
 577 1130 577 1130 661 951 c 1,23,24
 744 1130 744 1130 890 1130 c 0,25,26
 978 1130 978 1130 1043 1054.5 c 128,-1,27
 1108 979 1108 979 1139 856 c 128,-1,28
 1170 733 1170 733 1170 581 c 1,29,-1
 1169 520 l 1,30,-1
 733 520 l 1,31,32
 739 344 739 344 777.5 236.5 c 128,-1,33
 816 129 816 129 888 129 c 0,34,35
 988 129 988 129 1068 222 c 1,36,-1
 1148 98 l 1,8,9
253 550 m 128,-1,38
 253 468 253 468 262 396 c 128,-1,39
 271 324 271 324 290 262.5 c 128,-1,40
 309 201 309 201 344 165 c 128,-1,41
 379 129 379 129 425 129 c 0,42,43
 469 129 469 129 502 164.5 c 128,-1,44
 535 200 535 200 553 261.5 c 128,-1,45
 571 323 571 323 580 397.5 c 128,-1,46
 589 472 589 472 589 559 c 0,47,48
 589 641 589 641 579.5 713.5 c 128,-1,49
 570 786 570 786 551.5 846.5 c 128,-1,50
 533 907 533 907 500.5 942 c 128,-1,51
 468 977 468 977 425 977 c 0,52,53
 379 977 379 977 344 940 c 128,-1,54
 309 903 309 903 290 840 c 128,-1,55
 271 777 271 777 262 704.5 c 128,-1,37
 253 632 253 632 253 550 c 128,-1,38
EndSplineSet
EndChar

StartChar: Rcommaaccent
Encoding: 342 342 277
Width: 1229
Flags: W
LayerCount: 2
Fore
SplineSet
848 -122 m 1,0,-1
 668 -624 l 1,1,-1
 522 -624 l 1,2,-1
 640 -122 l 1,3,-1
 848 -122 l 1,0,-1
567 824 m 2,4,-1
 373 824 l 1,5,-1
 373 1345 l 1,6,-1
 563 1345 l 2,7,8
 637 1345 637 1345 698.5 1332.5 c 128,-1,9
 760 1320 760 1320 811 1292.5 c 128,-1,10
 862 1265 862 1265 891 1215.5 c 128,-1,11
 920 1166 920 1166 920 1098 c 0,12,13
 920 949 920 949 828.5 886.5 c 128,-1,14
 737 824 737 824 567 824 c 2,4,-1
1115 1093 m 0,15,16
 1115 1177 1115 1177 1092.5 1242 c 128,-1,17
 1070 1307 1070 1307 1025.5 1350 c 128,-1,18
 981 1393 981 1393 926 1421.5 c 128,-1,19
 871 1450 871 1450 794.5 1465 c 128,-1,20
 718 1480 718 1480 644 1485.5 c 128,-1,21
 570 1491 570 1491 476 1491 c 2,22,-1
 186 1491 l 1,23,-1
 186 0 l 1,24,-1
 373 0 l 1,25,-1
 373 662 l 1,26,-1
 460 662 l 1,27,-1
 601 665 l 1,28,29
 632 622 632 622 659 582 c 128,-1,30
 686 542 686 542 712 499 c 128,-1,31
 738 456 738 456 755.5 428 c 128,-1,32
 773 400 773 400 797.5 353 c 128,-1,33
 822 306 822 306 832.5 286.5 c 128,-1,34
 843 267 843 267 868.5 214 c 128,-1,35
 894 161 894 161 900 148 c 128,-1,36
 906 135 906 135 934.5 72.5 c 128,-1,37
 963 10 963 10 968 0 c 1,38,-1
 1185 0 l 1,39,40
 1082 227 1082 227 992 391.5 c 128,-1,41
 902 556 902 556 784 707 c 1,42,43
 934 740 934 740 1024.5 837.5 c 128,-1,44
 1115 935 1115 935 1115 1093 c 0,15,16
EndSplineSet
EndChar

StartChar: rcommaaccent
Encoding: 343 343 278
Width: 1229
Flags: W
LayerCount: 2
Fore
SplineSet
759 -122 m 1,0,-1
 578 -624 l 1,1,-1
 433 -624 l 1,2,-1
 551 -122 l 1,3,-1
 759 -122 l 1,0,-1
543 0 m 1,4,-1
 361 0 l 1,5,-1
 361 1097 l 1,6,-1
 510 1097 l 1,7,-1
 525 894 l 1,8,9
 592 1010 592 1010 701 1070 c 128,-1,10
 810 1130 810 1130 948 1130 c 2,11,-1
 1036 1130 l 1,12,-1
 1036 961 l 1,13,-1
 922 961 l 2,14,15
 747 961 747 961 645 873.5 c 128,-1,16
 543 786 543 786 543 610 c 2,17,-1
 543 0 l 1,4,-1
EndSplineSet
EndChar

StartChar: Tbar
Encoding: 358 358 293
Width: 1229
Flags: W
LayerCount: 2
Fore
SplineSet
275 561 m 1,0,-1
 275 701 l 1,1,-1
 518 701 l 1,2,-1
 518 1345 l 1,3,-1
 94 1345 l 1,4,-1
 94 1491 l 1,5,-1
 1129 1491 l 1,6,-1
 1129 1345 l 1,7,-1
 705 1345 l 1,8,-1
 705 701 l 1,9,-1
 954 701 l 1,10,-1
 954 561 l 1,11,-1
 705 561 l 1,12,-1
 705 0 l 1,13,-1
 518 0 l 1,14,-1
 518 561 l 1,15,-1
 275 561 l 1,0,-1
EndSplineSet
EndChar

StartChar: tbar
Encoding: 359 359 294
Width: 1229
Flags: W
LayerCount: 2
Fore
SplineSet
200 580 m 1,0,-1
 200 720 l 1,1,-1
 401 720 l 1,2,-1
 401 957 l 1,3,-1
 91 957 l 1,4,-1
 111 1097 l 1,5,-1
 401 1097 l 1,6,-1
 401 1475 l 1,7,-1
 583 1529 l 1,8,-1
 583 1097 l 1,9,-1
 1045 1097 l 1,10,-1
 1045 957 l 1,11,-1
 583 957 l 1,12,-1
 583 720 l 1,13,-1
 879 720 l 1,14,-1
 879 580 l 1,15,-1
 583 580 l 1,16,-1
 583 442 l 2,17,18
 583 346 583 346 593.5 290 c 128,-1,19
 604 234 604 234 635.5 199 c 128,-1,20
 667 164 667 164 717 152 c 128,-1,21
 767 140 767 140 853 140 c 2,22,-1
 1054 140 l 1,23,-1
 1044 0 l 1,24,-1
 860 0 l 2,25,26
 760 0 760 0 689.5 10 c 128,-1,27
 619 20 619 20 566.5 45 c 128,-1,28
 514 70 514 70 483 104.5 c 128,-1,29
 452 139 452 139 433 197.5 c 128,-1,30
 414 256 414 256 407.5 323 c 128,-1,31
 401 390 401 390 401 488 c 2,32,-1
 401 580 l 1,33,-1
 200 580 l 1,0,-1
EndSplineSet
EndChar

StartChar: florin
Encoding: 402 402 318
Width: 1229
Flags: W
LayerCount: 2
Fore
SplineSet
1238 1381 m 1,0,1
 1178 1404 1178 1404 1124 1404 c 0,2,3
 1084 1404 1084 1404 1053 1394.5 c 128,-1,4
 1022 1385 1022 1385 1000.5 1371 c 128,-1,5
 979 1357 979 1357 962.5 1331.5 c 128,-1,6
 946 1306 946 1306 937 1283 c 128,-1,7
 928 1260 928 1260 919.5 1224 c 128,-1,8
 911 1188 911 1188 907.5 1161 c 128,-1,9
 904 1134 904 1134 898 1092.5 c 128,-1,10
 892 1051 892 1051 887 1024 c 1,11,-1
 1108 1024 l 1,12,-1
 1098 872 l 1,13,-1
 862 872 l 1,14,-1
 721 130 l 2,15,16
 709 72 709 72 699.5 30.5 c 128,-1,17
 690 -11 690 -11 672.5 -65.5 c 128,-1,18
 655 -120 655 -120 637 -158.5 c 128,-1,19
 619 -197 619 -197 591 -237.5 c 128,-1,20
 563 -278 563 -278 530.5 -303 c 128,-1,21
 498 -328 498 -328 453 -344 c 128,-1,22
 408 -360 408 -360 356 -360 c 0,23,24
 274 -360 274 -360 215 -343 c 1,25,-1
 228 -194 l 1,26,27
 270 -210 270 -210 317 -210 c 0,28,29
 347 -210 347 -210 371.5 -201.5 c 128,-1,30
 396 -193 396 -193 414.5 -173 c 128,-1,31
 433 -153 433 -153 445.5 -136.5 c 128,-1,32
 458 -120 458 -120 470.5 -86 c 128,-1,33
 483 -52 483 -52 488 -35.5 c 128,-1,34
 493 -19 493 -19 503 19 c 0,35,36
 506 31 506 31 508 37 c 0,37,38
 540 153 540 153 567 290.5 c 128,-1,39
 594 428 594 428 625 607.5 c 128,-1,40
 656 787 656 787 672 872 c 1,41,-1
 500 872 l 1,42,-1
 511 1024 l 1,43,-1
 699 1024 l 1,44,45
 727 1231 727 1231 754 1315 c 0,46,47
 808 1481 808 1481 935 1532 c 0,48,49
 1000 1559 1000 1559 1090 1559 c 0,50,51
 1166 1559 1166 1559 1248 1539 c 1,52,-1
 1238 1381 l 1,0,1
EndSplineSet
EndChar

StartChar: Scommaaccent
Encoding: 536 536 319
Width: 1229
Flags: W
LayerCount: 2
Fore
SplineSet
760 -176 m 1,0,-1
 579 -678 l 1,1,-1
 434 -678 l 1,2,-1
 552 -176 l 1,3,-1
 760 -176 l 1,0,-1
212 271 m 1,4,5
 363 148 363 148 593 148 c 0,6,7
 715 148 715 148 779 214 c 128,-1,8
 843 280 843 280 843 404 c 0,9,10
 843 441 843 441 833.5 473 c 128,-1,11
 824 505 824 505 810 529 c 128,-1,12
 796 553 796 553 770.5 576 c 128,-1,13
 745 599 745 599 724 613.5 c 128,-1,14
 703 628 703 628 668.5 645 c 128,-1,15
 634 662 634 662 611.5 671 c 128,-1,16
 589 680 589 680 551.5 695 c 128,-1,17
 514 710 514 710 496 718 c 0,18,19
 434 744 434 744 392.5 764.5 c 128,-1,20
 351 785 351 785 301 821 c 128,-1,21
 251 857 251 857 221 896 c 128,-1,22
 191 935 191 935 170.5 993.5 c 128,-1,23
 150 1052 150 1052 150 1123 c 0,24,25
 150 1310 150 1310 277 1413.5 c 128,-1,26
 404 1517 404 1517 604 1517 c 0,27,28
 848 1517 848 1517 995 1401 c 1,29,-1
 925 1249 l 1,30,31
 802 1345 802 1345 594 1345 c 0,32,33
 483 1345 483 1345 420 1286 c 128,-1,34
 357 1227 357 1227 357 1119 c 0,35,36
 357 1076 357 1076 375 1039 c 128,-1,37
 393 1002 393 1002 418 977.5 c 128,-1,38
 443 953 443 953 484.5 929 c 128,-1,39
 526 905 526 905 557.5 892.5 c 128,-1,40
 589 880 589 880 636.5 861.5 c 128,-1,41
 684 843 684 843 706 833 c 0,42,43
 767 806 767 806 811 782 c 128,-1,44
 855 758 855 758 904 719.5 c 128,-1,45
 953 681 953 681 983.5 637.5 c 128,-1,46
 1014 594 1014 594 1034 531.5 c 128,-1,47
 1054 469 1054 469 1054 395 c 0,48,49
 1054 191 1054 191 928.5 83 c 128,-1,50
 803 -25 803 -25 589 -25 c 0,51,52
 334 -25 334 -25 141 104 c 1,53,-1
 212 271 l 1,4,5
EndSplineSet
EndChar

StartChar: scommaaccent
Encoding: 537 537 320
Width: 1229
Flags: W
LayerCount: 2
Fore
SplineSet
812 -176 m 1,0,-1
 631 -678 l 1,1,-1
 486 -678 l 1,2,-1
 604 -176 l 1,3,-1
 812 -176 l 1,0,-1
621 136 m 0,4,5
 678 136 678 136 721.5 143 c 128,-1,6
 765 150 765 150 804 167.5 c 128,-1,7
 843 185 843 185 863.5 219.5 c 128,-1,8
 884 254 884 254 884 304 c 0,9,10
 884 338 884 338 866.5 366 c 128,-1,11
 849 394 849 394 824.5 410.5 c 128,-1,12
 800 427 800 427 759.5 442.5 c 128,-1,13
 719 458 719 458 689.5 465 c 128,-1,14
 660 472 660 472 614.5 481.5 c 128,-1,15
 569 491 569 491 550 496 c 0,16,17
 493 511 493 511 450 526 c 128,-1,18
 407 541 407 541 360.5 567.5 c 128,-1,19
 314 594 314 594 284.5 626.5 c 128,-1,20
 255 659 255 659 235.5 708.5 c 128,-1,21
 216 758 216 758 216 819 c 0,22,23
 216 897 216 897 250 958 c 128,-1,24
 284 1019 284 1019 342 1055.5 c 128,-1,25
 400 1092 400 1092 473 1111 c 128,-1,26
 546 1130 546 1130 628 1130 c 0,27,28
 881 1130 881 1130 1031 1061 c 1,29,-1
 973 914 l 1,30,31
 836 969 836 969 637 969 c 0,32,33
 547 969 547 969 487 934.5 c 128,-1,34
 427 900 427 900 427 825 c 0,35,36
 427 790 427 790 444.5 761.5 c 128,-1,37
 462 733 462 733 486 716 c 128,-1,38
 510 699 510 699 550 684 c 128,-1,39
 590 669 590 669 620 662 c 128,-1,40
 650 655 650 655 695.5 645 c 128,-1,41
 741 635 741 635 761 630 c 0,42,43
 821 614 821 614 861 600.5 c 128,-1,44
 901 587 901 587 949.5 561.5 c 128,-1,45
 998 536 998 536 1026.5 506 c 128,-1,46
 1055 476 1055 476 1075 427.5 c 128,-1,47
 1095 379 1095 379 1095 319 c 0,48,49
 1095 231 1095 231 1057.5 163.5 c 128,-1,50
 1020 96 1020 96 955.5 55.5 c 128,-1,51
 891 15 891 15 810 -5 c 128,-1,52
 729 -25 729 -25 636 -25 c 0,53,54
 343 -25 343 -25 203 76 c 1,55,-1
 261 231 l 1,56,57
 395 136 395 136 621 136 c 0,4,5
EndSplineSet
EndChar

StartChar: circumflex
Encoding: 710 710 321
Width: 1229
Flags: W
LayerCount: 2
Fore
SplineSet
709 1615 m 1,0,-1
 968 1266 l 1,1,-1
 825 1266 l 1,2,-1
 621 1501 l 1,3,-1
 419 1266 l 1,4,-1
 283 1266 l 1,5,-1
 542 1615 l 1,6,-1
 709 1615 l 1,0,-1
EndSplineSet
EndChar

StartChar: caron
Encoding: 711 711 322
Width: 1229
Flags: W
LayerCount: 2
Fore
SplineSet
444 1614 m 1,0,-1
 632 1379 l 1,1,-1
 822 1614 l 1,2,-1
 993 1614 l 1,3,-1
 720 1266 l 1,4,-1
 555 1266 l 1,5,-1
 283 1614 l 1,6,-1
 444 1614 l 1,0,-1
EndSplineSet
EndChar

StartChar: breve
Encoding: 728 728 323
Width: 1229
Flags: W
LayerCount: 2
Fore
SplineSet
411 1579 m 1,0,1
 437 1438 437 1438 620 1438 c 0,2,3
 707 1438 707 1438 766 1475 c 128,-1,4
 825 1512 825 1512 843 1579 c 1,5,-1
 940 1579 l 1,6,7
 931 1453 931 1453 849.5 1388 c 128,-1,8
 768 1323 768 1323 629 1323 c 0,9,10
 337 1323 337 1323 313 1579 c 1,11,-1
 411 1579 l 1,0,1
EndSplineSet
EndChar

StartChar: dotaccent
Encoding: 729 729 324
Width: 1229
Flags: W
LayerCount: 2
Fore
SplineSet
508 1529 m 1,0,-1
 685 1529 l 1,1,-1
 685 1352 l 1,2,-1
 508 1352 l 1,3,-1
 508 1529 l 1,0,-1
EndSplineSet
EndChar

StartChar: ring
Encoding: 730 730 325
Width: 1229
Flags: W
LayerCount: 2
Fore
SplineSet
852 1455 m 0,0,1
 852 1365 852 1365 784 1306 c 128,-1,2
 716 1247 716 1247 622 1247 c 0,3,4
 524 1247 524 1247 455.5 1305 c 128,-1,5
 387 1363 387 1363 387 1455 c 128,-1,6
 387 1547 387 1547 455 1604 c 128,-1,7
 523 1661 523 1661 621 1661 c 0,8,9
 717 1661 717 1661 784.5 1603.5 c 128,-1,10
 852 1546 852 1546 852 1455 c 0,0,1
632 1568 m 0,11,12
 573 1568 573 1568 535 1538 c 128,-1,13
 497 1508 497 1508 497 1454 c 0,14,15
 497 1407 497 1407 527 1373.5 c 128,-1,16
 557 1340 557 1340 603 1340 c 0,17,18
 663 1340 663 1340 703 1370.5 c 128,-1,19
 743 1401 743 1401 743 1456 c 0,20,21
 743 1501 743 1501 710 1534.5 c 128,-1,22
 677 1568 677 1568 632 1568 c 0,11,12
EndSplineSet
EndChar

StartChar: ogonek
Encoding: 731 731 326
Width: 1229
Flags: W
LayerCount: 2
Fore
SplineSet
414 -244 m 0,0,1
 414 -204 414 -204 430.5 -167.5 c 128,-1,2
 447 -131 447 -131 469 -106.5 c 128,-1,3
 491 -82 491 -82 527.5 -57 c 128,-1,4
 564 -32 564 -32 589.5 -18.5 c 128,-1,5
 615 -5 615 -5 653 13 c 1,6,-1
 795 0 l 1,7,8
 789 -3 789 -3 764.5 -17 c 128,-1,9
 740 -31 740 -31 730.5 -36.5 c 128,-1,10
 721 -42 721 -42 698 -56 c 128,-1,11
 675 -70 675 -70 664 -79 c 128,-1,12
 653 -88 653 -88 635 -102 c 128,-1,13
 617 -116 617 -116 607.5 -127.5 c 128,-1,14
 598 -139 598 -139 588 -153.5 c 128,-1,15
 578 -168 578 -168 573.5 -182.5 c 128,-1,16
 569 -197 569 -197 569 -212 c 0,17,18
 569 -260 569 -260 606 -283 c 128,-1,19
 643 -306 643 -306 699 -306 c 0,20,21
 759 -306 759 -306 850 -271 c 1,22,-1
 850 -392 l 1,23,24
 772 -424 772 -424 687 -424 c 0,25,26
 610 -424 610 -424 552.5 -409.5 c 128,-1,27
 495 -395 495 -395 454.5 -353 c 128,-1,28
 414 -311 414 -311 414 -244 c 0,0,1
EndSplineSet
EndChar

StartChar: tilde
Encoding: 732 732 327
Width: 1229
Flags: W
LayerCount: 2
Fore
SplineSet
1037 1536 m 1,0,1
 1031 1425 1031 1425 975 1357 c 128,-1,2
 919 1289 919 1289 814 1289 c 0,3,4
 767 1289 767 1289 722 1307 c 128,-1,5
 677 1325 677 1325 647.5 1347 c 128,-1,6
 618 1369 618 1369 573.5 1387 c 128,-1,7
 529 1405 529 1405 483 1405 c 0,8,9
 438 1405 438 1405 415.5 1377.5 c 128,-1,10
 393 1350 393 1350 391 1303 c 1,11,-1
 254 1303 l 1,12,13
 256 1417 256 1417 316 1482.5 c 128,-1,14
 376 1548 376 1548 488 1548 c 0,15,16
 536 1548 536 1548 580.5 1529.5 c 128,-1,17
 625 1511 625 1511 654.5 1489.5 c 128,-1,18
 684 1468 684 1468 727.5 1449.5 c 128,-1,19
 771 1431 771 1431 818 1431 c 0,20,21
 891 1431 891 1431 899 1536 c 1,22,-1
 1037 1536 l 1,0,1
EndSplineSet
EndChar

StartChar: hungarumlaut
Encoding: 733 733 328
Width: 1229
Flags: W
LayerCount: 2
Fore
SplineSet
246 1270 m 1,0,-1
 495 1607 l 1,1,-1
 685 1607 l 1,2,-1
 374 1270 l 1,3,-1
 246 1270 l 1,0,-1
539 1270 m 1,4,-1
 793 1607 l 1,5,-1
 983 1607 l 1,6,-1
 670 1270 l 1,7,-1
 539 1270 l 1,4,-1
EndSplineSet
EndChar

StartChar: endash
Encoding: 8211 8211 329
Width: 1229
Flags: W
LayerCount: 2
Fore
SplineSet
184 531 m 1,0,-1
 184 680 l 1,1,-1
 1391 680 l 1,2,-1
 1391 531 l 1,3,-1
 184 531 l 1,0,-1
EndSplineSet
EndChar

StartChar: emdash
Encoding: 8212 8212 330
Width: 1229
Flags: W
LayerCount: 2
Fore
SplineSet
-6 531 m 1,0,-1
 -6 680 l 1,1,-1
 1235 680 l 1,2,-1
 1235 531 l 1,3,-1
 -6 531 l 1,0,-1
EndSplineSet
EndChar

StartChar: afii00208
Encoding: 8213 8213 331
Width: 1229
Flags: W
LayerCount: 2
Fore
SplineSet
323 672 m 1,0,-1
 323 827 l 1,1,-1
 3860 827 l 1,2,-1
 3860 672 l 1,3,-1
 323 672 l 1,0,-1
EndSplineSet
EndChar

StartChar: quoteleft
Encoding: 8216 8216 332
Width: 1229
Flags: W
LayerCount: 2
Fore
SplineSet
446 1110 m 1,0,-1
 617 1588 l 1,1,-1
 762 1588 l 1,2,-1
 647 1110 l 1,3,-1
 446 1110 l 1,0,-1
EndSplineSet
EndChar

StartChar: quoteright
Encoding: 8217 8217 333
Width: 1229
Flags: W
LayerCount: 2
Fore
SplineSet
761 1588 m 1,0,-1
 592 1110 l 1,1,-1
 446 1110 l 1,2,-1
 563 1588 l 1,3,-1
 761 1588 l 1,0,-1
EndSplineSet
EndChar

StartChar: quotesinglbase
Encoding: 8218 8218 334
Width: 1229
Flags: W
LayerCount: 2
Fore
SplineSet
773 218 m 1,0,-1
 604 -258 l 1,1,-1
 457 -258 l 1,2,-1
 574 218 l 1,3,-1
 773 218 l 1,0,-1
EndSplineSet
EndChar

StartChar: quotedblleft
Encoding: 8220 8220 335
Width: 1229
Flags: W
LayerCount: 2
Fore
SplineSet
233 1110 m 1,0,-1
 404 1588 l 1,1,-1
 551 1588 l 1,2,-1
 435 1110 l 1,3,-1
 233 1110 l 1,0,-1
620 1110 m 1,4,-1
 790 1588 l 1,5,-1
 938 1588 l 1,6,-1
 822 1110 l 1,7,-1
 620 1110 l 1,4,-1
EndSplineSet
EndChar

StartChar: quotedblright
Encoding: 8221 8221 336
Width: 1229
Flags: W
LayerCount: 2
Fore
SplineSet
913 1588 m 1,0,-1
 742 1110 l 1,1,-1
 595 1110 l 1,2,-1
 712 1588 l 1,3,-1
 913 1588 l 1,0,-1
550 1588 m 1,4,-1
 380 1110 l 1,5,-1
 233 1110 l 1,6,-1
 349 1588 l 1,7,-1
 550 1588 l 1,4,-1
EndSplineSet
EndChar

StartChar: quotedblbase
Encoding: 8222 8222 337
Width: 1229
Flags: W
LayerCount: 2
Fore
SplineSet
958 218 m 1,0,-1
 787 -258 l 1,1,-1
 641 -258 l 1,2,-1
 755 218 l 1,3,-1
 958 218 l 1,0,-1
561 218 m 1,4,-1
 391 -258 l 1,5,-1
 244 -258 l 1,6,-1
 360 218 l 1,7,-1
 561 218 l 1,4,-1
EndSplineSet
EndChar

StartChar: dagger
Encoding: 8224 8224 338
Width: 1229
Flags: W
LayerCount: 2
Fore
SplineSet
240 1014 m 1,0,-1
 240 1158 l 1,1,-1
 601 1158 l 1,2,-1
 601 1575 l 1,3,-1
 758 1575 l 1,4,-1
 758 1158 l 1,5,-1
 1139 1158 l 1,6,-1
 1139 1014 l 1,7,-1
 743 1014 l 1,8,-1
 743 123 l 1,9,-1
 601 123 l 1,10,-1
 601 1014 l 1,11,-1
 240 1014 l 1,0,-1
EndSplineSet
EndChar

StartChar: daggerdbl
Encoding: 8225 8225 339
Width: 1229
Flags: W
LayerCount: 2
Fore
SplineSet
236 1067 m 1,0,-1
 236 1211 l 1,1,-1
 617 1211 l 1,2,-1
 589 1575 l 1,3,-1
 754 1575 l 1,4,-1
 754 1211 l 1,5,-1
 1135 1211 l 1,6,-1
 1135 1067 l 1,7,-1
 746 1067 l 1,8,-1
 746 610 l 1,9,-1
 1127 610 l 1,10,-1
 1127 472 l 1,11,-1
 746 472 l 1,12,-1
 775 123 l 1,13,-1
 586 123 l 1,14,-1
 610 472 l 1,15,-1
 229 472 l 1,16,-1
 229 610 l 1,17,-1
 610 610 l 1,18,-1
 610 1067 l 1,19,-1
 236 1067 l 1,0,-1
EndSplineSet
EndChar

StartChar: bullet
Encoding: 8226 8226 340
Width: 1229
Flags: W
LayerCount: 2
Fore
SplineSet
1126 760 m 0,0,1
 1126 610 1126 610 1016 514 c 128,-1,2
 906 418 906 418 749 418 c 0,3,4
 588 418 588 418 483.5 520 c 128,-1,5
 379 622 379 622 379 753 c 0,6,7
 379 819 379 819 403.5 876 c 128,-1,8
 428 933 428 933 468 972.5 c 128,-1,9
 508 1012 508 1012 558 1040.5 c 128,-1,10
 608 1069 608 1069 659 1082.5 c 128,-1,11
 710 1096 710 1096 757 1096 c 0,12,13
 838 1096 838 1096 908.5 1066.5 c 128,-1,14
 979 1037 979 1037 1026 989.5 c 128,-1,15
 1073 942 1073 942 1099.5 882 c 128,-1,16
 1126 822 1126 822 1126 760 c 0,0,1
EndSplineSet
EndChar

StartChar: ellipsis
Encoding: 8230 8230 341
Width: 1229
Flags: W
LayerCount: 2
Fore
SplineSet
675 -12 m 1,0,-1
 675 216 l 1,1,-1
 916 216 l 1,2,-1
 916 -12 l 1,3,-1
 675 -12 l 1,0,-1
1274 -12 m 1,4,-1
 1274 216 l 1,5,-1
 1514 216 l 1,6,-1
 1514 -12 l 1,7,-1
 1274 -12 l 1,4,-1
78 -12 m 1,8,-1
 78 216 l 1,9,-1
 319 216 l 1,10,-1
 319 -12 l 1,11,-1
 78 -12 l 1,8,-1
EndSplineSet
EndChar

StartChar: perthousand
Encoding: 8240 8240 342
Width: 1229
Flags: W
LayerCount: 2
Fore
SplineSet
379 1449 m 0,0,1
 276 1449 276 1449 221.5 1375.5 c 128,-1,2
 167 1302 167 1302 167 1189 c 0,3,4
 167 1070 167 1070 220.5 998 c 128,-1,5
 274 926 274 926 382 926 c 0,6,7
 486 926 486 926 539.5 999.5 c 128,-1,8
 593 1073 593 1073 593 1187 c 0,9,10
 593 1306 593 1306 540.5 1377.5 c 128,-1,11
 488 1449 488 1449 379 1449 c 0,0,1
1438 355 m 0,12,13
 1438 474 1438 474 1385 545 c 128,-1,14
 1332 616 1332 616 1224 616 c 0,15,16
 1118 616 1118 616 1063.5 543.5 c 128,-1,17
 1009 471 1009 471 1009 356 c 1,18,-1
 1011 356 l 1,19,20
 1011 236 1011 236 1063.5 164.5 c 128,-1,21
 1116 93 1116 93 1225 93 c 0,22,23
 1328 93 1328 93 1383 167 c 128,-1,24
 1438 241 1438 241 1438 355 c 0,12,13
2094 93 m 0,25,26
 2199 93 2199 93 2253 166.5 c 128,-1,27
 2307 240 2307 240 2307 355 c 1,28,-1
 2310 355 l 1,29,30
 2310 474 2310 474 2256.5 545 c 128,-1,31
 2203 616 2203 616 2094 616 c 0,32,33
 1989 616 1989 616 1934.5 543.5 c 128,-1,34
 1880 471 1880 471 1880 356 c 0,35,36
 1880 235 1880 235 1932 164 c 128,-1,37
 1984 93 1984 93 2094 93 c 0,25,26
1234 1559 m 1,38,-1
 1399 1559 l 1,39,-1
 365 -22 l 1,40,-1
 195 -22 l 1,41,-1
 1234 1559 l 1,38,-1
379 1571 m 0,42,43
 557 1571 557 1571 654.5 1468.5 c 128,-1,44
 752 1366 752 1366 752 1186 c 0,45,46
 752 1010 752 1010 651.5 907 c 128,-1,47
 551 804 551 804 376 804 c 0,48,49
 198 804 198 804 101 906 c 128,-1,50
 4 1008 4 1008 4 1188 c 0,51,52
 4 1363 4 1363 104.5 1467 c 128,-1,53
 205 1571 205 1571 379 1571 c 0,42,43
1225 740 m 0,54,55
 1403 740 1403 740 1499 637 c 128,-1,56
 1595 534 1595 534 1595 353 c 0,57,58
 1595 179 1595 179 1494.5 74.5 c 128,-1,59
 1394 -30 1394 -30 1221 -30 c 0,60,61
 1044 -30 1044 -30 946 73 c 128,-1,62
 848 176 848 176 848 356 c 0,63,64
 848 531 848 531 949.5 635.5 c 128,-1,65
 1051 740 1051 740 1225 740 c 0,54,55
2097 740 m 0,66,67
 2275 740 2275 740 2371.5 637 c 128,-1,68
 2468 534 2468 534 2468 353 c 0,69,70
 2468 179 2468 179 2367 74.5 c 128,-1,71
 2266 -30 2266 -30 2093 -30 c 0,72,73
 1915 -30 1915 -30 1818 73 c 128,-1,74
 1721 176 1721 176 1721 356 c 0,75,76
 1721 532 1721 532 1822 636 c 128,-1,77
 1923 740 1923 740 2097 740 c 0,66,67
EndSplineSet
EndChar

StartChar: guilsinglleft
Encoding: 8249 8249 343
Width: 1229
Flags: W
LayerCount: 2
Fore
SplineSet
881 992 m 1,0,-1
 589 588 l 1,1,-1
 871 185 l 1,2,-1
 698 185 l 1,3,-1
 401 588 l 1,4,-1
 704 992 l 1,5,-1
 881 992 l 1,0,-1
EndSplineSet
EndChar

StartChar: guilsinglright
Encoding: 8250 8250 344
Width: 1229
Flags: W
LayerCount: 2
Fore
SplineSet
401 185 m 1,0,-1
 691 589 l 1,1,-1
 409 992 l 1,2,-1
 582 992 l 1,3,-1
 881 589 l 1,4,-1
 575 185 l 1,5,-1
 401 185 l 1,0,-1
EndSplineSet
EndChar

StartChar: fraction
Encoding: 8260 8260 345
Width: 1229
Flags: W
LayerCount: 2
Fore
SplineSet
873 1761 m 1,0,-1
 1059 1761 l 1,1,-1
 350 -48 l 1,2,-1
 170 -48 l 1,3,-1
 873 1761 l 1,0,-1
EndSplineSet
EndChar

StartChar: Euro
Encoding: 8364 8364 346
Width: 1229
Flags: W
LayerCount: 2
Fore
SplineSet
235 710 m 1,0,1
 232 749 232 749 232 792 c 0,2,3
 232 813 232 813 234 851 c 1,4,-1
 96 851 l 1,5,-1
 122 1001 l 1,6,-1
 255 1001 l 1,7,8
 278 1123 278 1123 329 1226 c 128,-1,9
 380 1329 380 1329 455 1407 c 128,-1,10
 530 1485 530 1485 635 1528.5 c 128,-1,11
 740 1572 740 1572 864 1572 c 0,12,13
 1103 1572 1103 1572 1237 1444 c 1,14,-1
 1198 1239 l 1,15,16
 1075 1415 1075 1415 872 1415 c 0,17,18
 779 1415 779 1415 704.5 1381 c 128,-1,19
 630 1347 630 1347 580.5 1286.5 c 128,-1,20
 531 1226 531 1226 499.5 1156 c 128,-1,21
 468 1086 468 1086 450 1001 c 1,22,-1
 1106 1001 l 1,23,-1
 1082 851 l 1,24,-1
 430 851 l 1,25,-1
 427 807 l 1,26,27
 427 751 427 751 431 710 c 1,28,-1
 1067 710 l 1,29,-1
 1046 560 l 1,30,-1
 446 560 l 1,31,32
 504 136 504 136 863 136 c 0,33,34
 1036 136 1036 136 1213 275 c 1,35,-1
 1212 81 l 1,36,37
 1058 -22 1058 -22 845 -22 c 0,38,39
 707 -22 707 -22 599.5 21.5 c 128,-1,40
 492 65 492 65 421.5 145 c 128,-1,41
 351 225 351 225 309 328 c 128,-1,42
 267 431 267 431 249 560 c 1,43,-1
 100 560 l 1,44,-1
 122 710 l 1,45,-1
 235 710 l 1,0,1
EndSplineSet
EndChar

StartChar: trademark
Encoding: 8482 8482 347
Width: 1229
Flags: W
LayerCount: 2
Fore
SplineSet
605 1466 m 1,0,-1
 366 1466 l 1,1,-1
 366 745 l 1,2,-1
 231 745 l 1,3,-1
 231 1466 l 1,4,-1
 0 1466 l 1,5,-1
 0 1575 l 1,6,-1
 605 1575 l 1,7,-1
 605 1466 l 1,0,-1
1062 1201 m 1,8,-1
 1224 1575 l 1,9,-1
 1398 1575 l 1,10,-1
 1398 745 l 1,11,-1
 1262 745 l 1,12,-1
 1262 1391 l 1,13,-1
 1111 1016 l 1,14,-1
 1022 1016 l 1,15,-1
 863 1390 l 1,16,-1
 863 745 l 1,17,-1
 728 745 l 1,18,-1
 728 1575 l 1,19,-1
 914 1575 l 1,20,-1
 1062 1201 l 1,8,-1
EndSplineSet
EndChar

StartChar: partialdiff
Encoding: 8706 8706 348
Width: 1229
Flags: W
LayerCount: 2
Fore
SplineSet
1011 712 m 1,0,1
 929 943 929 943 693 943 c 0,2,3
 572 943 572 943 482.5 871.5 c 128,-1,4
 393 800 393 800 351 690.5 c 128,-1,5
 309 581 309 581 309 453 c 0,6,7
 309 303 309 303 380 211.5 c 128,-1,8
 451 120 451 120 589 120 c 0,9,10
 670 120 670 120 738 158 c 128,-1,11
 806 196 806 196 851.5 256 c 128,-1,12
 897 316 897 316 931 396.5 c 128,-1,13
 965 477 965 477 983.5 554 c 128,-1,14
 1002 631 1002 631 1011 712 c 1,0,1
667 1519 m 0,15,16
 508 1519 508 1519 350 1416 c 1,17,-1
 339 1566 l 1,18,19
 492 1664 492 1664 678 1664 c 0,20,21
 791 1664 791 1664 882 1627.5 c 128,-1,22
 973 1591 973 1591 1034.5 1527.5 c 128,-1,23
 1096 1464 1096 1464 1137 1374.5 c 128,-1,24
 1178 1285 1178 1285 1196.5 1182.5 c 128,-1,25
 1215 1080 1215 1080 1215 962 c 0,26,27
 1215 805 1215 805 1192 662.5 c 128,-1,28
 1169 520 1169 520 1119 393.5 c 128,-1,29
 1069 267 1069 267 995.5 174.5 c 128,-1,30
 922 82 922 82 813.5 28 c 128,-1,31
 705 -26 705 -26 573 -26 c 0,32,33
 358 -26 358 -26 239.5 104.5 c 128,-1,34
 121 235 121 235 121 455 c 0,35,36
 121 592 121 592 163 710.5 c 128,-1,37
 205 829 205 829 278.5 911.5 c 128,-1,38
 352 994 352 994 455 1041 c 128,-1,39
 558 1088 558 1088 677 1088 c 0,40,41
 890 1088 890 1088 1027 907 c 1,42,-1
 1028 989 l 1,43,44
 1028 1095 1028 1095 1009 1186 c 128,-1,45
 990 1277 990 1277 949 1354 c 128,-1,46
 908 1431 908 1431 836 1475 c 128,-1,47
 764 1519 764 1519 667 1519 c 0,15,16
EndSplineSet
EndChar

StartChar: uni2206
Encoding: 8710 8710 349
Width: 1229
Flags: W
LayerCount: 2
Fore
SplineSet
1035 176 m 1,0,1
 988 300 988 300 894.5 530 c 128,-1,2
 801 760 801 760 729.5 951 c 128,-1,3
 658 1142 658 1142 607 1322 c 1,4,5
 551 1150 551 1150 480.5 957 c 128,-1,6
 410 764 410 764 323.5 535.5 c 128,-1,7
 237 307 237 307 189 176 c 1,8,-1
 1035 176 l 1,0,1
-62 0 m 1,9,-1
 -62 87 l 1,10,-1
 514 1552 l 1,11,-1
 715 1552 l 1,12,-1
 1291 87 l 1,13,-1
 1291 0 l 1,14,-1
 -62 0 l 1,9,-1
EndSplineSet
EndChar

StartChar: product
Encoding: 8719 8719 350
Width: 1229
Flags: W
LayerCount: 2
Fore
SplineSet
1503 1388 m 1,0,-1
 1503 -358 l 1,1,-1
 1306 -358 l 1,2,-1
 1306 1388 l 1,3,-1
 506 1388 l 1,4,-1
 506 -358 l 1,5,-1
 312 -358 l 1,6,-1
 312 1388 l 1,7,-1
 174 1388 l 1,8,-1
 156 1545 l 1,9,-1
 1647 1545 l 1,10,-1
 1629 1388 l 1,11,-1
 1503 1388 l 1,0,-1
EndSplineSet
EndChar

StartChar: summation
Encoding: 8721 8721 351
Width: 1229
Flags: W
LayerCount: 2
Fore
SplineSet
74 -358 m 1,0,-1
 74 -260 l 1,1,-1
 783 599 l 1,2,-1
 100 1442 l 1,3,-1
 100 1545 l 1,4,-1
 1311 1545 l 1,5,-1
 1311 1391 l 1,6,-1
 371 1391 l 1,7,-1
 1005 609 l 1,8,-1
 336 -197 l 1,9,-1
 1362 -197 l 1,10,-1
 1362 -358 l 1,11,-1
 74 -358 l 1,0,-1
EndSplineSet
EndChar

StartChar: minus
Encoding: 8722 8722 352
Width: 1229
Flags: W
LayerCount: 2
Fore
SplineSet
1312 538 m 1,0,-1
 152 538 l 1,1,-1
 152 687 l 1,2,-1
 1312 687 l 1,3,-1
 1312 538 l 1,0,-1
EndSplineSet
EndChar

StartChar: radical
Encoding: 8730 8730 353
Width: 1229
Flags: W
LayerCount: 2
Fore
SplineSet
668 45 m 1,0,1
 749 386 749 386 926 1017.5 c 128,-1,2
 1103 1649 1103 1649 1125 1732 c 1,3,-1
 1269 1732 l 1,4,-1
 753 -166 l 1,5,-1
 603 -166 l 1,6,-1
 236 749 l 1,7,-1
 45 719 l 1,8,-1
 23 840 l 1,9,-1
 350 896 l 1,10,11
 363 863 363 863 429 697.5 c 128,-1,12
 495 532 495 532 520.5 465.5 c 128,-1,13
 546 399 546 399 591 274 c 128,-1,14
 636 149 636 149 668 45 c 1,0,1
EndSplineSet
EndChar

StartChar: infinity
Encoding: 8734 8734 354
Width: 1229
Flags: W
LayerCount: 2
Fore
SplineSet
1341 1024 m 0,0,1
 1533 1024 1533 1024 1646 925.5 c 128,-1,2
 1759 827 1759 827 1759 644 c 0,3,4
 1759 554 1759 554 1723 478 c 128,-1,5
 1687 402 1687 402 1628.5 354.5 c 128,-1,6
 1570 307 1570 307 1500 281 c 128,-1,7
 1430 255 1430 255 1359 255 c 0,8,9
 1312 255 1312 255 1268 264.5 c 128,-1,10
 1224 274 1224 274 1190.5 286.5 c 128,-1,11
 1157 299 1157 299 1121 323.5 c 128,-1,12
 1085 348 1085 348 1062.5 366.5 c 128,-1,13
 1040 385 1040 385 1008.5 419.5 c 128,-1,14
 977 454 977 454 961.5 472.5 c 128,-1,15
 946 491 946 491 916 529 c 1,16,17
 696 255 696 255 472 255 c 0,18,19
 295 255 295 255 182.5 370.5 c 128,-1,20
 70 486 70 486 70 663 c 0,21,22
 70 749 70 749 109 820 c 128,-1,23
 148 891 148 891 208.5 934 c 128,-1,24
 269 977 269 977 337 1000.5 c 128,-1,25
 405 1024 405 1024 468 1024 c 0,26,27
 530 1024 530 1024 589 1006.5 c 128,-1,28
 648 989 648 989 692 964 c 128,-1,29
 736 939 736 939 781 899 c 128,-1,30
 826 859 826 859 855 826.5 c 128,-1,31
 884 794 884 794 919 750 c 1,32,33
 950 789 950 789 962 804 c 128,-1,34
 974 819 974 819 1007 855.5 c 128,-1,35
 1040 892 1040 892 1060.5 909 c 128,-1,36
 1081 926 1081 926 1117 952.5 c 128,-1,37
 1153 979 1153 979 1184 991.5 c 128,-1,38
 1215 1004 1215 1004 1256.5 1014 c 128,-1,39
 1298 1024 1298 1024 1341 1024 c 0,0,1
467 899 m 0,40,41
 355 899 355 899 284.5 827 c 128,-1,42
 214 755 214 755 214 642 c 0,43,44
 214 531 214 531 289 458 c 128,-1,45
 364 385 364 385 476 385 c 0,46,47
 525 385 525 385 573 402.5 c 128,-1,48
 621 420 621 420 656 444 c 128,-1,49
 691 468 691 468 729 506.5 c 128,-1,50
 767 545 767 545 788.5 572 c 128,-1,51
 810 599 810 599 839 638 c 1,52,53
 809 682 809 682 787.5 709.5 c 128,-1,54
 766 737 766 737 728 777 c 128,-1,55
 690 817 690 817 655 840.5 c 128,-1,56
 620 864 620 864 570 881.5 c 128,-1,57
 520 899 520 899 467 899 c 0,40,41
1604 663 m 0,58,59
 1604 769 1604 769 1535.5 834.5 c 128,-1,60
 1467 900 1467 900 1358 900 c 0,61,62
 1321 900 1321 900 1289 893.5 c 128,-1,63
 1257 887 1257 887 1229.5 872.5 c 128,-1,64
 1202 858 1202 858 1182 845 c 128,-1,65
 1162 832 1162 832 1138 806.5 c 128,-1,66
 1114 781 1114 781 1102 767 c 128,-1,67
 1090 753 1090 753 1066.5 722 c 128,-1,68
 1043 691 1043 691 1034 680 c 0,69,70
 1014 655 1014 655 993 642 c 1,71,72
 1079 530 1079 530 1123 488 c 0,73,74
 1229 385 1229 385 1345 385 c 0,75,76
 1474 385 1474 385 1539 457.5 c 128,-1,77
 1604 530 1604 530 1604 663 c 0,58,59
EndSplineSet
EndChar

StartChar: integral
Encoding: 8747 8747 355
Width: 1229
Flags: W
LayerCount: 2
Fore
SplineSet
1019 1608 m 1,0,1
 974 1624 974 1624 910 1624 c 0,2,3
 797 1624 797 1624 757.5 1569 c 128,-1,4
 718 1514 718 1514 718 1389 c 2,5,-1
 718 -25 l 2,6,7
 718 -433 718 -433 388 -433 c 0,8,9
 322 -433 322 -433 239 -411 c 1,10,-1
 236 -270 l 1,11,12
 287 -287 287 -287 345 -287 c 0,13,14
 456 -287 456 -287 495.5 -231 c 128,-1,15
 535 -175 535 -175 535 -51 c 2,16,-1
 535 1363 l 2,17,18
 535 1771 535 1771 868 1771 c 0,19,20
 908 1771 908 1771 1016 1748 c 1,21,-1
 1019 1608 l 1,0,1
EndSplineSet
EndChar

StartChar: approxequal
Encoding: 8776 8776 356
Width: 1229
Flags: W
LayerCount: 2
Fore
SplineSet
481 867 m 0,0,1
 399 867 399 867 354 818 c 128,-1,2
 309 769 309 769 284 688 c 1,3,4
 273 690 273 690 220.5 703.5 c 128,-1,5
 168 717 168 717 154 717 c 2,6,-1
 152 717 l 1,7,8
 182 846 182 846 264 921 c 128,-1,9
 346 996 346 996 487 996 c 0,10,11
 565 996 565 996 637 966.5 c 128,-1,12
 709 937 709 937 785.5 892 c 128,-1,13
 862 847 862 847 909 830 c 0,14,15
 945 817 945 817 982 817 c 0,16,17
 1025 817 1025 817 1057.5 831.5 c 128,-1,18
 1090 846 1090 846 1112.5 874.5 c 128,-1,19
 1135 903 1135 903 1148.5 930.5 c 128,-1,20
 1162 958 1162 958 1176 997 c 1,21,-1
 1299 966 l 1,22,23
 1235 688 1235 688 978 688 c 0,24,25
 914 688 914 688 852.5 707.5 c 128,-1,26
 791 727 791 727 749.5 751.5 c 128,-1,27
 708 776 708 776 652.5 807.5 c 128,-1,28
 597 839 597 839 555 854 c 0,29,30
 520 867 520 867 481 867 c 0,0,1
998 413 m 0,31,32
 1035 413 1035 413 1065.5 429 c 128,-1,33
 1096 445 1096 445 1118 475 c 128,-1,34
 1140 505 1140 505 1153 530.5 c 128,-1,35
 1166 556 1166 556 1180 592 c 1,36,-1
 1303 563 l 1,37,38
 1238 284 1238 284 983 284 c 0,39,40
 913 284 913 284 838 312 c 128,-1,41
 763 340 763 340 710.5 373.5 c 128,-1,42
 658 407 658 407 595.5 435 c 128,-1,43
 533 463 533 463 484 463 c 0,44,45
 339 463 339 463 284 283 c 1,46,-1
 158 314 l 1,47,48
 227 592 227 592 493 592 c 0,49,50
 558 592 558 592 621 573 c 128,-1,51
 684 554 684 554 726 529.5 c 128,-1,52
 768 505 768 505 825 473.5 c 128,-1,53
 882 442 882 442 924 427 c 0,54,55
 963 413 963 413 998 413 c 0,31,32
EndSplineSet
EndChar

StartChar: notequal
Encoding: 8800 8800 357
Width: 1229
Flags: W
LayerCount: 2
Fore
SplineSet
929 922 m 1,0,-1
 1271 922 l 1,1,-1
 1282 791 l 1,2,-1
 864 791 l 1,3,-1
 700 483 l 1,4,-1
 1273 483 l 1,5,-1
 1282 353 l 1,6,-1
 635 353 l 1,7,-1
 480 50 l 1,8,-1
 345 70 l 1,9,-1
 487 353 l 1,10,-1
 161 353 l 1,11,-1
 153 483 l 1,12,-1
 554 483 l 1,13,-1
 716 791 l 1,14,-1
 161 791 l 1,15,-1
 152 922 l 1,16,-1
 779 922 l 1,17,-1
 930 1219 l 1,18,-1
 1068 1200 l 1,19,-1
 929 922 l 1,0,-1
EndSplineSet
EndChar

StartChar: lessequal
Encoding: 8804 8804 358
Width: 1229
Flags: W
LayerCount: 2
Fore
SplineSet
152 9 m 1,0,-1
 152 143 l 1,1,-1
 1275 143 l 1,2,-1
 1275 9 l 1,3,-1
 152 9 l 1,0,-1
191 723 m 1,4,-1
 191 811 l 1,5,-1
 1243 1323 l 1,6,-1
 1243 1172 l 1,7,-1
 386 771 l 1,8,-1
 1243 387 l 1,9,-1
 1243 235 l 1,10,-1
 191 723 l 1,4,-1
EndSplineSet
EndChar

StartChar: greaterequal
Encoding: 8805 8805 359
Width: 1229
Flags: W
LayerCount: 2
Fore
SplineSet
152 9 m 1,0,-1
 152 143 l 1,1,-1
 1271 143 l 1,2,-1
 1249 9 l 1,3,-1
 152 9 l 1,0,-1
1249 812 m 1,4,-1
 1249 726 l 1,5,-1
 187 237 l 1,6,-1
 187 389 l 1,7,-1
 1053 767 l 1,8,-1
 152 1174 l 1,9,-1
 191 1325 l 1,10,-1
 1249 812 l 1,4,-1
EndSplineSet
EndChar

StartChar: lozenge
Encoding: 9674 9674 360
Width: 1229
Flags: W
LayerCount: 2
Fore
SplineSet
694 1437 m 1,0,1
 618 1305 618 1305 470.5 1067.5 c 128,-1,2
 323 830 323 830 289 774 c 1,3,-1
 682 106 l 1,4,5
 739 208 739 208 805 317.5 c 128,-1,6
 871 427 871 427 956 564 c 128,-1,7
 1041 701 1041 701 1084 772 c 1,8,9
 1040 848 1040 848 960 981 c 128,-1,10
 880 1114 880 1114 814.5 1225.5 c 128,-1,11
 749 1337 749 1337 694 1437 c 1,0,1
740 -48 m 1,12,-1
 624 -48 l 1,13,-1
 125 772 l 1,14,-1
 631 1595 l 1,15,-1
 750 1595 l 1,16,-1
 1251 773 l 1,17,-1
 740 -48 l 1,12,-1
EndSplineSet
EndChar
